G04 #@! TF.GenerationSoftware,KiCad,Pcbnew,5.1.5-52549c5~84~ubuntu18.04.1*
G04 #@! TF.CreationDate,2020-01-22T16:22:53-05:00*
G04 #@! TF.ProjectId,ATA,4154412e-6b69-4636-9164-5f7063625858,1.0*
G04 #@! TF.SameCoordinates,Original*
G04 #@! TF.FileFunction,Copper,L2,Bot*
G04 #@! TF.FilePolarity,Positive*
%FSLAX46Y46*%
G04 Gerber Fmt 4.6, Leading zero omitted, Abs format (unit mm)*
G04 Created by KiCad (PCBNEW 5.1.5-52549c5~84~ubuntu18.04.1) date 2020-01-22 16:22:53*
%MOMM*%
%LPD*%
G04 APERTURE LIST*
%ADD10C,1.524000*%
%ADD11C,0.800000*%
%ADD12C,0.300000*%
%ADD13C,0.254000*%
G04 APERTURE END LIST*
D10*
X155050000Y-101785000D03*
X137050000Y-101785000D03*
X153050000Y-99385000D03*
X139050000Y-99385000D03*
X151050000Y-99385000D03*
X141050000Y-99385000D03*
X149050000Y-99385000D03*
X143050000Y-99385000D03*
X147050000Y-99385000D03*
X145050000Y-99385000D03*
X139065000Y-76327000D03*
X139065000Y-89027000D03*
X141605000Y-81407000D03*
D11*
X146812000Y-87376000D03*
X146050000Y-97028000D03*
X149860000Y-97028000D03*
X144018000Y-87376000D03*
X143510000Y-83312000D03*
D12*
X146050000Y-97028000D02*
X149860000Y-97028000D01*
X150693000Y-97028000D02*
X153050000Y-99385000D01*
X149860000Y-97028000D02*
X150693000Y-97028000D01*
X144018000Y-94996000D02*
X146050000Y-97028000D01*
X144018000Y-87376000D02*
X144018000Y-94996000D01*
X139065000Y-87249000D02*
X139065000Y-89027000D01*
X139065000Y-87949370D02*
X139065000Y-89027000D01*
X142944315Y-83312000D02*
X139065000Y-87191315D01*
X143510000Y-83312000D02*
X142944315Y-83312000D01*
D13*
G36*
X155550000Y-100480005D02*
G01*
X155457490Y-100441686D01*
X155187592Y-100388000D01*
X154912408Y-100388000D01*
X154642510Y-100441686D01*
X154388273Y-100546995D01*
X154159465Y-100699880D01*
X153964880Y-100894465D01*
X153811995Y-101123273D01*
X153706686Y-101377510D01*
X153653000Y-101647408D01*
X153653000Y-101922592D01*
X153706686Y-102192490D01*
X153811995Y-102446727D01*
X153964880Y-102675535D01*
X154159465Y-102870120D01*
X154388273Y-103023005D01*
X154642510Y-103128314D01*
X154912408Y-103182000D01*
X155187592Y-103182000D01*
X155457490Y-103128314D01*
X155550000Y-103089995D01*
X155550000Y-107925000D01*
X136550000Y-107925000D01*
X136550000Y-103089995D01*
X136642510Y-103128314D01*
X136912408Y-103182000D01*
X137187592Y-103182000D01*
X137457490Y-103128314D01*
X137711727Y-103023005D01*
X137940535Y-102870120D01*
X138135120Y-102675535D01*
X138288005Y-102446727D01*
X138393314Y-102192490D01*
X138447000Y-101922592D01*
X138447000Y-101647408D01*
X138393314Y-101377510D01*
X138288005Y-101123273D01*
X138135120Y-100894465D01*
X137940535Y-100699880D01*
X137711727Y-100546995D01*
X137457490Y-100441686D01*
X137187592Y-100388000D01*
X136912408Y-100388000D01*
X136642510Y-100441686D01*
X136550000Y-100480005D01*
X136550000Y-100350565D01*
X138264040Y-100350565D01*
X138331020Y-100590656D01*
X138580048Y-100707756D01*
X138847135Y-100774023D01*
X139122017Y-100786910D01*
X139394133Y-100745922D01*
X139653023Y-100652636D01*
X139768980Y-100590656D01*
X139835960Y-100350565D01*
X139050000Y-99564605D01*
X138264040Y-100350565D01*
X136550000Y-100350565D01*
X136550000Y-99457017D01*
X137648090Y-99457017D01*
X137689078Y-99729133D01*
X137782364Y-99988023D01*
X137844344Y-100103980D01*
X138084435Y-100170960D01*
X138870395Y-99385000D01*
X139229605Y-99385000D01*
X139755895Y-99911290D01*
X139811995Y-100046727D01*
X139964880Y-100275535D01*
X140159465Y-100470120D01*
X140388273Y-100623005D01*
X140642510Y-100728314D01*
X140912408Y-100782000D01*
X141187592Y-100782000D01*
X141457490Y-100728314D01*
X141711727Y-100623005D01*
X141940535Y-100470120D01*
X142050000Y-100360655D01*
X142159465Y-100470120D01*
X142388273Y-100623005D01*
X142642510Y-100728314D01*
X142912408Y-100782000D01*
X143187592Y-100782000D01*
X143457490Y-100728314D01*
X143711727Y-100623005D01*
X143940535Y-100470120D01*
X144050000Y-100360655D01*
X144159465Y-100470120D01*
X144388273Y-100623005D01*
X144642510Y-100728314D01*
X144912408Y-100782000D01*
X145187592Y-100782000D01*
X145457490Y-100728314D01*
X145711727Y-100623005D01*
X145940535Y-100470120D01*
X146060090Y-100350565D01*
X146264040Y-100350565D01*
X146331020Y-100590656D01*
X146580048Y-100707756D01*
X146847135Y-100774023D01*
X147122017Y-100786910D01*
X147394133Y-100745922D01*
X147653023Y-100652636D01*
X147768980Y-100590656D01*
X147835960Y-100350565D01*
X147050000Y-99564605D01*
X146264040Y-100350565D01*
X146060090Y-100350565D01*
X146135120Y-100275535D01*
X146288005Y-100046727D01*
X146344105Y-99911290D01*
X146870395Y-99385000D01*
X146344105Y-98858710D01*
X146288005Y-98723273D01*
X146135120Y-98494465D01*
X146060090Y-98419435D01*
X146264040Y-98419435D01*
X147050000Y-99205395D01*
X147835960Y-98419435D01*
X147768980Y-98179344D01*
X147519952Y-98062244D01*
X147252865Y-97995977D01*
X146977983Y-97983090D01*
X146705867Y-98024078D01*
X146446977Y-98117364D01*
X146331020Y-98179344D01*
X146264040Y-98419435D01*
X146060090Y-98419435D01*
X145940535Y-98299880D01*
X145711727Y-98146995D01*
X145457490Y-98041686D01*
X145187592Y-97988000D01*
X144912408Y-97988000D01*
X144642510Y-98041686D01*
X144388273Y-98146995D01*
X144159465Y-98299880D01*
X144050000Y-98409345D01*
X143940535Y-98299880D01*
X143711727Y-98146995D01*
X143457490Y-98041686D01*
X143187592Y-97988000D01*
X142912408Y-97988000D01*
X142642510Y-98041686D01*
X142388273Y-98146995D01*
X142159465Y-98299880D01*
X142050000Y-98409345D01*
X141940535Y-98299880D01*
X141711727Y-98146995D01*
X141457490Y-98041686D01*
X141187592Y-97988000D01*
X140912408Y-97988000D01*
X140642510Y-98041686D01*
X140388273Y-98146995D01*
X140159465Y-98299880D01*
X139964880Y-98494465D01*
X139811995Y-98723273D01*
X139755895Y-98858710D01*
X139229605Y-99385000D01*
X138870395Y-99385000D01*
X138084435Y-98599040D01*
X137844344Y-98666020D01*
X137727244Y-98915048D01*
X137660977Y-99182135D01*
X137648090Y-99457017D01*
X136550000Y-99457017D01*
X136550000Y-98419435D01*
X138264040Y-98419435D01*
X139050000Y-99205395D01*
X139835960Y-98419435D01*
X139768980Y-98179344D01*
X139519952Y-98062244D01*
X139252865Y-97995977D01*
X138977983Y-97983090D01*
X138705867Y-98024078D01*
X138446977Y-98117364D01*
X138331020Y-98179344D01*
X138264040Y-98419435D01*
X136550000Y-98419435D01*
X136550000Y-88889408D01*
X137668000Y-88889408D01*
X137668000Y-89164592D01*
X137721686Y-89434490D01*
X137826995Y-89688727D01*
X137979880Y-89917535D01*
X138174465Y-90112120D01*
X138403273Y-90265005D01*
X138657510Y-90370314D01*
X138927408Y-90424000D01*
X139202592Y-90424000D01*
X139472490Y-90370314D01*
X139726727Y-90265005D01*
X139955535Y-90112120D01*
X140150120Y-89917535D01*
X140303005Y-89688727D01*
X140408314Y-89434490D01*
X140462000Y-89164592D01*
X140462000Y-88889408D01*
X140408314Y-88619510D01*
X140303005Y-88365273D01*
X140150120Y-88136465D01*
X139955535Y-87941880D01*
X139850000Y-87871364D01*
X139850000Y-87516472D01*
X140092411Y-87274061D01*
X142983000Y-87274061D01*
X142983000Y-87477939D01*
X143022774Y-87677898D01*
X143100795Y-87866256D01*
X143214063Y-88035774D01*
X143233000Y-88054711D01*
X143233001Y-94957437D01*
X143229203Y-94996000D01*
X143244359Y-95149886D01*
X143289246Y-95297859D01*
X143289247Y-95297860D01*
X143362139Y-95434233D01*
X143402690Y-95483644D01*
X143435655Y-95523812D01*
X143435659Y-95523816D01*
X143460237Y-95553764D01*
X143490185Y-95578342D01*
X145015000Y-97103158D01*
X145015000Y-97129939D01*
X145054774Y-97329898D01*
X145132795Y-97518256D01*
X145246063Y-97687774D01*
X145390226Y-97831937D01*
X145559744Y-97945205D01*
X145748102Y-98023226D01*
X145948061Y-98063000D01*
X146151939Y-98063000D01*
X146351898Y-98023226D01*
X146540256Y-97945205D01*
X146709774Y-97831937D01*
X146728711Y-97813000D01*
X149181289Y-97813000D01*
X149200226Y-97831937D01*
X149369744Y-97945205D01*
X149558102Y-98023226D01*
X149758061Y-98063000D01*
X149961939Y-98063000D01*
X150161898Y-98023226D01*
X150350256Y-97945205D01*
X150440050Y-97885207D01*
X150609996Y-98055154D01*
X150388273Y-98146995D01*
X150159465Y-98299880D01*
X150050000Y-98409345D01*
X149940535Y-98299880D01*
X149711727Y-98146995D01*
X149457490Y-98041686D01*
X149187592Y-97988000D01*
X148912408Y-97988000D01*
X148642510Y-98041686D01*
X148388273Y-98146995D01*
X148159465Y-98299880D01*
X147964880Y-98494465D01*
X147811995Y-98723273D01*
X147755895Y-98858710D01*
X147229605Y-99385000D01*
X147755895Y-99911290D01*
X147811995Y-100046727D01*
X147964880Y-100275535D01*
X148159465Y-100470120D01*
X148388273Y-100623005D01*
X148642510Y-100728314D01*
X148912408Y-100782000D01*
X149187592Y-100782000D01*
X149457490Y-100728314D01*
X149711727Y-100623005D01*
X149940535Y-100470120D01*
X150050000Y-100360655D01*
X150159465Y-100470120D01*
X150388273Y-100623005D01*
X150642510Y-100728314D01*
X150912408Y-100782000D01*
X151187592Y-100782000D01*
X151457490Y-100728314D01*
X151711727Y-100623005D01*
X151940535Y-100470120D01*
X152050000Y-100360655D01*
X152159465Y-100470120D01*
X152388273Y-100623005D01*
X152642510Y-100728314D01*
X152912408Y-100782000D01*
X153187592Y-100782000D01*
X153457490Y-100728314D01*
X153711727Y-100623005D01*
X153940535Y-100470120D01*
X154135120Y-100275535D01*
X154288005Y-100046727D01*
X154393314Y-99792490D01*
X154447000Y-99522592D01*
X154447000Y-99247408D01*
X154393314Y-98977510D01*
X154288005Y-98723273D01*
X154135120Y-98494465D01*
X153940535Y-98299880D01*
X153711727Y-98146995D01*
X153457490Y-98041686D01*
X153187592Y-97988000D01*
X152912408Y-97988000D01*
X152787920Y-98012762D01*
X151275347Y-96500190D01*
X151250764Y-96470236D01*
X151131233Y-96372138D01*
X150994860Y-96299246D01*
X150846887Y-96254359D01*
X150731561Y-96243000D01*
X150731553Y-96243000D01*
X150693000Y-96239203D01*
X150654447Y-96243000D01*
X150538711Y-96243000D01*
X150519774Y-96224063D01*
X150350256Y-96110795D01*
X150161898Y-96032774D01*
X149961939Y-95993000D01*
X149758061Y-95993000D01*
X149558102Y-96032774D01*
X149369744Y-96110795D01*
X149200226Y-96224063D01*
X149181289Y-96243000D01*
X146728711Y-96243000D01*
X146709774Y-96224063D01*
X146540256Y-96110795D01*
X146351898Y-96032774D01*
X146151939Y-95993000D01*
X146125158Y-95993000D01*
X144803000Y-94670843D01*
X144803000Y-88054711D01*
X144821937Y-88035774D01*
X144935205Y-87866256D01*
X145013226Y-87677898D01*
X145053000Y-87477939D01*
X145053000Y-87274061D01*
X145013226Y-87074102D01*
X144935205Y-86885744D01*
X144821937Y-86716226D01*
X144677774Y-86572063D01*
X144508256Y-86458795D01*
X144319898Y-86380774D01*
X144119939Y-86341000D01*
X143916061Y-86341000D01*
X143716102Y-86380774D01*
X143527744Y-86458795D01*
X143358226Y-86572063D01*
X143214063Y-86716226D01*
X143100795Y-86885744D01*
X143022774Y-87074102D01*
X142983000Y-87274061D01*
X140092411Y-87274061D01*
X143102845Y-84263627D01*
X143208102Y-84307226D01*
X143408061Y-84347000D01*
X143611939Y-84347000D01*
X143811898Y-84307226D01*
X144000256Y-84229205D01*
X144169774Y-84115937D01*
X144313937Y-83971774D01*
X144427205Y-83802256D01*
X144505226Y-83613898D01*
X144545000Y-83413939D01*
X144545000Y-83210061D01*
X144505226Y-83010102D01*
X144427205Y-82821744D01*
X144313937Y-82652226D01*
X144169774Y-82508063D01*
X144000256Y-82394795D01*
X143811898Y-82316774D01*
X143611939Y-82277000D01*
X143408061Y-82277000D01*
X143208102Y-82316774D01*
X143019744Y-82394795D01*
X142850226Y-82508063D01*
X142823154Y-82535135D01*
X142790428Y-82538358D01*
X142642455Y-82583246D01*
X142506082Y-82656138D01*
X142386551Y-82754236D01*
X142361968Y-82784190D01*
X138482655Y-86663503D01*
X138409139Y-86753083D01*
X138336246Y-86889456D01*
X138291359Y-87037429D01*
X138276203Y-87191315D01*
X138280000Y-87229868D01*
X138280000Y-87871363D01*
X138174465Y-87941880D01*
X137979880Y-88136465D01*
X137826995Y-88365273D01*
X137721686Y-88619510D01*
X137668000Y-88889408D01*
X136550000Y-88889408D01*
X136550000Y-81269408D01*
X140208000Y-81269408D01*
X140208000Y-81544592D01*
X140261686Y-81814490D01*
X140366995Y-82068727D01*
X140519880Y-82297535D01*
X140714465Y-82492120D01*
X140943273Y-82645005D01*
X141197510Y-82750314D01*
X141467408Y-82804000D01*
X141742592Y-82804000D01*
X142012490Y-82750314D01*
X142266727Y-82645005D01*
X142495535Y-82492120D01*
X142690120Y-82297535D01*
X142843005Y-82068727D01*
X142948314Y-81814490D01*
X143002000Y-81544592D01*
X143002000Y-81269408D01*
X142948314Y-80999510D01*
X142843005Y-80745273D01*
X142690120Y-80516465D01*
X142495535Y-80321880D01*
X142266727Y-80168995D01*
X142012490Y-80063686D01*
X141742592Y-80010000D01*
X141467408Y-80010000D01*
X141197510Y-80063686D01*
X140943273Y-80168995D01*
X140714465Y-80321880D01*
X140519880Y-80516465D01*
X140366995Y-80745273D01*
X140261686Y-80999510D01*
X140208000Y-81269408D01*
X136550000Y-81269408D01*
X136550000Y-77292565D01*
X138279040Y-77292565D01*
X138346020Y-77532656D01*
X138595048Y-77649756D01*
X138862135Y-77716023D01*
X139137017Y-77728910D01*
X139409133Y-77687922D01*
X139668023Y-77594636D01*
X139783980Y-77532656D01*
X139850960Y-77292565D01*
X139065000Y-76506605D01*
X138279040Y-77292565D01*
X136550000Y-77292565D01*
X136550000Y-76399017D01*
X137663090Y-76399017D01*
X137704078Y-76671133D01*
X137797364Y-76930023D01*
X137859344Y-77045980D01*
X138099435Y-77112960D01*
X138885395Y-76327000D01*
X139244605Y-76327000D01*
X140030565Y-77112960D01*
X140270656Y-77045980D01*
X140387756Y-76796952D01*
X140454023Y-76529865D01*
X140466910Y-76254983D01*
X140425922Y-75982867D01*
X140332636Y-75723977D01*
X140270656Y-75608020D01*
X140030565Y-75541040D01*
X139244605Y-76327000D01*
X138885395Y-76327000D01*
X138099435Y-75541040D01*
X137859344Y-75608020D01*
X137742244Y-75857048D01*
X137675977Y-76124135D01*
X137663090Y-76399017D01*
X136550000Y-76399017D01*
X136550000Y-75361435D01*
X138279040Y-75361435D01*
X139065000Y-76147395D01*
X139850960Y-75361435D01*
X139783980Y-75121344D01*
X139534952Y-75004244D01*
X139267865Y-74937977D01*
X138992983Y-74925090D01*
X138720867Y-74966078D01*
X138461977Y-75059364D01*
X138346020Y-75121344D01*
X138279040Y-75361435D01*
X136550000Y-75361435D01*
X136550000Y-72415000D01*
X155550001Y-72415000D01*
X155550000Y-100480005D01*
G37*
X155550000Y-100480005D02*
X155457490Y-100441686D01*
X155187592Y-100388000D01*
X154912408Y-100388000D01*
X154642510Y-100441686D01*
X154388273Y-100546995D01*
X154159465Y-100699880D01*
X153964880Y-100894465D01*
X153811995Y-101123273D01*
X153706686Y-101377510D01*
X153653000Y-101647408D01*
X153653000Y-101922592D01*
X153706686Y-102192490D01*
X153811995Y-102446727D01*
X153964880Y-102675535D01*
X154159465Y-102870120D01*
X154388273Y-103023005D01*
X154642510Y-103128314D01*
X154912408Y-103182000D01*
X155187592Y-103182000D01*
X155457490Y-103128314D01*
X155550000Y-103089995D01*
X155550000Y-107925000D01*
X136550000Y-107925000D01*
X136550000Y-103089995D01*
X136642510Y-103128314D01*
X136912408Y-103182000D01*
X137187592Y-103182000D01*
X137457490Y-103128314D01*
X137711727Y-103023005D01*
X137940535Y-102870120D01*
X138135120Y-102675535D01*
X138288005Y-102446727D01*
X138393314Y-102192490D01*
X138447000Y-101922592D01*
X138447000Y-101647408D01*
X138393314Y-101377510D01*
X138288005Y-101123273D01*
X138135120Y-100894465D01*
X137940535Y-100699880D01*
X137711727Y-100546995D01*
X137457490Y-100441686D01*
X137187592Y-100388000D01*
X136912408Y-100388000D01*
X136642510Y-100441686D01*
X136550000Y-100480005D01*
X136550000Y-100350565D01*
X138264040Y-100350565D01*
X138331020Y-100590656D01*
X138580048Y-100707756D01*
X138847135Y-100774023D01*
X139122017Y-100786910D01*
X139394133Y-100745922D01*
X139653023Y-100652636D01*
X139768980Y-100590656D01*
X139835960Y-100350565D01*
X139050000Y-99564605D01*
X138264040Y-100350565D01*
X136550000Y-100350565D01*
X136550000Y-99457017D01*
X137648090Y-99457017D01*
X137689078Y-99729133D01*
X137782364Y-99988023D01*
X137844344Y-100103980D01*
X138084435Y-100170960D01*
X138870395Y-99385000D01*
X139229605Y-99385000D01*
X139755895Y-99911290D01*
X139811995Y-100046727D01*
X139964880Y-100275535D01*
X140159465Y-100470120D01*
X140388273Y-100623005D01*
X140642510Y-100728314D01*
X140912408Y-100782000D01*
X141187592Y-100782000D01*
X141457490Y-100728314D01*
X141711727Y-100623005D01*
X141940535Y-100470120D01*
X142050000Y-100360655D01*
X142159465Y-100470120D01*
X142388273Y-100623005D01*
X142642510Y-100728314D01*
X142912408Y-100782000D01*
X143187592Y-100782000D01*
X143457490Y-100728314D01*
X143711727Y-100623005D01*
X143940535Y-100470120D01*
X144050000Y-100360655D01*
X144159465Y-100470120D01*
X144388273Y-100623005D01*
X144642510Y-100728314D01*
X144912408Y-100782000D01*
X145187592Y-100782000D01*
X145457490Y-100728314D01*
X145711727Y-100623005D01*
X145940535Y-100470120D01*
X146060090Y-100350565D01*
X146264040Y-100350565D01*
X146331020Y-100590656D01*
X146580048Y-100707756D01*
X146847135Y-100774023D01*
X147122017Y-100786910D01*
X147394133Y-100745922D01*
X147653023Y-100652636D01*
X147768980Y-100590656D01*
X147835960Y-100350565D01*
X147050000Y-99564605D01*
X146264040Y-100350565D01*
X146060090Y-100350565D01*
X146135120Y-100275535D01*
X146288005Y-100046727D01*
X146344105Y-99911290D01*
X146870395Y-99385000D01*
X146344105Y-98858710D01*
X146288005Y-98723273D01*
X146135120Y-98494465D01*
X146060090Y-98419435D01*
X146264040Y-98419435D01*
X147050000Y-99205395D01*
X147835960Y-98419435D01*
X147768980Y-98179344D01*
X147519952Y-98062244D01*
X147252865Y-97995977D01*
X146977983Y-97983090D01*
X146705867Y-98024078D01*
X146446977Y-98117364D01*
X146331020Y-98179344D01*
X146264040Y-98419435D01*
X146060090Y-98419435D01*
X145940535Y-98299880D01*
X145711727Y-98146995D01*
X145457490Y-98041686D01*
X145187592Y-97988000D01*
X144912408Y-97988000D01*
X144642510Y-98041686D01*
X144388273Y-98146995D01*
X144159465Y-98299880D01*
X144050000Y-98409345D01*
X143940535Y-98299880D01*
X143711727Y-98146995D01*
X143457490Y-98041686D01*
X143187592Y-97988000D01*
X142912408Y-97988000D01*
X142642510Y-98041686D01*
X142388273Y-98146995D01*
X142159465Y-98299880D01*
X142050000Y-98409345D01*
X141940535Y-98299880D01*
X141711727Y-98146995D01*
X141457490Y-98041686D01*
X141187592Y-97988000D01*
X140912408Y-97988000D01*
X140642510Y-98041686D01*
X140388273Y-98146995D01*
X140159465Y-98299880D01*
X139964880Y-98494465D01*
X139811995Y-98723273D01*
X139755895Y-98858710D01*
X139229605Y-99385000D01*
X138870395Y-99385000D01*
X138084435Y-98599040D01*
X137844344Y-98666020D01*
X137727244Y-98915048D01*
X137660977Y-99182135D01*
X137648090Y-99457017D01*
X136550000Y-99457017D01*
X136550000Y-98419435D01*
X138264040Y-98419435D01*
X139050000Y-99205395D01*
X139835960Y-98419435D01*
X139768980Y-98179344D01*
X139519952Y-98062244D01*
X139252865Y-97995977D01*
X138977983Y-97983090D01*
X138705867Y-98024078D01*
X138446977Y-98117364D01*
X138331020Y-98179344D01*
X138264040Y-98419435D01*
X136550000Y-98419435D01*
X136550000Y-88889408D01*
X137668000Y-88889408D01*
X137668000Y-89164592D01*
X137721686Y-89434490D01*
X137826995Y-89688727D01*
X137979880Y-89917535D01*
X138174465Y-90112120D01*
X138403273Y-90265005D01*
X138657510Y-90370314D01*
X138927408Y-90424000D01*
X139202592Y-90424000D01*
X139472490Y-90370314D01*
X139726727Y-90265005D01*
X139955535Y-90112120D01*
X140150120Y-89917535D01*
X140303005Y-89688727D01*
X140408314Y-89434490D01*
X140462000Y-89164592D01*
X140462000Y-88889408D01*
X140408314Y-88619510D01*
X140303005Y-88365273D01*
X140150120Y-88136465D01*
X139955535Y-87941880D01*
X139850000Y-87871364D01*
X139850000Y-87516472D01*
X140092411Y-87274061D01*
X142983000Y-87274061D01*
X142983000Y-87477939D01*
X143022774Y-87677898D01*
X143100795Y-87866256D01*
X143214063Y-88035774D01*
X143233000Y-88054711D01*
X143233001Y-94957437D01*
X143229203Y-94996000D01*
X143244359Y-95149886D01*
X143289246Y-95297859D01*
X143289247Y-95297860D01*
X143362139Y-95434233D01*
X143402690Y-95483644D01*
X143435655Y-95523812D01*
X143435659Y-95523816D01*
X143460237Y-95553764D01*
X143490185Y-95578342D01*
X145015000Y-97103158D01*
X145015000Y-97129939D01*
X145054774Y-97329898D01*
X145132795Y-97518256D01*
X145246063Y-97687774D01*
X145390226Y-97831937D01*
X145559744Y-97945205D01*
X145748102Y-98023226D01*
X145948061Y-98063000D01*
X146151939Y-98063000D01*
X146351898Y-98023226D01*
X146540256Y-97945205D01*
X146709774Y-97831937D01*
X146728711Y-97813000D01*
X149181289Y-97813000D01*
X149200226Y-97831937D01*
X149369744Y-97945205D01*
X149558102Y-98023226D01*
X149758061Y-98063000D01*
X149961939Y-98063000D01*
X150161898Y-98023226D01*
X150350256Y-97945205D01*
X150440050Y-97885207D01*
X150609996Y-98055154D01*
X150388273Y-98146995D01*
X150159465Y-98299880D01*
X150050000Y-98409345D01*
X149940535Y-98299880D01*
X149711727Y-98146995D01*
X149457490Y-98041686D01*
X149187592Y-97988000D01*
X148912408Y-97988000D01*
X148642510Y-98041686D01*
X148388273Y-98146995D01*
X148159465Y-98299880D01*
X147964880Y-98494465D01*
X147811995Y-98723273D01*
X147755895Y-98858710D01*
X147229605Y-99385000D01*
X147755895Y-99911290D01*
X147811995Y-100046727D01*
X147964880Y-100275535D01*
X148159465Y-100470120D01*
X148388273Y-100623005D01*
X148642510Y-100728314D01*
X148912408Y-100782000D01*
X149187592Y-100782000D01*
X149457490Y-100728314D01*
X149711727Y-100623005D01*
X149940535Y-100470120D01*
X150050000Y-100360655D01*
X150159465Y-100470120D01*
X150388273Y-100623005D01*
X150642510Y-100728314D01*
X150912408Y-100782000D01*
X151187592Y-100782000D01*
X151457490Y-100728314D01*
X151711727Y-100623005D01*
X151940535Y-100470120D01*
X152050000Y-100360655D01*
X152159465Y-100470120D01*
X152388273Y-100623005D01*
X152642510Y-100728314D01*
X152912408Y-100782000D01*
X153187592Y-100782000D01*
X153457490Y-100728314D01*
X153711727Y-100623005D01*
X153940535Y-100470120D01*
X154135120Y-100275535D01*
X154288005Y-100046727D01*
X154393314Y-99792490D01*
X154447000Y-99522592D01*
X154447000Y-99247408D01*
X154393314Y-98977510D01*
X154288005Y-98723273D01*
X154135120Y-98494465D01*
X153940535Y-98299880D01*
X153711727Y-98146995D01*
X153457490Y-98041686D01*
X153187592Y-97988000D01*
X152912408Y-97988000D01*
X152787920Y-98012762D01*
X151275347Y-96500190D01*
X151250764Y-96470236D01*
X151131233Y-96372138D01*
X150994860Y-96299246D01*
X150846887Y-96254359D01*
X150731561Y-96243000D01*
X150731553Y-96243000D01*
X150693000Y-96239203D01*
X150654447Y-96243000D01*
X150538711Y-96243000D01*
X150519774Y-96224063D01*
X150350256Y-96110795D01*
X150161898Y-96032774D01*
X149961939Y-95993000D01*
X149758061Y-95993000D01*
X149558102Y-96032774D01*
X149369744Y-96110795D01*
X149200226Y-96224063D01*
X149181289Y-96243000D01*
X146728711Y-96243000D01*
X146709774Y-96224063D01*
X146540256Y-96110795D01*
X146351898Y-96032774D01*
X146151939Y-95993000D01*
X146125158Y-95993000D01*
X144803000Y-94670843D01*
X144803000Y-88054711D01*
X144821937Y-88035774D01*
X144935205Y-87866256D01*
X145013226Y-87677898D01*
X145053000Y-87477939D01*
X145053000Y-87274061D01*
X145013226Y-87074102D01*
X144935205Y-86885744D01*
X144821937Y-86716226D01*
X144677774Y-86572063D01*
X144508256Y-86458795D01*
X144319898Y-86380774D01*
X144119939Y-86341000D01*
X143916061Y-86341000D01*
X143716102Y-86380774D01*
X143527744Y-86458795D01*
X143358226Y-86572063D01*
X143214063Y-86716226D01*
X143100795Y-86885744D01*
X143022774Y-87074102D01*
X142983000Y-87274061D01*
X140092411Y-87274061D01*
X143102845Y-84263627D01*
X143208102Y-84307226D01*
X143408061Y-84347000D01*
X143611939Y-84347000D01*
X143811898Y-84307226D01*
X144000256Y-84229205D01*
X144169774Y-84115937D01*
X144313937Y-83971774D01*
X144427205Y-83802256D01*
X144505226Y-83613898D01*
X144545000Y-83413939D01*
X144545000Y-83210061D01*
X144505226Y-83010102D01*
X144427205Y-82821744D01*
X144313937Y-82652226D01*
X144169774Y-82508063D01*
X144000256Y-82394795D01*
X143811898Y-82316774D01*
X143611939Y-82277000D01*
X143408061Y-82277000D01*
X143208102Y-82316774D01*
X143019744Y-82394795D01*
X142850226Y-82508063D01*
X142823154Y-82535135D01*
X142790428Y-82538358D01*
X142642455Y-82583246D01*
X142506082Y-82656138D01*
X142386551Y-82754236D01*
X142361968Y-82784190D01*
X138482655Y-86663503D01*
X138409139Y-86753083D01*
X138336246Y-86889456D01*
X138291359Y-87037429D01*
X138276203Y-87191315D01*
X138280000Y-87229868D01*
X138280000Y-87871363D01*
X138174465Y-87941880D01*
X137979880Y-88136465D01*
X137826995Y-88365273D01*
X137721686Y-88619510D01*
X137668000Y-88889408D01*
X136550000Y-88889408D01*
X136550000Y-81269408D01*
X140208000Y-81269408D01*
X140208000Y-81544592D01*
X140261686Y-81814490D01*
X140366995Y-82068727D01*
X140519880Y-82297535D01*
X140714465Y-82492120D01*
X140943273Y-82645005D01*
X141197510Y-82750314D01*
X141467408Y-82804000D01*
X141742592Y-82804000D01*
X142012490Y-82750314D01*
X142266727Y-82645005D01*
X142495535Y-82492120D01*
X142690120Y-82297535D01*
X142843005Y-82068727D01*
X142948314Y-81814490D01*
X143002000Y-81544592D01*
X143002000Y-81269408D01*
X142948314Y-80999510D01*
X142843005Y-80745273D01*
X142690120Y-80516465D01*
X142495535Y-80321880D01*
X142266727Y-80168995D01*
X142012490Y-80063686D01*
X141742592Y-80010000D01*
X141467408Y-80010000D01*
X141197510Y-80063686D01*
X140943273Y-80168995D01*
X140714465Y-80321880D01*
X140519880Y-80516465D01*
X140366995Y-80745273D01*
X140261686Y-80999510D01*
X140208000Y-81269408D01*
X136550000Y-81269408D01*
X136550000Y-77292565D01*
X138279040Y-77292565D01*
X138346020Y-77532656D01*
X138595048Y-77649756D01*
X138862135Y-77716023D01*
X139137017Y-77728910D01*
X139409133Y-77687922D01*
X139668023Y-77594636D01*
X139783980Y-77532656D01*
X139850960Y-77292565D01*
X139065000Y-76506605D01*
X138279040Y-77292565D01*
X136550000Y-77292565D01*
X136550000Y-76399017D01*
X137663090Y-76399017D01*
X137704078Y-76671133D01*
X137797364Y-76930023D01*
X137859344Y-77045980D01*
X138099435Y-77112960D01*
X138885395Y-76327000D01*
X139244605Y-76327000D01*
X140030565Y-77112960D01*
X140270656Y-77045980D01*
X140387756Y-76796952D01*
X140454023Y-76529865D01*
X140466910Y-76254983D01*
X140425922Y-75982867D01*
X140332636Y-75723977D01*
X140270656Y-75608020D01*
X140030565Y-75541040D01*
X139244605Y-76327000D01*
X138885395Y-76327000D01*
X138099435Y-75541040D01*
X137859344Y-75608020D01*
X137742244Y-75857048D01*
X137675977Y-76124135D01*
X137663090Y-76399017D01*
X136550000Y-76399017D01*
X136550000Y-75361435D01*
X138279040Y-75361435D01*
X139065000Y-76147395D01*
X139850960Y-75361435D01*
X139783980Y-75121344D01*
X139534952Y-75004244D01*
X139267865Y-74937977D01*
X138992983Y-74925090D01*
X138720867Y-74966078D01*
X138461977Y-75059364D01*
X138346020Y-75121344D01*
X138279040Y-75361435D01*
X136550000Y-75361435D01*
X136550000Y-72415000D01*
X155550001Y-72415000D01*
X155550000Y-100480005D01*
M02*
