G04 #@! TF.GenerationSoftware,KiCad,Pcbnew,5.1.5-52549c5~84~ubuntu18.04.1*
G04 #@! TF.CreationDate,2020-01-22T16:22:53-05:00*
G04 #@! TF.ProjectId,ATA,4154412e-6b69-4636-9164-5f7063625858,1.0*
G04 #@! TF.SameCoordinates,Original*
G04 #@! TF.FileFunction,Soldermask,Top*
G04 #@! TF.FilePolarity,Negative*
%FSLAX46Y46*%
G04 Gerber Fmt 4.6, Leading zero omitted, Abs format (unit mm)*
G04 Created by KiCad (PCBNEW 5.1.5-52549c5~84~ubuntu18.04.1) date 2020-01-22 16:22:53*
%MOMM*%
%LPD*%
G04 APERTURE LIST*
%ADD10C,0.100000*%
G04 APERTURE END LIST*
D10*
G36*
X155287142Y-101003242D02*
G01*
X155435101Y-101064529D01*
X155568255Y-101153499D01*
X155681501Y-101266745D01*
X155770471Y-101399899D01*
X155831758Y-101547858D01*
X155863000Y-101704925D01*
X155863000Y-101865075D01*
X155831758Y-102022142D01*
X155770471Y-102170101D01*
X155681501Y-102303255D01*
X155568255Y-102416501D01*
X155435101Y-102505471D01*
X155287142Y-102566758D01*
X155130075Y-102598000D01*
X154969925Y-102598000D01*
X154812858Y-102566758D01*
X154664899Y-102505471D01*
X154531745Y-102416501D01*
X154418499Y-102303255D01*
X154329529Y-102170101D01*
X154268242Y-102022142D01*
X154237000Y-101865075D01*
X154237000Y-101704925D01*
X154268242Y-101547858D01*
X154329529Y-101399899D01*
X154418499Y-101266745D01*
X154531745Y-101153499D01*
X154664899Y-101064529D01*
X154812858Y-101003242D01*
X154969925Y-100972000D01*
X155130075Y-100972000D01*
X155287142Y-101003242D01*
G37*
G36*
X137287142Y-101003242D02*
G01*
X137435101Y-101064529D01*
X137568255Y-101153499D01*
X137681501Y-101266745D01*
X137770471Y-101399899D01*
X137831758Y-101547858D01*
X137863000Y-101704925D01*
X137863000Y-101865075D01*
X137831758Y-102022142D01*
X137770471Y-102170101D01*
X137681501Y-102303255D01*
X137568255Y-102416501D01*
X137435101Y-102505471D01*
X137287142Y-102566758D01*
X137130075Y-102598000D01*
X136969925Y-102598000D01*
X136812858Y-102566758D01*
X136664899Y-102505471D01*
X136531745Y-102416501D01*
X136418499Y-102303255D01*
X136329529Y-102170101D01*
X136268242Y-102022142D01*
X136237000Y-101865075D01*
X136237000Y-101704925D01*
X136268242Y-101547858D01*
X136329529Y-101399899D01*
X136418499Y-101266745D01*
X136531745Y-101153499D01*
X136664899Y-101064529D01*
X136812858Y-101003242D01*
X136969925Y-100972000D01*
X137130075Y-100972000D01*
X137287142Y-101003242D01*
G37*
G36*
X147287142Y-98603242D02*
G01*
X147435101Y-98664529D01*
X147568255Y-98753499D01*
X147681501Y-98866745D01*
X147770471Y-98999899D01*
X147831758Y-99147858D01*
X147863000Y-99304925D01*
X147863000Y-99465075D01*
X147831758Y-99622142D01*
X147770471Y-99770101D01*
X147681501Y-99903255D01*
X147568255Y-100016501D01*
X147435101Y-100105471D01*
X147287142Y-100166758D01*
X147130075Y-100198000D01*
X146969925Y-100198000D01*
X146812858Y-100166758D01*
X146664899Y-100105471D01*
X146531745Y-100016501D01*
X146418499Y-99903255D01*
X146329529Y-99770101D01*
X146268242Y-99622142D01*
X146237000Y-99465075D01*
X146237000Y-99304925D01*
X146268242Y-99147858D01*
X146329529Y-98999899D01*
X146418499Y-98866745D01*
X146531745Y-98753499D01*
X146664899Y-98664529D01*
X146812858Y-98603242D01*
X146969925Y-98572000D01*
X147130075Y-98572000D01*
X147287142Y-98603242D01*
G37*
G36*
X153287142Y-98603242D02*
G01*
X153435101Y-98664529D01*
X153568255Y-98753499D01*
X153681501Y-98866745D01*
X153770471Y-98999899D01*
X153831758Y-99147858D01*
X153863000Y-99304925D01*
X153863000Y-99465075D01*
X153831758Y-99622142D01*
X153770471Y-99770101D01*
X153681501Y-99903255D01*
X153568255Y-100016501D01*
X153435101Y-100105471D01*
X153287142Y-100166758D01*
X153130075Y-100198000D01*
X152969925Y-100198000D01*
X152812858Y-100166758D01*
X152664899Y-100105471D01*
X152531745Y-100016501D01*
X152418499Y-99903255D01*
X152329529Y-99770101D01*
X152268242Y-99622142D01*
X152237000Y-99465075D01*
X152237000Y-99304925D01*
X152268242Y-99147858D01*
X152329529Y-98999899D01*
X152418499Y-98866745D01*
X152531745Y-98753499D01*
X152664899Y-98664529D01*
X152812858Y-98603242D01*
X152969925Y-98572000D01*
X153130075Y-98572000D01*
X153287142Y-98603242D01*
G37*
G36*
X139287142Y-98603242D02*
G01*
X139435101Y-98664529D01*
X139568255Y-98753499D01*
X139681501Y-98866745D01*
X139770471Y-98999899D01*
X139831758Y-99147858D01*
X139863000Y-99304925D01*
X139863000Y-99465075D01*
X139831758Y-99622142D01*
X139770471Y-99770101D01*
X139681501Y-99903255D01*
X139568255Y-100016501D01*
X139435101Y-100105471D01*
X139287142Y-100166758D01*
X139130075Y-100198000D01*
X138969925Y-100198000D01*
X138812858Y-100166758D01*
X138664899Y-100105471D01*
X138531745Y-100016501D01*
X138418499Y-99903255D01*
X138329529Y-99770101D01*
X138268242Y-99622142D01*
X138237000Y-99465075D01*
X138237000Y-99304925D01*
X138268242Y-99147858D01*
X138329529Y-98999899D01*
X138418499Y-98866745D01*
X138531745Y-98753499D01*
X138664899Y-98664529D01*
X138812858Y-98603242D01*
X138969925Y-98572000D01*
X139130075Y-98572000D01*
X139287142Y-98603242D01*
G37*
G36*
X151287142Y-98603242D02*
G01*
X151435101Y-98664529D01*
X151568255Y-98753499D01*
X151681501Y-98866745D01*
X151770471Y-98999899D01*
X151831758Y-99147858D01*
X151863000Y-99304925D01*
X151863000Y-99465075D01*
X151831758Y-99622142D01*
X151770471Y-99770101D01*
X151681501Y-99903255D01*
X151568255Y-100016501D01*
X151435101Y-100105471D01*
X151287142Y-100166758D01*
X151130075Y-100198000D01*
X150969925Y-100198000D01*
X150812858Y-100166758D01*
X150664899Y-100105471D01*
X150531745Y-100016501D01*
X150418499Y-99903255D01*
X150329529Y-99770101D01*
X150268242Y-99622142D01*
X150237000Y-99465075D01*
X150237000Y-99304925D01*
X150268242Y-99147858D01*
X150329529Y-98999899D01*
X150418499Y-98866745D01*
X150531745Y-98753499D01*
X150664899Y-98664529D01*
X150812858Y-98603242D01*
X150969925Y-98572000D01*
X151130075Y-98572000D01*
X151287142Y-98603242D01*
G37*
G36*
X141287142Y-98603242D02*
G01*
X141435101Y-98664529D01*
X141568255Y-98753499D01*
X141681501Y-98866745D01*
X141770471Y-98999899D01*
X141831758Y-99147858D01*
X141863000Y-99304925D01*
X141863000Y-99465075D01*
X141831758Y-99622142D01*
X141770471Y-99770101D01*
X141681501Y-99903255D01*
X141568255Y-100016501D01*
X141435101Y-100105471D01*
X141287142Y-100166758D01*
X141130075Y-100198000D01*
X140969925Y-100198000D01*
X140812858Y-100166758D01*
X140664899Y-100105471D01*
X140531745Y-100016501D01*
X140418499Y-99903255D01*
X140329529Y-99770101D01*
X140268242Y-99622142D01*
X140237000Y-99465075D01*
X140237000Y-99304925D01*
X140268242Y-99147858D01*
X140329529Y-98999899D01*
X140418499Y-98866745D01*
X140531745Y-98753499D01*
X140664899Y-98664529D01*
X140812858Y-98603242D01*
X140969925Y-98572000D01*
X141130075Y-98572000D01*
X141287142Y-98603242D01*
G37*
G36*
X149287142Y-98603242D02*
G01*
X149435101Y-98664529D01*
X149568255Y-98753499D01*
X149681501Y-98866745D01*
X149770471Y-98999899D01*
X149831758Y-99147858D01*
X149863000Y-99304925D01*
X149863000Y-99465075D01*
X149831758Y-99622142D01*
X149770471Y-99770101D01*
X149681501Y-99903255D01*
X149568255Y-100016501D01*
X149435101Y-100105471D01*
X149287142Y-100166758D01*
X149130075Y-100198000D01*
X148969925Y-100198000D01*
X148812858Y-100166758D01*
X148664899Y-100105471D01*
X148531745Y-100016501D01*
X148418499Y-99903255D01*
X148329529Y-99770101D01*
X148268242Y-99622142D01*
X148237000Y-99465075D01*
X148237000Y-99304925D01*
X148268242Y-99147858D01*
X148329529Y-98999899D01*
X148418499Y-98866745D01*
X148531745Y-98753499D01*
X148664899Y-98664529D01*
X148812858Y-98603242D01*
X148969925Y-98572000D01*
X149130075Y-98572000D01*
X149287142Y-98603242D01*
G37*
G36*
X143287142Y-98603242D02*
G01*
X143435101Y-98664529D01*
X143568255Y-98753499D01*
X143681501Y-98866745D01*
X143770471Y-98999899D01*
X143831758Y-99147858D01*
X143863000Y-99304925D01*
X143863000Y-99465075D01*
X143831758Y-99622142D01*
X143770471Y-99770101D01*
X143681501Y-99903255D01*
X143568255Y-100016501D01*
X143435101Y-100105471D01*
X143287142Y-100166758D01*
X143130075Y-100198000D01*
X142969925Y-100198000D01*
X142812858Y-100166758D01*
X142664899Y-100105471D01*
X142531745Y-100016501D01*
X142418499Y-99903255D01*
X142329529Y-99770101D01*
X142268242Y-99622142D01*
X142237000Y-99465075D01*
X142237000Y-99304925D01*
X142268242Y-99147858D01*
X142329529Y-98999899D01*
X142418499Y-98866745D01*
X142531745Y-98753499D01*
X142664899Y-98664529D01*
X142812858Y-98603242D01*
X142969925Y-98572000D01*
X143130075Y-98572000D01*
X143287142Y-98603242D01*
G37*
G36*
X145287142Y-98603242D02*
G01*
X145435101Y-98664529D01*
X145568255Y-98753499D01*
X145681501Y-98866745D01*
X145770471Y-98999899D01*
X145831758Y-99147858D01*
X145863000Y-99304925D01*
X145863000Y-99465075D01*
X145831758Y-99622142D01*
X145770471Y-99770101D01*
X145681501Y-99903255D01*
X145568255Y-100016501D01*
X145435101Y-100105471D01*
X145287142Y-100166758D01*
X145130075Y-100198000D01*
X144969925Y-100198000D01*
X144812858Y-100166758D01*
X144664899Y-100105471D01*
X144531745Y-100016501D01*
X144418499Y-99903255D01*
X144329529Y-99770101D01*
X144268242Y-99622142D01*
X144237000Y-99465075D01*
X144237000Y-99304925D01*
X144268242Y-99147858D01*
X144329529Y-98999899D01*
X144418499Y-98866745D01*
X144531745Y-98753499D01*
X144664899Y-98664529D01*
X144812858Y-98603242D01*
X144969925Y-98572000D01*
X145130075Y-98572000D01*
X145287142Y-98603242D01*
G37*
G36*
X145084000Y-96941000D02*
G01*
X144344000Y-96941000D01*
X144344000Y-95751000D01*
X145084000Y-95751000D01*
X145084000Y-96941000D01*
G37*
G36*
X143184000Y-96941000D02*
G01*
X142444000Y-96941000D01*
X142444000Y-95751000D01*
X143184000Y-95751000D01*
X143184000Y-96941000D01*
G37*
G36*
X139201000Y-96651000D02*
G01*
X138199000Y-96651000D01*
X138199000Y-95749000D01*
X139201000Y-95749000D01*
X139201000Y-96651000D01*
G37*
G36*
X141201000Y-95701000D02*
G01*
X140199000Y-95701000D01*
X140199000Y-94799000D01*
X141201000Y-94799000D01*
X141201000Y-95701000D01*
G37*
G36*
X139201000Y-94751000D02*
G01*
X138199000Y-94751000D01*
X138199000Y-93849000D01*
X139201000Y-93849000D01*
X139201000Y-94751000D01*
G37*
G36*
X145084000Y-94241000D02*
G01*
X142444000Y-94241000D01*
X142444000Y-93051000D01*
X145084000Y-93051000D01*
X145084000Y-94241000D01*
G37*
G36*
X154811591Y-93267085D02*
G01*
X154845569Y-93277393D01*
X154876890Y-93294134D01*
X154904339Y-93316661D01*
X154926866Y-93344110D01*
X154943607Y-93375431D01*
X154953915Y-93409409D01*
X154958000Y-93450890D01*
X154958000Y-94052110D01*
X154953915Y-94093591D01*
X154943607Y-94127569D01*
X154926866Y-94158890D01*
X154904339Y-94186339D01*
X154876890Y-94208866D01*
X154845569Y-94225607D01*
X154811591Y-94235915D01*
X154770110Y-94240000D01*
X154093890Y-94240000D01*
X154052409Y-94235915D01*
X154018431Y-94225607D01*
X153987110Y-94208866D01*
X153959661Y-94186339D01*
X153937134Y-94158890D01*
X153920393Y-94127569D01*
X153910085Y-94093591D01*
X153906000Y-94052110D01*
X153906000Y-93450890D01*
X153910085Y-93409409D01*
X153920393Y-93375431D01*
X153937134Y-93344110D01*
X153959661Y-93316661D01*
X153987110Y-93294134D01*
X154018431Y-93277393D01*
X154052409Y-93267085D01*
X154093890Y-93263000D01*
X154770110Y-93263000D01*
X154811591Y-93267085D01*
G37*
G36*
X147905051Y-91182284D02*
G01*
X147921443Y-91187257D01*
X147936555Y-91195334D01*
X147949798Y-91206202D01*
X147960666Y-91219445D01*
X147968743Y-91234557D01*
X147973716Y-91250949D01*
X147976000Y-91274141D01*
X147976000Y-91687859D01*
X147973716Y-91711051D01*
X147968742Y-91727446D01*
X147958249Y-91747078D01*
X147948872Y-91769717D01*
X147944092Y-91793750D01*
X147944092Y-91818254D01*
X147948873Y-91842287D01*
X147958249Y-91864922D01*
X147968742Y-91884554D01*
X147973716Y-91900949D01*
X147976000Y-91924141D01*
X147976000Y-92337859D01*
X147973716Y-92361051D01*
X147968742Y-92377446D01*
X147958249Y-92397078D01*
X147948872Y-92419717D01*
X147944092Y-92443750D01*
X147944092Y-92468254D01*
X147948873Y-92492287D01*
X147958249Y-92514922D01*
X147968742Y-92534554D01*
X147973716Y-92550949D01*
X147976000Y-92574141D01*
X147976000Y-92987859D01*
X147973716Y-93011051D01*
X147968742Y-93027446D01*
X147958249Y-93047078D01*
X147948872Y-93069717D01*
X147944092Y-93093750D01*
X147944092Y-93118254D01*
X147948873Y-93142287D01*
X147958249Y-93164922D01*
X147968742Y-93184554D01*
X147973716Y-93200949D01*
X147976000Y-93224141D01*
X147976000Y-93637859D01*
X147973716Y-93661051D01*
X147968743Y-93677443D01*
X147960666Y-93692555D01*
X147949798Y-93705798D01*
X147936555Y-93716666D01*
X147921443Y-93724743D01*
X147905051Y-93729716D01*
X147881859Y-93732000D01*
X146343141Y-93732000D01*
X146319949Y-93729716D01*
X146303557Y-93724743D01*
X146288445Y-93716666D01*
X146275202Y-93705798D01*
X146264334Y-93692555D01*
X146256257Y-93677443D01*
X146251284Y-93661051D01*
X146249000Y-93637859D01*
X146249000Y-93224141D01*
X146251284Y-93200949D01*
X146256258Y-93184554D01*
X146266751Y-93164922D01*
X146276128Y-93142283D01*
X146280908Y-93118250D01*
X146280908Y-93093746D01*
X146276127Y-93069713D01*
X146266751Y-93047078D01*
X146256258Y-93027446D01*
X146251284Y-93011051D01*
X146249000Y-92987859D01*
X146249000Y-92574141D01*
X146251284Y-92550949D01*
X146256258Y-92534554D01*
X146266751Y-92514922D01*
X146276128Y-92492283D01*
X146280908Y-92468250D01*
X146280908Y-92443746D01*
X146276127Y-92419713D01*
X146266751Y-92397078D01*
X146256258Y-92377446D01*
X146251284Y-92361051D01*
X146249000Y-92337859D01*
X146249000Y-91924141D01*
X146251284Y-91900949D01*
X146256258Y-91884554D01*
X146266751Y-91864922D01*
X146276128Y-91842283D01*
X146280908Y-91818250D01*
X146280908Y-91793746D01*
X146276127Y-91769713D01*
X146266751Y-91747078D01*
X146256258Y-91727446D01*
X146251284Y-91711051D01*
X146249000Y-91687859D01*
X146249000Y-91274141D01*
X146251284Y-91250949D01*
X146256257Y-91234557D01*
X146264334Y-91219445D01*
X146275202Y-91206202D01*
X146288445Y-91195334D01*
X146303557Y-91187257D01*
X146319949Y-91182284D01*
X146343141Y-91180000D01*
X147881859Y-91180000D01*
X147905051Y-91182284D01*
G37*
G36*
X152130051Y-91182284D02*
G01*
X152146443Y-91187257D01*
X152161555Y-91195334D01*
X152174798Y-91206202D01*
X152185666Y-91219445D01*
X152193743Y-91234557D01*
X152198716Y-91250949D01*
X152201000Y-91274141D01*
X152201000Y-91687859D01*
X152198716Y-91711051D01*
X152193742Y-91727446D01*
X152183249Y-91747078D01*
X152173872Y-91769717D01*
X152169092Y-91793750D01*
X152169092Y-91818254D01*
X152173873Y-91842287D01*
X152183249Y-91864922D01*
X152193742Y-91884554D01*
X152198716Y-91900949D01*
X152201000Y-91924141D01*
X152201000Y-92337859D01*
X152198716Y-92361051D01*
X152193742Y-92377446D01*
X152183249Y-92397078D01*
X152173872Y-92419717D01*
X152169092Y-92443750D01*
X152169092Y-92468254D01*
X152173873Y-92492287D01*
X152183249Y-92514922D01*
X152193742Y-92534554D01*
X152198716Y-92550949D01*
X152201000Y-92574141D01*
X152201000Y-92987859D01*
X152198716Y-93011051D01*
X152193742Y-93027446D01*
X152183249Y-93047078D01*
X152173872Y-93069717D01*
X152169092Y-93093750D01*
X152169092Y-93118254D01*
X152173873Y-93142287D01*
X152183249Y-93164922D01*
X152193742Y-93184554D01*
X152198716Y-93200949D01*
X152201000Y-93224141D01*
X152201000Y-93637859D01*
X152198716Y-93661051D01*
X152193743Y-93677443D01*
X152185666Y-93692555D01*
X152174798Y-93705798D01*
X152161555Y-93716666D01*
X152146443Y-93724743D01*
X152130051Y-93729716D01*
X152106859Y-93732000D01*
X150568141Y-93732000D01*
X150544949Y-93729716D01*
X150528557Y-93724743D01*
X150513445Y-93716666D01*
X150500202Y-93705798D01*
X150489334Y-93692555D01*
X150481257Y-93677443D01*
X150476284Y-93661051D01*
X150474000Y-93637859D01*
X150474000Y-93224141D01*
X150476284Y-93200949D01*
X150481258Y-93184554D01*
X150491751Y-93164922D01*
X150501128Y-93142283D01*
X150505908Y-93118250D01*
X150505908Y-93093746D01*
X150501127Y-93069713D01*
X150491751Y-93047078D01*
X150481258Y-93027446D01*
X150476284Y-93011051D01*
X150474000Y-92987859D01*
X150474000Y-92574141D01*
X150476284Y-92550949D01*
X150481258Y-92534554D01*
X150491751Y-92514922D01*
X150501128Y-92492283D01*
X150505908Y-92468250D01*
X150505908Y-92443746D01*
X150501127Y-92419713D01*
X150491751Y-92397078D01*
X150481258Y-92377446D01*
X150476284Y-92361051D01*
X150474000Y-92337859D01*
X150474000Y-91924141D01*
X150476284Y-91900949D01*
X150481258Y-91884554D01*
X150491751Y-91864922D01*
X150501128Y-91842283D01*
X150505908Y-91818250D01*
X150505908Y-91793746D01*
X150501127Y-91769713D01*
X150491751Y-91747078D01*
X150481258Y-91727446D01*
X150476284Y-91711051D01*
X150474000Y-91687859D01*
X150474000Y-91274141D01*
X150476284Y-91250949D01*
X150481257Y-91234557D01*
X150489334Y-91219445D01*
X150500202Y-91206202D01*
X150513445Y-91195334D01*
X150528557Y-91187257D01*
X150544949Y-91182284D01*
X150568141Y-91180000D01*
X152106859Y-91180000D01*
X152130051Y-91182284D01*
G37*
G36*
X154811591Y-91692085D02*
G01*
X154845569Y-91702393D01*
X154876890Y-91719134D01*
X154904339Y-91741661D01*
X154926866Y-91769110D01*
X154943607Y-91800431D01*
X154953915Y-91834409D01*
X154958000Y-91875890D01*
X154958000Y-92477110D01*
X154953915Y-92518591D01*
X154943607Y-92552569D01*
X154926866Y-92583890D01*
X154904339Y-92611339D01*
X154876890Y-92633866D01*
X154845569Y-92650607D01*
X154811591Y-92660915D01*
X154770110Y-92665000D01*
X154093890Y-92665000D01*
X154052409Y-92660915D01*
X154018431Y-92650607D01*
X153987110Y-92633866D01*
X153959661Y-92611339D01*
X153937134Y-92583890D01*
X153920393Y-92552569D01*
X153910085Y-92518591D01*
X153906000Y-92477110D01*
X153906000Y-91875890D01*
X153910085Y-91834409D01*
X153920393Y-91800431D01*
X153937134Y-91769110D01*
X153959661Y-91741661D01*
X153987110Y-91719134D01*
X154018431Y-91702393D01*
X154052409Y-91692085D01*
X154093890Y-91688000D01*
X154770110Y-91688000D01*
X154811591Y-91692085D01*
G37*
G36*
X144397591Y-89711085D02*
G01*
X144431569Y-89721393D01*
X144462890Y-89738134D01*
X144490339Y-89760661D01*
X144512866Y-89788110D01*
X144529607Y-89819431D01*
X144539915Y-89853409D01*
X144544000Y-89894890D01*
X144544000Y-90496110D01*
X144539915Y-90537591D01*
X144529607Y-90571569D01*
X144512866Y-90602890D01*
X144490339Y-90630339D01*
X144462890Y-90652866D01*
X144431569Y-90669607D01*
X144397591Y-90679915D01*
X144356110Y-90684000D01*
X143679890Y-90684000D01*
X143638409Y-90679915D01*
X143604431Y-90669607D01*
X143573110Y-90652866D01*
X143545661Y-90630339D01*
X143523134Y-90602890D01*
X143506393Y-90571569D01*
X143496085Y-90537591D01*
X143492000Y-90496110D01*
X143492000Y-89894890D01*
X143496085Y-89853409D01*
X143506393Y-89819431D01*
X143523134Y-89788110D01*
X143545661Y-89760661D01*
X143573110Y-89738134D01*
X143604431Y-89721393D01*
X143638409Y-89711085D01*
X143679890Y-89707000D01*
X144356110Y-89707000D01*
X144397591Y-89711085D01*
G37*
G36*
X153021591Y-89140085D02*
G01*
X153055569Y-89150393D01*
X153086890Y-89167134D01*
X153114339Y-89189661D01*
X153136866Y-89217110D01*
X153153607Y-89248431D01*
X153163915Y-89282409D01*
X153168000Y-89323890D01*
X153168000Y-90000110D01*
X153163915Y-90041591D01*
X153153607Y-90075569D01*
X153136866Y-90106890D01*
X153114339Y-90134339D01*
X153086890Y-90156866D01*
X153055569Y-90173607D01*
X153021591Y-90183915D01*
X152980110Y-90188000D01*
X152378890Y-90188000D01*
X152337409Y-90183915D01*
X152303431Y-90173607D01*
X152272110Y-90156866D01*
X152244661Y-90134339D01*
X152222134Y-90106890D01*
X152205393Y-90075569D01*
X152195085Y-90041591D01*
X152191000Y-90000110D01*
X152191000Y-89323890D01*
X152195085Y-89282409D01*
X152205393Y-89248431D01*
X152222134Y-89217110D01*
X152244661Y-89189661D01*
X152272110Y-89167134D01*
X152303431Y-89150393D01*
X152337409Y-89140085D01*
X152378890Y-89136000D01*
X152980110Y-89136000D01*
X153021591Y-89140085D01*
G37*
G36*
X146112591Y-89140085D02*
G01*
X146146569Y-89150393D01*
X146177890Y-89167134D01*
X146205339Y-89189661D01*
X146227866Y-89217110D01*
X146244607Y-89248431D01*
X146254915Y-89282409D01*
X146259000Y-89323890D01*
X146259000Y-90000110D01*
X146254915Y-90041591D01*
X146244607Y-90075569D01*
X146227866Y-90106890D01*
X146205339Y-90134339D01*
X146177890Y-90156866D01*
X146146569Y-90173607D01*
X146112591Y-90183915D01*
X146071110Y-90188000D01*
X145469890Y-90188000D01*
X145428409Y-90183915D01*
X145394431Y-90173607D01*
X145363110Y-90156866D01*
X145335661Y-90134339D01*
X145313134Y-90106890D01*
X145296393Y-90075569D01*
X145286085Y-90041591D01*
X145282000Y-90000110D01*
X145282000Y-89323890D01*
X145286085Y-89282409D01*
X145296393Y-89248431D01*
X145313134Y-89217110D01*
X145335661Y-89189661D01*
X145363110Y-89167134D01*
X145394431Y-89150393D01*
X145428409Y-89140085D01*
X145469890Y-89136000D01*
X146071110Y-89136000D01*
X146112591Y-89140085D01*
G37*
G36*
X151446591Y-89140085D02*
G01*
X151480569Y-89150393D01*
X151511890Y-89167134D01*
X151539339Y-89189661D01*
X151561866Y-89217110D01*
X151578607Y-89248431D01*
X151588915Y-89282409D01*
X151593000Y-89323890D01*
X151593000Y-90000110D01*
X151588915Y-90041591D01*
X151578607Y-90075569D01*
X151561866Y-90106890D01*
X151539339Y-90134339D01*
X151511890Y-90156866D01*
X151480569Y-90173607D01*
X151446591Y-90183915D01*
X151405110Y-90188000D01*
X150803890Y-90188000D01*
X150762409Y-90183915D01*
X150728431Y-90173607D01*
X150697110Y-90156866D01*
X150669661Y-90134339D01*
X150647134Y-90106890D01*
X150630393Y-90075569D01*
X150620085Y-90041591D01*
X150616000Y-90000110D01*
X150616000Y-89323890D01*
X150620085Y-89282409D01*
X150630393Y-89248431D01*
X150647134Y-89217110D01*
X150669661Y-89189661D01*
X150697110Y-89167134D01*
X150728431Y-89150393D01*
X150762409Y-89140085D01*
X150803890Y-89136000D01*
X151405110Y-89136000D01*
X151446591Y-89140085D01*
G37*
G36*
X147687591Y-89140085D02*
G01*
X147721569Y-89150393D01*
X147752890Y-89167134D01*
X147780339Y-89189661D01*
X147802866Y-89217110D01*
X147819607Y-89248431D01*
X147829915Y-89282409D01*
X147834000Y-89323890D01*
X147834000Y-90000110D01*
X147829915Y-90041591D01*
X147819607Y-90075569D01*
X147802866Y-90106890D01*
X147780339Y-90134339D01*
X147752890Y-90156866D01*
X147721569Y-90173607D01*
X147687591Y-90183915D01*
X147646110Y-90188000D01*
X147044890Y-90188000D01*
X147003409Y-90183915D01*
X146969431Y-90173607D01*
X146938110Y-90156866D01*
X146910661Y-90134339D01*
X146888134Y-90106890D01*
X146871393Y-90075569D01*
X146861085Y-90041591D01*
X146857000Y-90000110D01*
X146857000Y-89323890D01*
X146861085Y-89282409D01*
X146871393Y-89248431D01*
X146888134Y-89217110D01*
X146910661Y-89189661D01*
X146938110Y-89167134D01*
X146969431Y-89150393D01*
X147003409Y-89140085D01*
X147044890Y-89136000D01*
X147646110Y-89136000D01*
X147687591Y-89140085D01*
G37*
G36*
X139302142Y-88245242D02*
G01*
X139450101Y-88306529D01*
X139583255Y-88395499D01*
X139696501Y-88508745D01*
X139785471Y-88641899D01*
X139846758Y-88789858D01*
X139878000Y-88946925D01*
X139878000Y-89107075D01*
X139846758Y-89264142D01*
X139785471Y-89412101D01*
X139696501Y-89545255D01*
X139583255Y-89658501D01*
X139450101Y-89747471D01*
X139302142Y-89808758D01*
X139145075Y-89840000D01*
X138984925Y-89840000D01*
X138827858Y-89808758D01*
X138679899Y-89747471D01*
X138546745Y-89658501D01*
X138433499Y-89545255D01*
X138344529Y-89412101D01*
X138283242Y-89264142D01*
X138252000Y-89107075D01*
X138252000Y-88946925D01*
X138283242Y-88789858D01*
X138344529Y-88641899D01*
X138433499Y-88508745D01*
X138546745Y-88395499D01*
X138679899Y-88306529D01*
X138827858Y-88245242D01*
X138984925Y-88214000D01*
X139145075Y-88214000D01*
X139302142Y-88245242D01*
G37*
G36*
X144397591Y-88136085D02*
G01*
X144431569Y-88146393D01*
X144462890Y-88163134D01*
X144490339Y-88185661D01*
X144512866Y-88213110D01*
X144529607Y-88244431D01*
X144539915Y-88278409D01*
X144544000Y-88319890D01*
X144544000Y-88921110D01*
X144539915Y-88962591D01*
X144529607Y-88996569D01*
X144512866Y-89027890D01*
X144490339Y-89055339D01*
X144462890Y-89077866D01*
X144431569Y-89094607D01*
X144397591Y-89104915D01*
X144356110Y-89109000D01*
X143679890Y-89109000D01*
X143638409Y-89104915D01*
X143604431Y-89094607D01*
X143573110Y-89077866D01*
X143545661Y-89055339D01*
X143523134Y-89027890D01*
X143506393Y-88996569D01*
X143496085Y-88962591D01*
X143492000Y-88921110D01*
X143492000Y-88319890D01*
X143496085Y-88278409D01*
X143506393Y-88244431D01*
X143523134Y-88213110D01*
X143545661Y-88185661D01*
X143573110Y-88163134D01*
X143604431Y-88146393D01*
X143638409Y-88136085D01*
X143679890Y-88132000D01*
X144356110Y-88132000D01*
X144397591Y-88136085D01*
G37*
G36*
X150354591Y-87616085D02*
G01*
X150388569Y-87626393D01*
X150419890Y-87643134D01*
X150447339Y-87665661D01*
X150469866Y-87693110D01*
X150486607Y-87724431D01*
X150496915Y-87758409D01*
X150501000Y-87799890D01*
X150501000Y-88476110D01*
X150496915Y-88517591D01*
X150486607Y-88551569D01*
X150469866Y-88582890D01*
X150447339Y-88610339D01*
X150419890Y-88632866D01*
X150388569Y-88649607D01*
X150354591Y-88659915D01*
X150313110Y-88664000D01*
X149711890Y-88664000D01*
X149670409Y-88659915D01*
X149636431Y-88649607D01*
X149605110Y-88632866D01*
X149577661Y-88610339D01*
X149555134Y-88582890D01*
X149538393Y-88551569D01*
X149528085Y-88517591D01*
X149524000Y-88476110D01*
X149524000Y-87799890D01*
X149528085Y-87758409D01*
X149538393Y-87724431D01*
X149555134Y-87693110D01*
X149577661Y-87665661D01*
X149605110Y-87643134D01*
X149636431Y-87626393D01*
X149670409Y-87616085D01*
X149711890Y-87612000D01*
X150313110Y-87612000D01*
X150354591Y-87616085D01*
G37*
G36*
X148779591Y-87616085D02*
G01*
X148813569Y-87626393D01*
X148844890Y-87643134D01*
X148872339Y-87665661D01*
X148894866Y-87693110D01*
X148911607Y-87724431D01*
X148921915Y-87758409D01*
X148926000Y-87799890D01*
X148926000Y-88476110D01*
X148921915Y-88517591D01*
X148911607Y-88551569D01*
X148894866Y-88582890D01*
X148872339Y-88610339D01*
X148844890Y-88632866D01*
X148813569Y-88649607D01*
X148779591Y-88659915D01*
X148738110Y-88664000D01*
X148136890Y-88664000D01*
X148095409Y-88659915D01*
X148061431Y-88649607D01*
X148030110Y-88632866D01*
X148002661Y-88610339D01*
X147980134Y-88582890D01*
X147963393Y-88551569D01*
X147953085Y-88517591D01*
X147949000Y-88476110D01*
X147949000Y-87799890D01*
X147953085Y-87758409D01*
X147963393Y-87724431D01*
X147980134Y-87693110D01*
X148002661Y-87665661D01*
X148030110Y-87643134D01*
X148061431Y-87626393D01*
X148095409Y-87616085D01*
X148136890Y-87612000D01*
X148738110Y-87612000D01*
X148779591Y-87616085D01*
G37*
G36*
X150874591Y-86028085D02*
G01*
X150908569Y-86038393D01*
X150939890Y-86055134D01*
X150967339Y-86077661D01*
X150989866Y-86105110D01*
X151006607Y-86136431D01*
X151016915Y-86170409D01*
X151021000Y-86211890D01*
X151021000Y-86813110D01*
X151016915Y-86854591D01*
X151006607Y-86888569D01*
X150989866Y-86919890D01*
X150967339Y-86947339D01*
X150939890Y-86969866D01*
X150908569Y-86986607D01*
X150874591Y-86996915D01*
X150833110Y-87001000D01*
X150156890Y-87001000D01*
X150115409Y-86996915D01*
X150081431Y-86986607D01*
X150050110Y-86969866D01*
X150022661Y-86947339D01*
X150000134Y-86919890D01*
X149983393Y-86888569D01*
X149973085Y-86854591D01*
X149969000Y-86813110D01*
X149969000Y-86211890D01*
X149973085Y-86170409D01*
X149983393Y-86136431D01*
X150000134Y-86105110D01*
X150022661Y-86077661D01*
X150050110Y-86055134D01*
X150081431Y-86038393D01*
X150115409Y-86028085D01*
X150156890Y-86024000D01*
X150833110Y-86024000D01*
X150874591Y-86028085D01*
G37*
G36*
X148334591Y-86028085D02*
G01*
X148368569Y-86038393D01*
X148399890Y-86055134D01*
X148427339Y-86077661D01*
X148449866Y-86105110D01*
X148466607Y-86136431D01*
X148476915Y-86170409D01*
X148481000Y-86211890D01*
X148481000Y-86813110D01*
X148476915Y-86854591D01*
X148466607Y-86888569D01*
X148449866Y-86919890D01*
X148427339Y-86947339D01*
X148399890Y-86969866D01*
X148368569Y-86986607D01*
X148334591Y-86996915D01*
X148293110Y-87001000D01*
X147616890Y-87001000D01*
X147575409Y-86996915D01*
X147541431Y-86986607D01*
X147510110Y-86969866D01*
X147482661Y-86947339D01*
X147460134Y-86919890D01*
X147443393Y-86888569D01*
X147433085Y-86854591D01*
X147429000Y-86813110D01*
X147429000Y-86211890D01*
X147433085Y-86170409D01*
X147443393Y-86136431D01*
X147460134Y-86105110D01*
X147482661Y-86077661D01*
X147510110Y-86055134D01*
X147541431Y-86038393D01*
X147575409Y-86028085D01*
X147616890Y-86024000D01*
X148293110Y-86024000D01*
X148334591Y-86028085D01*
G37*
G36*
X153414591Y-86028085D02*
G01*
X153448569Y-86038393D01*
X153479890Y-86055134D01*
X153507339Y-86077661D01*
X153529866Y-86105110D01*
X153546607Y-86136431D01*
X153556915Y-86170409D01*
X153561000Y-86211890D01*
X153561000Y-86813110D01*
X153556915Y-86854591D01*
X153546607Y-86888569D01*
X153529866Y-86919890D01*
X153507339Y-86947339D01*
X153479890Y-86969866D01*
X153448569Y-86986607D01*
X153414591Y-86996915D01*
X153373110Y-87001000D01*
X152696890Y-87001000D01*
X152655409Y-86996915D01*
X152621431Y-86986607D01*
X152590110Y-86969866D01*
X152562661Y-86947339D01*
X152540134Y-86919890D01*
X152523393Y-86888569D01*
X152513085Y-86854591D01*
X152509000Y-86813110D01*
X152509000Y-86211890D01*
X152513085Y-86170409D01*
X152523393Y-86136431D01*
X152540134Y-86105110D01*
X152562661Y-86077661D01*
X152590110Y-86055134D01*
X152621431Y-86038393D01*
X152655409Y-86028085D01*
X152696890Y-86024000D01*
X153373110Y-86024000D01*
X153414591Y-86028085D01*
G37*
G36*
X144397591Y-85647085D02*
G01*
X144431569Y-85657393D01*
X144462890Y-85674134D01*
X144490339Y-85696661D01*
X144512866Y-85724110D01*
X144529607Y-85755431D01*
X144539915Y-85789409D01*
X144544000Y-85830890D01*
X144544000Y-86432110D01*
X144539915Y-86473591D01*
X144529607Y-86507569D01*
X144512866Y-86538890D01*
X144490339Y-86566339D01*
X144462890Y-86588866D01*
X144431569Y-86605607D01*
X144397591Y-86615915D01*
X144356110Y-86620000D01*
X143679890Y-86620000D01*
X143638409Y-86615915D01*
X143604431Y-86605607D01*
X143573110Y-86588866D01*
X143545661Y-86566339D01*
X143523134Y-86538890D01*
X143506393Y-86507569D01*
X143496085Y-86473591D01*
X143492000Y-86432110D01*
X143492000Y-85830890D01*
X143496085Y-85789409D01*
X143506393Y-85755431D01*
X143523134Y-85724110D01*
X143545661Y-85696661D01*
X143573110Y-85674134D01*
X143604431Y-85657393D01*
X143638409Y-85647085D01*
X143679890Y-85643000D01*
X144356110Y-85643000D01*
X144397591Y-85647085D01*
G37*
G36*
X148334591Y-84453085D02*
G01*
X148368569Y-84463393D01*
X148399890Y-84480134D01*
X148427339Y-84502661D01*
X148449866Y-84530110D01*
X148466607Y-84561431D01*
X148476915Y-84595409D01*
X148481000Y-84636890D01*
X148481000Y-85238110D01*
X148476915Y-85279591D01*
X148466607Y-85313569D01*
X148449866Y-85344890D01*
X148427339Y-85372339D01*
X148399890Y-85394866D01*
X148368569Y-85411607D01*
X148334591Y-85421915D01*
X148293110Y-85426000D01*
X147616890Y-85426000D01*
X147575409Y-85421915D01*
X147541431Y-85411607D01*
X147510110Y-85394866D01*
X147482661Y-85372339D01*
X147460134Y-85344890D01*
X147443393Y-85313569D01*
X147433085Y-85279591D01*
X147429000Y-85238110D01*
X147429000Y-84636890D01*
X147433085Y-84595409D01*
X147443393Y-84561431D01*
X147460134Y-84530110D01*
X147482661Y-84502661D01*
X147510110Y-84480134D01*
X147541431Y-84463393D01*
X147575409Y-84453085D01*
X147616890Y-84449000D01*
X148293110Y-84449000D01*
X148334591Y-84453085D01*
G37*
G36*
X153414591Y-84453085D02*
G01*
X153448569Y-84463393D01*
X153479890Y-84480134D01*
X153507339Y-84502661D01*
X153529866Y-84530110D01*
X153546607Y-84561431D01*
X153556915Y-84595409D01*
X153561000Y-84636890D01*
X153561000Y-85238110D01*
X153556915Y-85279591D01*
X153546607Y-85313569D01*
X153529866Y-85344890D01*
X153507339Y-85372339D01*
X153479890Y-85394866D01*
X153448569Y-85411607D01*
X153414591Y-85421915D01*
X153373110Y-85426000D01*
X152696890Y-85426000D01*
X152655409Y-85421915D01*
X152621431Y-85411607D01*
X152590110Y-85394866D01*
X152562661Y-85372339D01*
X152540134Y-85344890D01*
X152523393Y-85313569D01*
X152513085Y-85279591D01*
X152509000Y-85238110D01*
X152509000Y-84636890D01*
X152513085Y-84595409D01*
X152523393Y-84561431D01*
X152540134Y-84530110D01*
X152562661Y-84502661D01*
X152590110Y-84480134D01*
X152621431Y-84463393D01*
X152655409Y-84453085D01*
X152696890Y-84449000D01*
X153373110Y-84449000D01*
X153414591Y-84453085D01*
G37*
G36*
X150874591Y-84453085D02*
G01*
X150908569Y-84463393D01*
X150939890Y-84480134D01*
X150967339Y-84502661D01*
X150989866Y-84530110D01*
X151006607Y-84561431D01*
X151016915Y-84595409D01*
X151021000Y-84636890D01*
X151021000Y-85238110D01*
X151016915Y-85279591D01*
X151006607Y-85313569D01*
X150989866Y-85344890D01*
X150967339Y-85372339D01*
X150939890Y-85394866D01*
X150908569Y-85411607D01*
X150874591Y-85421915D01*
X150833110Y-85426000D01*
X150156890Y-85426000D01*
X150115409Y-85421915D01*
X150081431Y-85411607D01*
X150050110Y-85394866D01*
X150022661Y-85372339D01*
X150000134Y-85344890D01*
X149983393Y-85313569D01*
X149973085Y-85279591D01*
X149969000Y-85238110D01*
X149969000Y-84636890D01*
X149973085Y-84595409D01*
X149983393Y-84561431D01*
X150000134Y-84530110D01*
X150022661Y-84502661D01*
X150050110Y-84480134D01*
X150081431Y-84463393D01*
X150115409Y-84453085D01*
X150156890Y-84449000D01*
X150833110Y-84449000D01*
X150874591Y-84453085D01*
G37*
G36*
X144397591Y-84072085D02*
G01*
X144431569Y-84082393D01*
X144462890Y-84099134D01*
X144490339Y-84121661D01*
X144512866Y-84149110D01*
X144529607Y-84180431D01*
X144539915Y-84214409D01*
X144544000Y-84255890D01*
X144544000Y-84857110D01*
X144539915Y-84898591D01*
X144529607Y-84932569D01*
X144512866Y-84963890D01*
X144490339Y-84991339D01*
X144462890Y-85013866D01*
X144431569Y-85030607D01*
X144397591Y-85040915D01*
X144356110Y-85045000D01*
X143679890Y-85045000D01*
X143638409Y-85040915D01*
X143604431Y-85030607D01*
X143573110Y-85013866D01*
X143545661Y-84991339D01*
X143523134Y-84963890D01*
X143506393Y-84932569D01*
X143496085Y-84898591D01*
X143492000Y-84857110D01*
X143492000Y-84255890D01*
X143496085Y-84214409D01*
X143506393Y-84180431D01*
X143523134Y-84149110D01*
X143545661Y-84121661D01*
X143573110Y-84099134D01*
X143604431Y-84082393D01*
X143638409Y-84072085D01*
X143679890Y-84068000D01*
X144356110Y-84068000D01*
X144397591Y-84072085D01*
G37*
G36*
X148746000Y-83666000D02*
G01*
X147244000Y-83666000D01*
X147244000Y-80164000D01*
X148746000Y-80164000D01*
X148746000Y-83666000D01*
G37*
G36*
X151246000Y-83666000D02*
G01*
X149744000Y-83666000D01*
X149744000Y-80164000D01*
X151246000Y-80164000D01*
X151246000Y-83666000D01*
G37*
G36*
X141842142Y-80625242D02*
G01*
X141990101Y-80686529D01*
X142123255Y-80775499D01*
X142236501Y-80888745D01*
X142325471Y-81021899D01*
X142386758Y-81169858D01*
X142418000Y-81326925D01*
X142418000Y-81487075D01*
X142386758Y-81644142D01*
X142325471Y-81792101D01*
X142236501Y-81925255D01*
X142123255Y-82038501D01*
X141990101Y-82127471D01*
X141842142Y-82188758D01*
X141685075Y-82220000D01*
X141524925Y-82220000D01*
X141367858Y-82188758D01*
X141219899Y-82127471D01*
X141086745Y-82038501D01*
X140973499Y-81925255D01*
X140884529Y-81792101D01*
X140823242Y-81644142D01*
X140792000Y-81487075D01*
X140792000Y-81326925D01*
X140823242Y-81169858D01*
X140884529Y-81021899D01*
X140973499Y-80888745D01*
X141086745Y-80775499D01*
X141219899Y-80686529D01*
X141367858Y-80625242D01*
X141524925Y-80594000D01*
X141685075Y-80594000D01*
X141842142Y-80625242D01*
G37*
G36*
X154246000Y-78166000D02*
G01*
X151844000Y-78166000D01*
X151844000Y-72464000D01*
X154246000Y-72464000D01*
X154246000Y-78166000D01*
G37*
G36*
X146646000Y-78166000D02*
G01*
X144244000Y-78166000D01*
X144244000Y-72464000D01*
X146646000Y-72464000D01*
X146646000Y-78166000D01*
G37*
G36*
X139302142Y-75545242D02*
G01*
X139450101Y-75606529D01*
X139583255Y-75695499D01*
X139696501Y-75808745D01*
X139785471Y-75941899D01*
X139846758Y-76089858D01*
X139878000Y-76246925D01*
X139878000Y-76407075D01*
X139846758Y-76564142D01*
X139785471Y-76712101D01*
X139696501Y-76845255D01*
X139583255Y-76958501D01*
X139450101Y-77047471D01*
X139302142Y-77108758D01*
X139145075Y-77140000D01*
X138984925Y-77140000D01*
X138827858Y-77108758D01*
X138679899Y-77047471D01*
X138546745Y-76958501D01*
X138433499Y-76845255D01*
X138344529Y-76712101D01*
X138283242Y-76564142D01*
X138252000Y-76407075D01*
X138252000Y-76246925D01*
X138283242Y-76089858D01*
X138344529Y-75941899D01*
X138433499Y-75808745D01*
X138546745Y-75695499D01*
X138679899Y-75606529D01*
X138827858Y-75545242D01*
X138984925Y-75514000D01*
X139145075Y-75514000D01*
X139302142Y-75545242D01*
G37*
M02*
