G04 #@! TF.GenerationSoftware,KiCad,Pcbnew,5.1.5-52549c5~84~ubuntu18.04.1*
G04 #@! TF.CreationDate,2020-01-22T16:22:53-05:00*
G04 #@! TF.ProjectId,ATA,4154412e-6b69-4636-9164-5f7063625858,1.0*
G04 #@! TF.SameCoordinates,Original*
G04 #@! TF.FileFunction,Legend,Top*
G04 #@! TF.FilePolarity,Positive*
%FSLAX46Y46*%
G04 Gerber Fmt 4.6, Leading zero omitted, Abs format (unit mm)*
G04 Created by KiCad (PCBNEW 5.1.5-52549c5~84~ubuntu18.04.1) date 2020-01-22 16:22:53*
%MOMM*%
%LPD*%
G04 APERTURE LIST*
%ADD10C,0.120000*%
%ADD11C,0.100000*%
%ADD12C,0.150000*%
%ADD13R,1.002000X0.902000*%
%ADD14C,1.626000*%
%ADD15R,1.502000X3.502000*%
%ADD16R,2.402000X5.702000*%
%ADD17R,0.740000X1.190000*%
G04 APERTURE END LIST*
D10*
X140460000Y-96830000D02*
X139000000Y-96830000D01*
X140460000Y-93670000D02*
X138300000Y-93670000D01*
X140460000Y-93670000D02*
X140460000Y-94600000D01*
X140460000Y-96830000D02*
X140460000Y-95900000D01*
X144528000Y-85506779D02*
X144528000Y-85181221D01*
X143508000Y-85506779D02*
X143508000Y-85181221D01*
X152525000Y-85562221D02*
X152525000Y-85887779D01*
X153545000Y-85562221D02*
X153545000Y-85887779D01*
X153922000Y-92801221D02*
X153922000Y-93126779D01*
X154942000Y-92801221D02*
X154942000Y-93126779D01*
X143508000Y-89245221D02*
X143508000Y-89570779D01*
X144528000Y-89245221D02*
X144528000Y-89570779D01*
X156050000Y-97335000D02*
X156050000Y-108585000D01*
X136050000Y-97335000D02*
X136050000Y-108585000D01*
X156050000Y-108585000D02*
X136050000Y-108585000D01*
X156050000Y-97335000D02*
X136050000Y-97335000D01*
X154325000Y-71615000D02*
X154325000Y-83615000D01*
X144165000Y-71615000D02*
X144165000Y-83615000D01*
X144165000Y-83615000D02*
X154325000Y-83615000D01*
X154325000Y-71615000D02*
X144165000Y-71615000D01*
X146720779Y-90172000D02*
X146395221Y-90172000D01*
X146720779Y-89152000D02*
X146395221Y-89152000D01*
X149062221Y-87628000D02*
X149387779Y-87628000D01*
X149062221Y-88648000D02*
X149387779Y-88648000D01*
X151729221Y-90172000D02*
X152054779Y-90172000D01*
X151729221Y-89152000D02*
X152054779Y-89152000D01*
X147445000Y-85887779D02*
X147445000Y-85562221D01*
X148465000Y-85887779D02*
X148465000Y-85562221D01*
X151005000Y-85887779D02*
X151005000Y-85562221D01*
X149985000Y-85887779D02*
X149985000Y-85562221D01*
X149225000Y-94066000D02*
X150725000Y-94066000D01*
X149225000Y-94066000D02*
X147725000Y-94066000D01*
X149225000Y-90846000D02*
X150725000Y-90846000D01*
X149225000Y-90846000D02*
X146300000Y-90846000D01*
D11*
X145089000Y-95996000D02*
X145414000Y-95996000D01*
X145414000Y-95996000D02*
X145414000Y-95696000D01*
X142439000Y-93996000D02*
X142114000Y-93996000D01*
X142114000Y-93996000D02*
X142114000Y-94296000D01*
X142414000Y-95996000D02*
X142114000Y-95996000D01*
X142114000Y-95996000D02*
X142114000Y-95671000D01*
X145414000Y-94321000D02*
X145189000Y-93996000D01*
X145189000Y-93996000D02*
X145089000Y-93996000D01*
X145089000Y-93996000D02*
X145089000Y-93471000D01*
X145414000Y-94321000D02*
X145414000Y-94696000D01*
D10*
X137920000Y-73152000D02*
X137920000Y-92202000D01*
X142750000Y-73152000D02*
X142750000Y-92202000D01*
X137920000Y-73152000D02*
X142750000Y-73152000D01*
X137920000Y-92202000D02*
X142750000Y-92202000D01*
X139065000Y-73152000D02*
G75*
G02X141605000Y-73152000I1270000J0D01*
G01*
D12*
X139128571Y-92553285D02*
X139128571Y-93160428D01*
X139164285Y-93231857D01*
X139200000Y-93267571D01*
X139271428Y-93303285D01*
X139414285Y-93303285D01*
X139485714Y-93267571D01*
X139521428Y-93231857D01*
X139557142Y-93160428D01*
X139557142Y-92553285D01*
X139842857Y-92553285D02*
X140307142Y-92553285D01*
X140057142Y-92839000D01*
X140164285Y-92839000D01*
X140235714Y-92874714D01*
X140271428Y-92910428D01*
X140307142Y-92981857D01*
X140307142Y-93160428D01*
X140271428Y-93231857D01*
X140235714Y-93267571D01*
X140164285Y-93303285D01*
X139950000Y-93303285D01*
X139878571Y-93267571D01*
X139842857Y-93231857D01*
X145627285Y-85469000D02*
X145270142Y-85719000D01*
X145627285Y-85897571D02*
X144877285Y-85897571D01*
X144877285Y-85611857D01*
X144913000Y-85540428D01*
X144948714Y-85504714D01*
X145020142Y-85469000D01*
X145127285Y-85469000D01*
X145198714Y-85504714D01*
X145234428Y-85540428D01*
X145270142Y-85611857D01*
X145270142Y-85897571D01*
X145127285Y-84826142D02*
X145627285Y-84826142D01*
X144841571Y-85004714D02*
X145377285Y-85183285D01*
X145377285Y-84719000D01*
X152231285Y-85850000D02*
X151874142Y-86100000D01*
X152231285Y-86278571D02*
X151481285Y-86278571D01*
X151481285Y-85992857D01*
X151517000Y-85921428D01*
X151552714Y-85885714D01*
X151624142Y-85850000D01*
X151731285Y-85850000D01*
X151802714Y-85885714D01*
X151838428Y-85921428D01*
X151874142Y-85992857D01*
X151874142Y-86278571D01*
X151481285Y-85600000D02*
X151481285Y-85135714D01*
X151767000Y-85385714D01*
X151767000Y-85278571D01*
X151802714Y-85207142D01*
X151838428Y-85171428D01*
X151909857Y-85135714D01*
X152088428Y-85135714D01*
X152159857Y-85171428D01*
X152195571Y-85207142D01*
X152231285Y-85278571D01*
X152231285Y-85492857D01*
X152195571Y-85564285D01*
X152159857Y-85600000D01*
X154307000Y-91199857D02*
X154271285Y-91235571D01*
X154164142Y-91271285D01*
X154092714Y-91271285D01*
X153985571Y-91235571D01*
X153914142Y-91164142D01*
X153878428Y-91092714D01*
X153842714Y-90949857D01*
X153842714Y-90842714D01*
X153878428Y-90699857D01*
X153914142Y-90628428D01*
X153985571Y-90557000D01*
X154092714Y-90521285D01*
X154164142Y-90521285D01*
X154271285Y-90557000D01*
X154307000Y-90592714D01*
X154985571Y-90521285D02*
X154628428Y-90521285D01*
X154592714Y-90878428D01*
X154628428Y-90842714D01*
X154699857Y-90807000D01*
X154878428Y-90807000D01*
X154949857Y-90842714D01*
X154985571Y-90878428D01*
X155021285Y-90949857D01*
X155021285Y-91128428D01*
X154985571Y-91199857D01*
X154949857Y-91235571D01*
X154878428Y-91271285D01*
X154699857Y-91271285D01*
X154628428Y-91235571D01*
X154592714Y-91199857D01*
X143893000Y-91707857D02*
X143857285Y-91743571D01*
X143750142Y-91779285D01*
X143678714Y-91779285D01*
X143571571Y-91743571D01*
X143500142Y-91672142D01*
X143464428Y-91600714D01*
X143428714Y-91457857D01*
X143428714Y-91350714D01*
X143464428Y-91207857D01*
X143500142Y-91136428D01*
X143571571Y-91065000D01*
X143678714Y-91029285D01*
X143750142Y-91029285D01*
X143857285Y-91065000D01*
X143893000Y-91100714D01*
X144535857Y-91279285D02*
X144535857Y-91779285D01*
X144357285Y-90993571D02*
X144178714Y-91529285D01*
X144643000Y-91529285D01*
X154690000Y-96109285D02*
X154690000Y-96645000D01*
X154654285Y-96752142D01*
X154582857Y-96823571D01*
X154475714Y-96859285D01*
X154404285Y-96859285D01*
X155011428Y-96180714D02*
X155047142Y-96145000D01*
X155118571Y-96109285D01*
X155297142Y-96109285D01*
X155368571Y-96145000D01*
X155404285Y-96180714D01*
X155440000Y-96252142D01*
X155440000Y-96323571D01*
X155404285Y-96430714D01*
X154975714Y-96859285D01*
X155440000Y-96859285D01*
X145004285Y-82800000D02*
X145540000Y-82800000D01*
X145647142Y-82835714D01*
X145718571Y-82907142D01*
X145754285Y-83014285D01*
X145754285Y-83085714D01*
X145754285Y-82050000D02*
X145754285Y-82478571D01*
X145754285Y-82264285D02*
X145004285Y-82264285D01*
X145111428Y-82335714D01*
X145182857Y-82407142D01*
X145218571Y-82478571D01*
X146433000Y-88913857D02*
X146397285Y-88949571D01*
X146290142Y-88985285D01*
X146218714Y-88985285D01*
X146111571Y-88949571D01*
X146040142Y-88878142D01*
X146004428Y-88806714D01*
X145968714Y-88663857D01*
X145968714Y-88556714D01*
X146004428Y-88413857D01*
X146040142Y-88342428D01*
X146111571Y-88271000D01*
X146218714Y-88235285D01*
X146290142Y-88235285D01*
X146397285Y-88271000D01*
X146433000Y-88306714D01*
X147147285Y-88985285D02*
X146718714Y-88985285D01*
X146933000Y-88985285D02*
X146933000Y-88235285D01*
X146861571Y-88342428D01*
X146790142Y-88413857D01*
X146718714Y-88449571D01*
X149100000Y-89548857D02*
X149064285Y-89584571D01*
X148957142Y-89620285D01*
X148885714Y-89620285D01*
X148778571Y-89584571D01*
X148707142Y-89513142D01*
X148671428Y-89441714D01*
X148635714Y-89298857D01*
X148635714Y-89191714D01*
X148671428Y-89048857D01*
X148707142Y-88977428D01*
X148778571Y-88906000D01*
X148885714Y-88870285D01*
X148957142Y-88870285D01*
X149064285Y-88906000D01*
X149100000Y-88941714D01*
X149385714Y-88941714D02*
X149421428Y-88906000D01*
X149492857Y-88870285D01*
X149671428Y-88870285D01*
X149742857Y-88906000D01*
X149778571Y-88941714D01*
X149814285Y-89013142D01*
X149814285Y-89084571D01*
X149778571Y-89191714D01*
X149350000Y-89620285D01*
X149814285Y-89620285D01*
X151767000Y-88913857D02*
X151731285Y-88949571D01*
X151624142Y-88985285D01*
X151552714Y-88985285D01*
X151445571Y-88949571D01*
X151374142Y-88878142D01*
X151338428Y-88806714D01*
X151302714Y-88663857D01*
X151302714Y-88556714D01*
X151338428Y-88413857D01*
X151374142Y-88342428D01*
X151445571Y-88271000D01*
X151552714Y-88235285D01*
X151624142Y-88235285D01*
X151731285Y-88271000D01*
X151767000Y-88306714D01*
X152017000Y-88235285D02*
X152481285Y-88235285D01*
X152231285Y-88521000D01*
X152338428Y-88521000D01*
X152409857Y-88556714D01*
X152445571Y-88592428D01*
X152481285Y-88663857D01*
X152481285Y-88842428D01*
X152445571Y-88913857D01*
X152409857Y-88949571D01*
X152338428Y-88985285D01*
X152124142Y-88985285D01*
X152052714Y-88949571D01*
X152017000Y-88913857D01*
X147151285Y-85850000D02*
X146794142Y-86100000D01*
X147151285Y-86278571D02*
X146401285Y-86278571D01*
X146401285Y-85992857D01*
X146437000Y-85921428D01*
X146472714Y-85885714D01*
X146544142Y-85850000D01*
X146651285Y-85850000D01*
X146722714Y-85885714D01*
X146758428Y-85921428D01*
X146794142Y-85992857D01*
X146794142Y-86278571D01*
X147151285Y-85135714D02*
X147151285Y-85564285D01*
X147151285Y-85350000D02*
X146401285Y-85350000D01*
X146508428Y-85421428D01*
X146579857Y-85492857D01*
X146615571Y-85564285D01*
X149691285Y-85850000D02*
X149334142Y-86100000D01*
X149691285Y-86278571D02*
X148941285Y-86278571D01*
X148941285Y-85992857D01*
X148977000Y-85921428D01*
X149012714Y-85885714D01*
X149084142Y-85850000D01*
X149191285Y-85850000D01*
X149262714Y-85885714D01*
X149298428Y-85921428D01*
X149334142Y-85992857D01*
X149334142Y-86278571D01*
X149012714Y-85564285D02*
X148977000Y-85528571D01*
X148941285Y-85457142D01*
X148941285Y-85278571D01*
X148977000Y-85207142D01*
X149012714Y-85171428D01*
X149084142Y-85135714D01*
X149155571Y-85135714D01*
X149262714Y-85171428D01*
X149691285Y-85600000D01*
X149691285Y-85135714D01*
X148653571Y-89886285D02*
X148653571Y-90493428D01*
X148689285Y-90564857D01*
X148725000Y-90600571D01*
X148796428Y-90636285D01*
X148939285Y-90636285D01*
X149010714Y-90600571D01*
X149046428Y-90564857D01*
X149082142Y-90493428D01*
X149082142Y-89886285D01*
X149832142Y-90636285D02*
X149403571Y-90636285D01*
X149617857Y-90636285D02*
X149617857Y-89886285D01*
X149546428Y-89993428D01*
X149475000Y-90064857D01*
X149403571Y-90100571D01*
X145639285Y-95567428D02*
X146246428Y-95567428D01*
X146317857Y-95531714D01*
X146353571Y-95496000D01*
X146389285Y-95424571D01*
X146389285Y-95281714D01*
X146353571Y-95210285D01*
X146317857Y-95174571D01*
X146246428Y-95138857D01*
X145639285Y-95138857D01*
X145710714Y-94817428D02*
X145675000Y-94781714D01*
X145639285Y-94710285D01*
X145639285Y-94531714D01*
X145675000Y-94460285D01*
X145710714Y-94424571D01*
X145782142Y-94388857D01*
X145853571Y-94388857D01*
X145960714Y-94424571D01*
X146389285Y-94853142D01*
X146389285Y-94388857D01*
X137499285Y-76289142D02*
X136749285Y-76289142D01*
X136749285Y-76003428D01*
X136785000Y-75932000D01*
X136820714Y-75896285D01*
X136892142Y-75860571D01*
X136999285Y-75860571D01*
X137070714Y-75896285D01*
X137106428Y-75932000D01*
X137142142Y-76003428D01*
X137142142Y-76289142D01*
X136749285Y-75396285D02*
X136749285Y-75253428D01*
X136785000Y-75182000D01*
X136856428Y-75110571D01*
X136999285Y-75074857D01*
X137249285Y-75074857D01*
X137392142Y-75110571D01*
X137463571Y-75182000D01*
X137499285Y-75253428D01*
X137499285Y-75396285D01*
X137463571Y-75467714D01*
X137392142Y-75539142D01*
X137249285Y-75574857D01*
X136999285Y-75574857D01*
X136856428Y-75539142D01*
X136785000Y-75467714D01*
X136749285Y-75396285D01*
X136749285Y-74860571D02*
X136749285Y-74432000D01*
X137499285Y-74646285D02*
X136749285Y-74646285D01*
X137499285Y-73789142D02*
X137499285Y-74217714D01*
X137499285Y-74003428D02*
X136749285Y-74003428D01*
X136856428Y-74074857D01*
X136927857Y-74146285D01*
X136963571Y-74217714D01*
%LPC*%
D13*
X140700000Y-95250000D03*
X138700000Y-96200000D03*
X138700000Y-94300000D03*
D11*
G36*
X144323691Y-84069176D02*
G01*
X144347401Y-84072693D01*
X144370652Y-84078517D01*
X144393220Y-84086592D01*
X144414889Y-84096841D01*
X144435448Y-84109164D01*
X144454701Y-84123442D01*
X144472461Y-84139539D01*
X144488558Y-84157299D01*
X144502836Y-84176552D01*
X144515159Y-84197111D01*
X144525408Y-84218780D01*
X144533483Y-84241348D01*
X144539307Y-84264599D01*
X144542824Y-84288309D01*
X144544000Y-84312250D01*
X144544000Y-84800750D01*
X144542824Y-84824691D01*
X144539307Y-84848401D01*
X144533483Y-84871652D01*
X144525408Y-84894220D01*
X144515159Y-84915889D01*
X144502836Y-84936448D01*
X144488558Y-84955701D01*
X144472461Y-84973461D01*
X144454701Y-84989558D01*
X144435448Y-85003836D01*
X144414889Y-85016159D01*
X144393220Y-85026408D01*
X144370652Y-85034483D01*
X144347401Y-85040307D01*
X144323691Y-85043824D01*
X144299750Y-85045000D01*
X143736250Y-85045000D01*
X143712309Y-85043824D01*
X143688599Y-85040307D01*
X143665348Y-85034483D01*
X143642780Y-85026408D01*
X143621111Y-85016159D01*
X143600552Y-85003836D01*
X143581299Y-84989558D01*
X143563539Y-84973461D01*
X143547442Y-84955701D01*
X143533164Y-84936448D01*
X143520841Y-84915889D01*
X143510592Y-84894220D01*
X143502517Y-84871652D01*
X143496693Y-84848401D01*
X143493176Y-84824691D01*
X143492000Y-84800750D01*
X143492000Y-84312250D01*
X143493176Y-84288309D01*
X143496693Y-84264599D01*
X143502517Y-84241348D01*
X143510592Y-84218780D01*
X143520841Y-84197111D01*
X143533164Y-84176552D01*
X143547442Y-84157299D01*
X143563539Y-84139539D01*
X143581299Y-84123442D01*
X143600552Y-84109164D01*
X143621111Y-84096841D01*
X143642780Y-84086592D01*
X143665348Y-84078517D01*
X143688599Y-84072693D01*
X143712309Y-84069176D01*
X143736250Y-84068000D01*
X144299750Y-84068000D01*
X144323691Y-84069176D01*
G37*
G36*
X144323691Y-85644176D02*
G01*
X144347401Y-85647693D01*
X144370652Y-85653517D01*
X144393220Y-85661592D01*
X144414889Y-85671841D01*
X144435448Y-85684164D01*
X144454701Y-85698442D01*
X144472461Y-85714539D01*
X144488558Y-85732299D01*
X144502836Y-85751552D01*
X144515159Y-85772111D01*
X144525408Y-85793780D01*
X144533483Y-85816348D01*
X144539307Y-85839599D01*
X144542824Y-85863309D01*
X144544000Y-85887250D01*
X144544000Y-86375750D01*
X144542824Y-86399691D01*
X144539307Y-86423401D01*
X144533483Y-86446652D01*
X144525408Y-86469220D01*
X144515159Y-86490889D01*
X144502836Y-86511448D01*
X144488558Y-86530701D01*
X144472461Y-86548461D01*
X144454701Y-86564558D01*
X144435448Y-86578836D01*
X144414889Y-86591159D01*
X144393220Y-86601408D01*
X144370652Y-86609483D01*
X144347401Y-86615307D01*
X144323691Y-86618824D01*
X144299750Y-86620000D01*
X143736250Y-86620000D01*
X143712309Y-86618824D01*
X143688599Y-86615307D01*
X143665348Y-86609483D01*
X143642780Y-86601408D01*
X143621111Y-86591159D01*
X143600552Y-86578836D01*
X143581299Y-86564558D01*
X143563539Y-86548461D01*
X143547442Y-86530701D01*
X143533164Y-86511448D01*
X143520841Y-86490889D01*
X143510592Y-86469220D01*
X143502517Y-86446652D01*
X143496693Y-86423401D01*
X143493176Y-86399691D01*
X143492000Y-86375750D01*
X143492000Y-85887250D01*
X143493176Y-85863309D01*
X143496693Y-85839599D01*
X143502517Y-85816348D01*
X143510592Y-85793780D01*
X143520841Y-85772111D01*
X143533164Y-85751552D01*
X143547442Y-85732299D01*
X143563539Y-85714539D01*
X143581299Y-85698442D01*
X143600552Y-85684164D01*
X143621111Y-85671841D01*
X143642780Y-85661592D01*
X143665348Y-85653517D01*
X143688599Y-85647693D01*
X143712309Y-85644176D01*
X143736250Y-85643000D01*
X144299750Y-85643000D01*
X144323691Y-85644176D01*
G37*
G36*
X153340691Y-86025176D02*
G01*
X153364401Y-86028693D01*
X153387652Y-86034517D01*
X153410220Y-86042592D01*
X153431889Y-86052841D01*
X153452448Y-86065164D01*
X153471701Y-86079442D01*
X153489461Y-86095539D01*
X153505558Y-86113299D01*
X153519836Y-86132552D01*
X153532159Y-86153111D01*
X153542408Y-86174780D01*
X153550483Y-86197348D01*
X153556307Y-86220599D01*
X153559824Y-86244309D01*
X153561000Y-86268250D01*
X153561000Y-86756750D01*
X153559824Y-86780691D01*
X153556307Y-86804401D01*
X153550483Y-86827652D01*
X153542408Y-86850220D01*
X153532159Y-86871889D01*
X153519836Y-86892448D01*
X153505558Y-86911701D01*
X153489461Y-86929461D01*
X153471701Y-86945558D01*
X153452448Y-86959836D01*
X153431889Y-86972159D01*
X153410220Y-86982408D01*
X153387652Y-86990483D01*
X153364401Y-86996307D01*
X153340691Y-86999824D01*
X153316750Y-87001000D01*
X152753250Y-87001000D01*
X152729309Y-86999824D01*
X152705599Y-86996307D01*
X152682348Y-86990483D01*
X152659780Y-86982408D01*
X152638111Y-86972159D01*
X152617552Y-86959836D01*
X152598299Y-86945558D01*
X152580539Y-86929461D01*
X152564442Y-86911701D01*
X152550164Y-86892448D01*
X152537841Y-86871889D01*
X152527592Y-86850220D01*
X152519517Y-86827652D01*
X152513693Y-86804401D01*
X152510176Y-86780691D01*
X152509000Y-86756750D01*
X152509000Y-86268250D01*
X152510176Y-86244309D01*
X152513693Y-86220599D01*
X152519517Y-86197348D01*
X152527592Y-86174780D01*
X152537841Y-86153111D01*
X152550164Y-86132552D01*
X152564442Y-86113299D01*
X152580539Y-86095539D01*
X152598299Y-86079442D01*
X152617552Y-86065164D01*
X152638111Y-86052841D01*
X152659780Y-86042592D01*
X152682348Y-86034517D01*
X152705599Y-86028693D01*
X152729309Y-86025176D01*
X152753250Y-86024000D01*
X153316750Y-86024000D01*
X153340691Y-86025176D01*
G37*
G36*
X153340691Y-84450176D02*
G01*
X153364401Y-84453693D01*
X153387652Y-84459517D01*
X153410220Y-84467592D01*
X153431889Y-84477841D01*
X153452448Y-84490164D01*
X153471701Y-84504442D01*
X153489461Y-84520539D01*
X153505558Y-84538299D01*
X153519836Y-84557552D01*
X153532159Y-84578111D01*
X153542408Y-84599780D01*
X153550483Y-84622348D01*
X153556307Y-84645599D01*
X153559824Y-84669309D01*
X153561000Y-84693250D01*
X153561000Y-85181750D01*
X153559824Y-85205691D01*
X153556307Y-85229401D01*
X153550483Y-85252652D01*
X153542408Y-85275220D01*
X153532159Y-85296889D01*
X153519836Y-85317448D01*
X153505558Y-85336701D01*
X153489461Y-85354461D01*
X153471701Y-85370558D01*
X153452448Y-85384836D01*
X153431889Y-85397159D01*
X153410220Y-85407408D01*
X153387652Y-85415483D01*
X153364401Y-85421307D01*
X153340691Y-85424824D01*
X153316750Y-85426000D01*
X152753250Y-85426000D01*
X152729309Y-85424824D01*
X152705599Y-85421307D01*
X152682348Y-85415483D01*
X152659780Y-85407408D01*
X152638111Y-85397159D01*
X152617552Y-85384836D01*
X152598299Y-85370558D01*
X152580539Y-85354461D01*
X152564442Y-85336701D01*
X152550164Y-85317448D01*
X152537841Y-85296889D01*
X152527592Y-85275220D01*
X152519517Y-85252652D01*
X152513693Y-85229401D01*
X152510176Y-85205691D01*
X152509000Y-85181750D01*
X152509000Y-84693250D01*
X152510176Y-84669309D01*
X152513693Y-84645599D01*
X152519517Y-84622348D01*
X152527592Y-84599780D01*
X152537841Y-84578111D01*
X152550164Y-84557552D01*
X152564442Y-84538299D01*
X152580539Y-84520539D01*
X152598299Y-84504442D01*
X152617552Y-84490164D01*
X152638111Y-84477841D01*
X152659780Y-84467592D01*
X152682348Y-84459517D01*
X152705599Y-84453693D01*
X152729309Y-84450176D01*
X152753250Y-84449000D01*
X153316750Y-84449000D01*
X153340691Y-84450176D01*
G37*
G36*
X154737691Y-93264176D02*
G01*
X154761401Y-93267693D01*
X154784652Y-93273517D01*
X154807220Y-93281592D01*
X154828889Y-93291841D01*
X154849448Y-93304164D01*
X154868701Y-93318442D01*
X154886461Y-93334539D01*
X154902558Y-93352299D01*
X154916836Y-93371552D01*
X154929159Y-93392111D01*
X154939408Y-93413780D01*
X154947483Y-93436348D01*
X154953307Y-93459599D01*
X154956824Y-93483309D01*
X154958000Y-93507250D01*
X154958000Y-93995750D01*
X154956824Y-94019691D01*
X154953307Y-94043401D01*
X154947483Y-94066652D01*
X154939408Y-94089220D01*
X154929159Y-94110889D01*
X154916836Y-94131448D01*
X154902558Y-94150701D01*
X154886461Y-94168461D01*
X154868701Y-94184558D01*
X154849448Y-94198836D01*
X154828889Y-94211159D01*
X154807220Y-94221408D01*
X154784652Y-94229483D01*
X154761401Y-94235307D01*
X154737691Y-94238824D01*
X154713750Y-94240000D01*
X154150250Y-94240000D01*
X154126309Y-94238824D01*
X154102599Y-94235307D01*
X154079348Y-94229483D01*
X154056780Y-94221408D01*
X154035111Y-94211159D01*
X154014552Y-94198836D01*
X153995299Y-94184558D01*
X153977539Y-94168461D01*
X153961442Y-94150701D01*
X153947164Y-94131448D01*
X153934841Y-94110889D01*
X153924592Y-94089220D01*
X153916517Y-94066652D01*
X153910693Y-94043401D01*
X153907176Y-94019691D01*
X153906000Y-93995750D01*
X153906000Y-93507250D01*
X153907176Y-93483309D01*
X153910693Y-93459599D01*
X153916517Y-93436348D01*
X153924592Y-93413780D01*
X153934841Y-93392111D01*
X153947164Y-93371552D01*
X153961442Y-93352299D01*
X153977539Y-93334539D01*
X153995299Y-93318442D01*
X154014552Y-93304164D01*
X154035111Y-93291841D01*
X154056780Y-93281592D01*
X154079348Y-93273517D01*
X154102599Y-93267693D01*
X154126309Y-93264176D01*
X154150250Y-93263000D01*
X154713750Y-93263000D01*
X154737691Y-93264176D01*
G37*
G36*
X154737691Y-91689176D02*
G01*
X154761401Y-91692693D01*
X154784652Y-91698517D01*
X154807220Y-91706592D01*
X154828889Y-91716841D01*
X154849448Y-91729164D01*
X154868701Y-91743442D01*
X154886461Y-91759539D01*
X154902558Y-91777299D01*
X154916836Y-91796552D01*
X154929159Y-91817111D01*
X154939408Y-91838780D01*
X154947483Y-91861348D01*
X154953307Y-91884599D01*
X154956824Y-91908309D01*
X154958000Y-91932250D01*
X154958000Y-92420750D01*
X154956824Y-92444691D01*
X154953307Y-92468401D01*
X154947483Y-92491652D01*
X154939408Y-92514220D01*
X154929159Y-92535889D01*
X154916836Y-92556448D01*
X154902558Y-92575701D01*
X154886461Y-92593461D01*
X154868701Y-92609558D01*
X154849448Y-92623836D01*
X154828889Y-92636159D01*
X154807220Y-92646408D01*
X154784652Y-92654483D01*
X154761401Y-92660307D01*
X154737691Y-92663824D01*
X154713750Y-92665000D01*
X154150250Y-92665000D01*
X154126309Y-92663824D01*
X154102599Y-92660307D01*
X154079348Y-92654483D01*
X154056780Y-92646408D01*
X154035111Y-92636159D01*
X154014552Y-92623836D01*
X153995299Y-92609558D01*
X153977539Y-92593461D01*
X153961442Y-92575701D01*
X153947164Y-92556448D01*
X153934841Y-92535889D01*
X153924592Y-92514220D01*
X153916517Y-92491652D01*
X153910693Y-92468401D01*
X153907176Y-92444691D01*
X153906000Y-92420750D01*
X153906000Y-91932250D01*
X153907176Y-91908309D01*
X153910693Y-91884599D01*
X153916517Y-91861348D01*
X153924592Y-91838780D01*
X153934841Y-91817111D01*
X153947164Y-91796552D01*
X153961442Y-91777299D01*
X153977539Y-91759539D01*
X153995299Y-91743442D01*
X154014552Y-91729164D01*
X154035111Y-91716841D01*
X154056780Y-91706592D01*
X154079348Y-91698517D01*
X154102599Y-91692693D01*
X154126309Y-91689176D01*
X154150250Y-91688000D01*
X154713750Y-91688000D01*
X154737691Y-91689176D01*
G37*
G36*
X144323691Y-89708176D02*
G01*
X144347401Y-89711693D01*
X144370652Y-89717517D01*
X144393220Y-89725592D01*
X144414889Y-89735841D01*
X144435448Y-89748164D01*
X144454701Y-89762442D01*
X144472461Y-89778539D01*
X144488558Y-89796299D01*
X144502836Y-89815552D01*
X144515159Y-89836111D01*
X144525408Y-89857780D01*
X144533483Y-89880348D01*
X144539307Y-89903599D01*
X144542824Y-89927309D01*
X144544000Y-89951250D01*
X144544000Y-90439750D01*
X144542824Y-90463691D01*
X144539307Y-90487401D01*
X144533483Y-90510652D01*
X144525408Y-90533220D01*
X144515159Y-90554889D01*
X144502836Y-90575448D01*
X144488558Y-90594701D01*
X144472461Y-90612461D01*
X144454701Y-90628558D01*
X144435448Y-90642836D01*
X144414889Y-90655159D01*
X144393220Y-90665408D01*
X144370652Y-90673483D01*
X144347401Y-90679307D01*
X144323691Y-90682824D01*
X144299750Y-90684000D01*
X143736250Y-90684000D01*
X143712309Y-90682824D01*
X143688599Y-90679307D01*
X143665348Y-90673483D01*
X143642780Y-90665408D01*
X143621111Y-90655159D01*
X143600552Y-90642836D01*
X143581299Y-90628558D01*
X143563539Y-90612461D01*
X143547442Y-90594701D01*
X143533164Y-90575448D01*
X143520841Y-90554889D01*
X143510592Y-90533220D01*
X143502517Y-90510652D01*
X143496693Y-90487401D01*
X143493176Y-90463691D01*
X143492000Y-90439750D01*
X143492000Y-89951250D01*
X143493176Y-89927309D01*
X143496693Y-89903599D01*
X143502517Y-89880348D01*
X143510592Y-89857780D01*
X143520841Y-89836111D01*
X143533164Y-89815552D01*
X143547442Y-89796299D01*
X143563539Y-89778539D01*
X143581299Y-89762442D01*
X143600552Y-89748164D01*
X143621111Y-89735841D01*
X143642780Y-89725592D01*
X143665348Y-89717517D01*
X143688599Y-89711693D01*
X143712309Y-89708176D01*
X143736250Y-89707000D01*
X144299750Y-89707000D01*
X144323691Y-89708176D01*
G37*
G36*
X144323691Y-88133176D02*
G01*
X144347401Y-88136693D01*
X144370652Y-88142517D01*
X144393220Y-88150592D01*
X144414889Y-88160841D01*
X144435448Y-88173164D01*
X144454701Y-88187442D01*
X144472461Y-88203539D01*
X144488558Y-88221299D01*
X144502836Y-88240552D01*
X144515159Y-88261111D01*
X144525408Y-88282780D01*
X144533483Y-88305348D01*
X144539307Y-88328599D01*
X144542824Y-88352309D01*
X144544000Y-88376250D01*
X144544000Y-88864750D01*
X144542824Y-88888691D01*
X144539307Y-88912401D01*
X144533483Y-88935652D01*
X144525408Y-88958220D01*
X144515159Y-88979889D01*
X144502836Y-89000448D01*
X144488558Y-89019701D01*
X144472461Y-89037461D01*
X144454701Y-89053558D01*
X144435448Y-89067836D01*
X144414889Y-89080159D01*
X144393220Y-89090408D01*
X144370652Y-89098483D01*
X144347401Y-89104307D01*
X144323691Y-89107824D01*
X144299750Y-89109000D01*
X143736250Y-89109000D01*
X143712309Y-89107824D01*
X143688599Y-89104307D01*
X143665348Y-89098483D01*
X143642780Y-89090408D01*
X143621111Y-89080159D01*
X143600552Y-89067836D01*
X143581299Y-89053558D01*
X143563539Y-89037461D01*
X143547442Y-89019701D01*
X143533164Y-89000448D01*
X143520841Y-88979889D01*
X143510592Y-88958220D01*
X143502517Y-88935652D01*
X143496693Y-88912401D01*
X143493176Y-88888691D01*
X143492000Y-88864750D01*
X143492000Y-88376250D01*
X143493176Y-88352309D01*
X143496693Y-88328599D01*
X143502517Y-88305348D01*
X143510592Y-88282780D01*
X143520841Y-88261111D01*
X143533164Y-88240552D01*
X143547442Y-88221299D01*
X143563539Y-88203539D01*
X143581299Y-88187442D01*
X143600552Y-88173164D01*
X143621111Y-88160841D01*
X143642780Y-88150592D01*
X143665348Y-88142517D01*
X143688599Y-88136693D01*
X143712309Y-88133176D01*
X143736250Y-88132000D01*
X144299750Y-88132000D01*
X144323691Y-88133176D01*
G37*
D14*
X155050000Y-101785000D03*
X137050000Y-101785000D03*
X153050000Y-99385000D03*
X139050000Y-99385000D03*
X151050000Y-99385000D03*
X141050000Y-99385000D03*
X149050000Y-99385000D03*
X143050000Y-99385000D03*
X147050000Y-99385000D03*
X145050000Y-99385000D03*
D15*
X150495000Y-81915000D03*
X147995000Y-81915000D03*
D16*
X153045000Y-75315000D03*
X145445000Y-75315000D03*
D11*
G36*
X147613691Y-89137176D02*
G01*
X147637401Y-89140693D01*
X147660652Y-89146517D01*
X147683220Y-89154592D01*
X147704889Y-89164841D01*
X147725448Y-89177164D01*
X147744701Y-89191442D01*
X147762461Y-89207539D01*
X147778558Y-89225299D01*
X147792836Y-89244552D01*
X147805159Y-89265111D01*
X147815408Y-89286780D01*
X147823483Y-89309348D01*
X147829307Y-89332599D01*
X147832824Y-89356309D01*
X147834000Y-89380250D01*
X147834000Y-89943750D01*
X147832824Y-89967691D01*
X147829307Y-89991401D01*
X147823483Y-90014652D01*
X147815408Y-90037220D01*
X147805159Y-90058889D01*
X147792836Y-90079448D01*
X147778558Y-90098701D01*
X147762461Y-90116461D01*
X147744701Y-90132558D01*
X147725448Y-90146836D01*
X147704889Y-90159159D01*
X147683220Y-90169408D01*
X147660652Y-90177483D01*
X147637401Y-90183307D01*
X147613691Y-90186824D01*
X147589750Y-90188000D01*
X147101250Y-90188000D01*
X147077309Y-90186824D01*
X147053599Y-90183307D01*
X147030348Y-90177483D01*
X147007780Y-90169408D01*
X146986111Y-90159159D01*
X146965552Y-90146836D01*
X146946299Y-90132558D01*
X146928539Y-90116461D01*
X146912442Y-90098701D01*
X146898164Y-90079448D01*
X146885841Y-90058889D01*
X146875592Y-90037220D01*
X146867517Y-90014652D01*
X146861693Y-89991401D01*
X146858176Y-89967691D01*
X146857000Y-89943750D01*
X146857000Y-89380250D01*
X146858176Y-89356309D01*
X146861693Y-89332599D01*
X146867517Y-89309348D01*
X146875592Y-89286780D01*
X146885841Y-89265111D01*
X146898164Y-89244552D01*
X146912442Y-89225299D01*
X146928539Y-89207539D01*
X146946299Y-89191442D01*
X146965552Y-89177164D01*
X146986111Y-89164841D01*
X147007780Y-89154592D01*
X147030348Y-89146517D01*
X147053599Y-89140693D01*
X147077309Y-89137176D01*
X147101250Y-89136000D01*
X147589750Y-89136000D01*
X147613691Y-89137176D01*
G37*
G36*
X146038691Y-89137176D02*
G01*
X146062401Y-89140693D01*
X146085652Y-89146517D01*
X146108220Y-89154592D01*
X146129889Y-89164841D01*
X146150448Y-89177164D01*
X146169701Y-89191442D01*
X146187461Y-89207539D01*
X146203558Y-89225299D01*
X146217836Y-89244552D01*
X146230159Y-89265111D01*
X146240408Y-89286780D01*
X146248483Y-89309348D01*
X146254307Y-89332599D01*
X146257824Y-89356309D01*
X146259000Y-89380250D01*
X146259000Y-89943750D01*
X146257824Y-89967691D01*
X146254307Y-89991401D01*
X146248483Y-90014652D01*
X146240408Y-90037220D01*
X146230159Y-90058889D01*
X146217836Y-90079448D01*
X146203558Y-90098701D01*
X146187461Y-90116461D01*
X146169701Y-90132558D01*
X146150448Y-90146836D01*
X146129889Y-90159159D01*
X146108220Y-90169408D01*
X146085652Y-90177483D01*
X146062401Y-90183307D01*
X146038691Y-90186824D01*
X146014750Y-90188000D01*
X145526250Y-90188000D01*
X145502309Y-90186824D01*
X145478599Y-90183307D01*
X145455348Y-90177483D01*
X145432780Y-90169408D01*
X145411111Y-90159159D01*
X145390552Y-90146836D01*
X145371299Y-90132558D01*
X145353539Y-90116461D01*
X145337442Y-90098701D01*
X145323164Y-90079448D01*
X145310841Y-90058889D01*
X145300592Y-90037220D01*
X145292517Y-90014652D01*
X145286693Y-89991401D01*
X145283176Y-89967691D01*
X145282000Y-89943750D01*
X145282000Y-89380250D01*
X145283176Y-89356309D01*
X145286693Y-89332599D01*
X145292517Y-89309348D01*
X145300592Y-89286780D01*
X145310841Y-89265111D01*
X145323164Y-89244552D01*
X145337442Y-89225299D01*
X145353539Y-89207539D01*
X145371299Y-89191442D01*
X145390552Y-89177164D01*
X145411111Y-89164841D01*
X145432780Y-89154592D01*
X145455348Y-89146517D01*
X145478599Y-89140693D01*
X145502309Y-89137176D01*
X145526250Y-89136000D01*
X146014750Y-89136000D01*
X146038691Y-89137176D01*
G37*
G36*
X148705691Y-87613176D02*
G01*
X148729401Y-87616693D01*
X148752652Y-87622517D01*
X148775220Y-87630592D01*
X148796889Y-87640841D01*
X148817448Y-87653164D01*
X148836701Y-87667442D01*
X148854461Y-87683539D01*
X148870558Y-87701299D01*
X148884836Y-87720552D01*
X148897159Y-87741111D01*
X148907408Y-87762780D01*
X148915483Y-87785348D01*
X148921307Y-87808599D01*
X148924824Y-87832309D01*
X148926000Y-87856250D01*
X148926000Y-88419750D01*
X148924824Y-88443691D01*
X148921307Y-88467401D01*
X148915483Y-88490652D01*
X148907408Y-88513220D01*
X148897159Y-88534889D01*
X148884836Y-88555448D01*
X148870558Y-88574701D01*
X148854461Y-88592461D01*
X148836701Y-88608558D01*
X148817448Y-88622836D01*
X148796889Y-88635159D01*
X148775220Y-88645408D01*
X148752652Y-88653483D01*
X148729401Y-88659307D01*
X148705691Y-88662824D01*
X148681750Y-88664000D01*
X148193250Y-88664000D01*
X148169309Y-88662824D01*
X148145599Y-88659307D01*
X148122348Y-88653483D01*
X148099780Y-88645408D01*
X148078111Y-88635159D01*
X148057552Y-88622836D01*
X148038299Y-88608558D01*
X148020539Y-88592461D01*
X148004442Y-88574701D01*
X147990164Y-88555448D01*
X147977841Y-88534889D01*
X147967592Y-88513220D01*
X147959517Y-88490652D01*
X147953693Y-88467401D01*
X147950176Y-88443691D01*
X147949000Y-88419750D01*
X147949000Y-87856250D01*
X147950176Y-87832309D01*
X147953693Y-87808599D01*
X147959517Y-87785348D01*
X147967592Y-87762780D01*
X147977841Y-87741111D01*
X147990164Y-87720552D01*
X148004442Y-87701299D01*
X148020539Y-87683539D01*
X148038299Y-87667442D01*
X148057552Y-87653164D01*
X148078111Y-87640841D01*
X148099780Y-87630592D01*
X148122348Y-87622517D01*
X148145599Y-87616693D01*
X148169309Y-87613176D01*
X148193250Y-87612000D01*
X148681750Y-87612000D01*
X148705691Y-87613176D01*
G37*
G36*
X150280691Y-87613176D02*
G01*
X150304401Y-87616693D01*
X150327652Y-87622517D01*
X150350220Y-87630592D01*
X150371889Y-87640841D01*
X150392448Y-87653164D01*
X150411701Y-87667442D01*
X150429461Y-87683539D01*
X150445558Y-87701299D01*
X150459836Y-87720552D01*
X150472159Y-87741111D01*
X150482408Y-87762780D01*
X150490483Y-87785348D01*
X150496307Y-87808599D01*
X150499824Y-87832309D01*
X150501000Y-87856250D01*
X150501000Y-88419750D01*
X150499824Y-88443691D01*
X150496307Y-88467401D01*
X150490483Y-88490652D01*
X150482408Y-88513220D01*
X150472159Y-88534889D01*
X150459836Y-88555448D01*
X150445558Y-88574701D01*
X150429461Y-88592461D01*
X150411701Y-88608558D01*
X150392448Y-88622836D01*
X150371889Y-88635159D01*
X150350220Y-88645408D01*
X150327652Y-88653483D01*
X150304401Y-88659307D01*
X150280691Y-88662824D01*
X150256750Y-88664000D01*
X149768250Y-88664000D01*
X149744309Y-88662824D01*
X149720599Y-88659307D01*
X149697348Y-88653483D01*
X149674780Y-88645408D01*
X149653111Y-88635159D01*
X149632552Y-88622836D01*
X149613299Y-88608558D01*
X149595539Y-88592461D01*
X149579442Y-88574701D01*
X149565164Y-88555448D01*
X149552841Y-88534889D01*
X149542592Y-88513220D01*
X149534517Y-88490652D01*
X149528693Y-88467401D01*
X149525176Y-88443691D01*
X149524000Y-88419750D01*
X149524000Y-87856250D01*
X149525176Y-87832309D01*
X149528693Y-87808599D01*
X149534517Y-87785348D01*
X149542592Y-87762780D01*
X149552841Y-87741111D01*
X149565164Y-87720552D01*
X149579442Y-87701299D01*
X149595539Y-87683539D01*
X149613299Y-87667442D01*
X149632552Y-87653164D01*
X149653111Y-87640841D01*
X149674780Y-87630592D01*
X149697348Y-87622517D01*
X149720599Y-87616693D01*
X149744309Y-87613176D01*
X149768250Y-87612000D01*
X150256750Y-87612000D01*
X150280691Y-87613176D01*
G37*
G36*
X152947691Y-89137176D02*
G01*
X152971401Y-89140693D01*
X152994652Y-89146517D01*
X153017220Y-89154592D01*
X153038889Y-89164841D01*
X153059448Y-89177164D01*
X153078701Y-89191442D01*
X153096461Y-89207539D01*
X153112558Y-89225299D01*
X153126836Y-89244552D01*
X153139159Y-89265111D01*
X153149408Y-89286780D01*
X153157483Y-89309348D01*
X153163307Y-89332599D01*
X153166824Y-89356309D01*
X153168000Y-89380250D01*
X153168000Y-89943750D01*
X153166824Y-89967691D01*
X153163307Y-89991401D01*
X153157483Y-90014652D01*
X153149408Y-90037220D01*
X153139159Y-90058889D01*
X153126836Y-90079448D01*
X153112558Y-90098701D01*
X153096461Y-90116461D01*
X153078701Y-90132558D01*
X153059448Y-90146836D01*
X153038889Y-90159159D01*
X153017220Y-90169408D01*
X152994652Y-90177483D01*
X152971401Y-90183307D01*
X152947691Y-90186824D01*
X152923750Y-90188000D01*
X152435250Y-90188000D01*
X152411309Y-90186824D01*
X152387599Y-90183307D01*
X152364348Y-90177483D01*
X152341780Y-90169408D01*
X152320111Y-90159159D01*
X152299552Y-90146836D01*
X152280299Y-90132558D01*
X152262539Y-90116461D01*
X152246442Y-90098701D01*
X152232164Y-90079448D01*
X152219841Y-90058889D01*
X152209592Y-90037220D01*
X152201517Y-90014652D01*
X152195693Y-89991401D01*
X152192176Y-89967691D01*
X152191000Y-89943750D01*
X152191000Y-89380250D01*
X152192176Y-89356309D01*
X152195693Y-89332599D01*
X152201517Y-89309348D01*
X152209592Y-89286780D01*
X152219841Y-89265111D01*
X152232164Y-89244552D01*
X152246442Y-89225299D01*
X152262539Y-89207539D01*
X152280299Y-89191442D01*
X152299552Y-89177164D01*
X152320111Y-89164841D01*
X152341780Y-89154592D01*
X152364348Y-89146517D01*
X152387599Y-89140693D01*
X152411309Y-89137176D01*
X152435250Y-89136000D01*
X152923750Y-89136000D01*
X152947691Y-89137176D01*
G37*
G36*
X151372691Y-89137176D02*
G01*
X151396401Y-89140693D01*
X151419652Y-89146517D01*
X151442220Y-89154592D01*
X151463889Y-89164841D01*
X151484448Y-89177164D01*
X151503701Y-89191442D01*
X151521461Y-89207539D01*
X151537558Y-89225299D01*
X151551836Y-89244552D01*
X151564159Y-89265111D01*
X151574408Y-89286780D01*
X151582483Y-89309348D01*
X151588307Y-89332599D01*
X151591824Y-89356309D01*
X151593000Y-89380250D01*
X151593000Y-89943750D01*
X151591824Y-89967691D01*
X151588307Y-89991401D01*
X151582483Y-90014652D01*
X151574408Y-90037220D01*
X151564159Y-90058889D01*
X151551836Y-90079448D01*
X151537558Y-90098701D01*
X151521461Y-90116461D01*
X151503701Y-90132558D01*
X151484448Y-90146836D01*
X151463889Y-90159159D01*
X151442220Y-90169408D01*
X151419652Y-90177483D01*
X151396401Y-90183307D01*
X151372691Y-90186824D01*
X151348750Y-90188000D01*
X150860250Y-90188000D01*
X150836309Y-90186824D01*
X150812599Y-90183307D01*
X150789348Y-90177483D01*
X150766780Y-90169408D01*
X150745111Y-90159159D01*
X150724552Y-90146836D01*
X150705299Y-90132558D01*
X150687539Y-90116461D01*
X150671442Y-90098701D01*
X150657164Y-90079448D01*
X150644841Y-90058889D01*
X150634592Y-90037220D01*
X150626517Y-90014652D01*
X150620693Y-89991401D01*
X150617176Y-89967691D01*
X150616000Y-89943750D01*
X150616000Y-89380250D01*
X150617176Y-89356309D01*
X150620693Y-89332599D01*
X150626517Y-89309348D01*
X150634592Y-89286780D01*
X150644841Y-89265111D01*
X150657164Y-89244552D01*
X150671442Y-89225299D01*
X150687539Y-89207539D01*
X150705299Y-89191442D01*
X150724552Y-89177164D01*
X150745111Y-89164841D01*
X150766780Y-89154592D01*
X150789348Y-89146517D01*
X150812599Y-89140693D01*
X150836309Y-89137176D01*
X150860250Y-89136000D01*
X151348750Y-89136000D01*
X151372691Y-89137176D01*
G37*
G36*
X148260691Y-86025176D02*
G01*
X148284401Y-86028693D01*
X148307652Y-86034517D01*
X148330220Y-86042592D01*
X148351889Y-86052841D01*
X148372448Y-86065164D01*
X148391701Y-86079442D01*
X148409461Y-86095539D01*
X148425558Y-86113299D01*
X148439836Y-86132552D01*
X148452159Y-86153111D01*
X148462408Y-86174780D01*
X148470483Y-86197348D01*
X148476307Y-86220599D01*
X148479824Y-86244309D01*
X148481000Y-86268250D01*
X148481000Y-86756750D01*
X148479824Y-86780691D01*
X148476307Y-86804401D01*
X148470483Y-86827652D01*
X148462408Y-86850220D01*
X148452159Y-86871889D01*
X148439836Y-86892448D01*
X148425558Y-86911701D01*
X148409461Y-86929461D01*
X148391701Y-86945558D01*
X148372448Y-86959836D01*
X148351889Y-86972159D01*
X148330220Y-86982408D01*
X148307652Y-86990483D01*
X148284401Y-86996307D01*
X148260691Y-86999824D01*
X148236750Y-87001000D01*
X147673250Y-87001000D01*
X147649309Y-86999824D01*
X147625599Y-86996307D01*
X147602348Y-86990483D01*
X147579780Y-86982408D01*
X147558111Y-86972159D01*
X147537552Y-86959836D01*
X147518299Y-86945558D01*
X147500539Y-86929461D01*
X147484442Y-86911701D01*
X147470164Y-86892448D01*
X147457841Y-86871889D01*
X147447592Y-86850220D01*
X147439517Y-86827652D01*
X147433693Y-86804401D01*
X147430176Y-86780691D01*
X147429000Y-86756750D01*
X147429000Y-86268250D01*
X147430176Y-86244309D01*
X147433693Y-86220599D01*
X147439517Y-86197348D01*
X147447592Y-86174780D01*
X147457841Y-86153111D01*
X147470164Y-86132552D01*
X147484442Y-86113299D01*
X147500539Y-86095539D01*
X147518299Y-86079442D01*
X147537552Y-86065164D01*
X147558111Y-86052841D01*
X147579780Y-86042592D01*
X147602348Y-86034517D01*
X147625599Y-86028693D01*
X147649309Y-86025176D01*
X147673250Y-86024000D01*
X148236750Y-86024000D01*
X148260691Y-86025176D01*
G37*
G36*
X148260691Y-84450176D02*
G01*
X148284401Y-84453693D01*
X148307652Y-84459517D01*
X148330220Y-84467592D01*
X148351889Y-84477841D01*
X148372448Y-84490164D01*
X148391701Y-84504442D01*
X148409461Y-84520539D01*
X148425558Y-84538299D01*
X148439836Y-84557552D01*
X148452159Y-84578111D01*
X148462408Y-84599780D01*
X148470483Y-84622348D01*
X148476307Y-84645599D01*
X148479824Y-84669309D01*
X148481000Y-84693250D01*
X148481000Y-85181750D01*
X148479824Y-85205691D01*
X148476307Y-85229401D01*
X148470483Y-85252652D01*
X148462408Y-85275220D01*
X148452159Y-85296889D01*
X148439836Y-85317448D01*
X148425558Y-85336701D01*
X148409461Y-85354461D01*
X148391701Y-85370558D01*
X148372448Y-85384836D01*
X148351889Y-85397159D01*
X148330220Y-85407408D01*
X148307652Y-85415483D01*
X148284401Y-85421307D01*
X148260691Y-85424824D01*
X148236750Y-85426000D01*
X147673250Y-85426000D01*
X147649309Y-85424824D01*
X147625599Y-85421307D01*
X147602348Y-85415483D01*
X147579780Y-85407408D01*
X147558111Y-85397159D01*
X147537552Y-85384836D01*
X147518299Y-85370558D01*
X147500539Y-85354461D01*
X147484442Y-85336701D01*
X147470164Y-85317448D01*
X147457841Y-85296889D01*
X147447592Y-85275220D01*
X147439517Y-85252652D01*
X147433693Y-85229401D01*
X147430176Y-85205691D01*
X147429000Y-85181750D01*
X147429000Y-84693250D01*
X147430176Y-84669309D01*
X147433693Y-84645599D01*
X147439517Y-84622348D01*
X147447592Y-84599780D01*
X147457841Y-84578111D01*
X147470164Y-84557552D01*
X147484442Y-84538299D01*
X147500539Y-84520539D01*
X147518299Y-84504442D01*
X147537552Y-84490164D01*
X147558111Y-84477841D01*
X147579780Y-84467592D01*
X147602348Y-84459517D01*
X147625599Y-84453693D01*
X147649309Y-84450176D01*
X147673250Y-84449000D01*
X148236750Y-84449000D01*
X148260691Y-84450176D01*
G37*
G36*
X150800691Y-84450176D02*
G01*
X150824401Y-84453693D01*
X150847652Y-84459517D01*
X150870220Y-84467592D01*
X150891889Y-84477841D01*
X150912448Y-84490164D01*
X150931701Y-84504442D01*
X150949461Y-84520539D01*
X150965558Y-84538299D01*
X150979836Y-84557552D01*
X150992159Y-84578111D01*
X151002408Y-84599780D01*
X151010483Y-84622348D01*
X151016307Y-84645599D01*
X151019824Y-84669309D01*
X151021000Y-84693250D01*
X151021000Y-85181750D01*
X151019824Y-85205691D01*
X151016307Y-85229401D01*
X151010483Y-85252652D01*
X151002408Y-85275220D01*
X150992159Y-85296889D01*
X150979836Y-85317448D01*
X150965558Y-85336701D01*
X150949461Y-85354461D01*
X150931701Y-85370558D01*
X150912448Y-85384836D01*
X150891889Y-85397159D01*
X150870220Y-85407408D01*
X150847652Y-85415483D01*
X150824401Y-85421307D01*
X150800691Y-85424824D01*
X150776750Y-85426000D01*
X150213250Y-85426000D01*
X150189309Y-85424824D01*
X150165599Y-85421307D01*
X150142348Y-85415483D01*
X150119780Y-85407408D01*
X150098111Y-85397159D01*
X150077552Y-85384836D01*
X150058299Y-85370558D01*
X150040539Y-85354461D01*
X150024442Y-85336701D01*
X150010164Y-85317448D01*
X149997841Y-85296889D01*
X149987592Y-85275220D01*
X149979517Y-85252652D01*
X149973693Y-85229401D01*
X149970176Y-85205691D01*
X149969000Y-85181750D01*
X149969000Y-84693250D01*
X149970176Y-84669309D01*
X149973693Y-84645599D01*
X149979517Y-84622348D01*
X149987592Y-84599780D01*
X149997841Y-84578111D01*
X150010164Y-84557552D01*
X150024442Y-84538299D01*
X150040539Y-84520539D01*
X150058299Y-84504442D01*
X150077552Y-84490164D01*
X150098111Y-84477841D01*
X150119780Y-84467592D01*
X150142348Y-84459517D01*
X150165599Y-84453693D01*
X150189309Y-84450176D01*
X150213250Y-84449000D01*
X150776750Y-84449000D01*
X150800691Y-84450176D01*
G37*
G36*
X150800691Y-86025176D02*
G01*
X150824401Y-86028693D01*
X150847652Y-86034517D01*
X150870220Y-86042592D01*
X150891889Y-86052841D01*
X150912448Y-86065164D01*
X150931701Y-86079442D01*
X150949461Y-86095539D01*
X150965558Y-86113299D01*
X150979836Y-86132552D01*
X150992159Y-86153111D01*
X151002408Y-86174780D01*
X151010483Y-86197348D01*
X151016307Y-86220599D01*
X151019824Y-86244309D01*
X151021000Y-86268250D01*
X151021000Y-86756750D01*
X151019824Y-86780691D01*
X151016307Y-86804401D01*
X151010483Y-86827652D01*
X151002408Y-86850220D01*
X150992159Y-86871889D01*
X150979836Y-86892448D01*
X150965558Y-86911701D01*
X150949461Y-86929461D01*
X150931701Y-86945558D01*
X150912448Y-86959836D01*
X150891889Y-86972159D01*
X150870220Y-86982408D01*
X150847652Y-86990483D01*
X150824401Y-86996307D01*
X150800691Y-86999824D01*
X150776750Y-87001000D01*
X150213250Y-87001000D01*
X150189309Y-86999824D01*
X150165599Y-86996307D01*
X150142348Y-86990483D01*
X150119780Y-86982408D01*
X150098111Y-86972159D01*
X150077552Y-86959836D01*
X150058299Y-86945558D01*
X150040539Y-86929461D01*
X150024442Y-86911701D01*
X150010164Y-86892448D01*
X149997841Y-86871889D01*
X149987592Y-86850220D01*
X149979517Y-86827652D01*
X149973693Y-86804401D01*
X149970176Y-86780691D01*
X149969000Y-86756750D01*
X149969000Y-86268250D01*
X149970176Y-86244309D01*
X149973693Y-86220599D01*
X149979517Y-86197348D01*
X149987592Y-86174780D01*
X149997841Y-86153111D01*
X150010164Y-86132552D01*
X150024442Y-86113299D01*
X150040539Y-86095539D01*
X150058299Y-86079442D01*
X150077552Y-86065164D01*
X150098111Y-86052841D01*
X150119780Y-86042592D01*
X150142348Y-86034517D01*
X150165599Y-86028693D01*
X150189309Y-86025176D01*
X150213250Y-86024000D01*
X150776750Y-86024000D01*
X150800691Y-86025176D01*
G37*
G36*
X147840252Y-91180725D02*
G01*
X147854861Y-91182892D01*
X147869188Y-91186480D01*
X147883094Y-91191456D01*
X147896445Y-91197771D01*
X147909113Y-91205364D01*
X147920976Y-91214162D01*
X147931920Y-91224080D01*
X147941838Y-91235024D01*
X147950636Y-91246887D01*
X147958229Y-91259555D01*
X147964544Y-91272906D01*
X147969520Y-91286812D01*
X147973108Y-91301139D01*
X147975275Y-91315748D01*
X147976000Y-91330500D01*
X147976000Y-91631500D01*
X147975275Y-91646252D01*
X147973108Y-91660861D01*
X147969520Y-91675188D01*
X147964544Y-91689094D01*
X147958229Y-91702445D01*
X147950636Y-91715113D01*
X147941838Y-91726976D01*
X147931920Y-91737920D01*
X147920976Y-91747838D01*
X147909113Y-91756636D01*
X147896445Y-91764229D01*
X147883094Y-91770544D01*
X147869188Y-91775520D01*
X147854861Y-91779108D01*
X147840252Y-91781275D01*
X147825500Y-91782000D01*
X146399500Y-91782000D01*
X146384748Y-91781275D01*
X146370139Y-91779108D01*
X146355812Y-91775520D01*
X146341906Y-91770544D01*
X146328555Y-91764229D01*
X146315887Y-91756636D01*
X146304024Y-91747838D01*
X146293080Y-91737920D01*
X146283162Y-91726976D01*
X146274364Y-91715113D01*
X146266771Y-91702445D01*
X146260456Y-91689094D01*
X146255480Y-91675188D01*
X146251892Y-91660861D01*
X146249725Y-91646252D01*
X146249000Y-91631500D01*
X146249000Y-91330500D01*
X146249725Y-91315748D01*
X146251892Y-91301139D01*
X146255480Y-91286812D01*
X146260456Y-91272906D01*
X146266771Y-91259555D01*
X146274364Y-91246887D01*
X146283162Y-91235024D01*
X146293080Y-91224080D01*
X146304024Y-91214162D01*
X146315887Y-91205364D01*
X146328555Y-91197771D01*
X146341906Y-91191456D01*
X146355812Y-91186480D01*
X146370139Y-91182892D01*
X146384748Y-91180725D01*
X146399500Y-91180000D01*
X147825500Y-91180000D01*
X147840252Y-91180725D01*
G37*
G36*
X147840252Y-91830725D02*
G01*
X147854861Y-91832892D01*
X147869188Y-91836480D01*
X147883094Y-91841456D01*
X147896445Y-91847771D01*
X147909113Y-91855364D01*
X147920976Y-91864162D01*
X147931920Y-91874080D01*
X147941838Y-91885024D01*
X147950636Y-91896887D01*
X147958229Y-91909555D01*
X147964544Y-91922906D01*
X147969520Y-91936812D01*
X147973108Y-91951139D01*
X147975275Y-91965748D01*
X147976000Y-91980500D01*
X147976000Y-92281500D01*
X147975275Y-92296252D01*
X147973108Y-92310861D01*
X147969520Y-92325188D01*
X147964544Y-92339094D01*
X147958229Y-92352445D01*
X147950636Y-92365113D01*
X147941838Y-92376976D01*
X147931920Y-92387920D01*
X147920976Y-92397838D01*
X147909113Y-92406636D01*
X147896445Y-92414229D01*
X147883094Y-92420544D01*
X147869188Y-92425520D01*
X147854861Y-92429108D01*
X147840252Y-92431275D01*
X147825500Y-92432000D01*
X146399500Y-92432000D01*
X146384748Y-92431275D01*
X146370139Y-92429108D01*
X146355812Y-92425520D01*
X146341906Y-92420544D01*
X146328555Y-92414229D01*
X146315887Y-92406636D01*
X146304024Y-92397838D01*
X146293080Y-92387920D01*
X146283162Y-92376976D01*
X146274364Y-92365113D01*
X146266771Y-92352445D01*
X146260456Y-92339094D01*
X146255480Y-92325188D01*
X146251892Y-92310861D01*
X146249725Y-92296252D01*
X146249000Y-92281500D01*
X146249000Y-91980500D01*
X146249725Y-91965748D01*
X146251892Y-91951139D01*
X146255480Y-91936812D01*
X146260456Y-91922906D01*
X146266771Y-91909555D01*
X146274364Y-91896887D01*
X146283162Y-91885024D01*
X146293080Y-91874080D01*
X146304024Y-91864162D01*
X146315887Y-91855364D01*
X146328555Y-91847771D01*
X146341906Y-91841456D01*
X146355812Y-91836480D01*
X146370139Y-91832892D01*
X146384748Y-91830725D01*
X146399500Y-91830000D01*
X147825500Y-91830000D01*
X147840252Y-91830725D01*
G37*
G36*
X147840252Y-92480725D02*
G01*
X147854861Y-92482892D01*
X147869188Y-92486480D01*
X147883094Y-92491456D01*
X147896445Y-92497771D01*
X147909113Y-92505364D01*
X147920976Y-92514162D01*
X147931920Y-92524080D01*
X147941838Y-92535024D01*
X147950636Y-92546887D01*
X147958229Y-92559555D01*
X147964544Y-92572906D01*
X147969520Y-92586812D01*
X147973108Y-92601139D01*
X147975275Y-92615748D01*
X147976000Y-92630500D01*
X147976000Y-92931500D01*
X147975275Y-92946252D01*
X147973108Y-92960861D01*
X147969520Y-92975188D01*
X147964544Y-92989094D01*
X147958229Y-93002445D01*
X147950636Y-93015113D01*
X147941838Y-93026976D01*
X147931920Y-93037920D01*
X147920976Y-93047838D01*
X147909113Y-93056636D01*
X147896445Y-93064229D01*
X147883094Y-93070544D01*
X147869188Y-93075520D01*
X147854861Y-93079108D01*
X147840252Y-93081275D01*
X147825500Y-93082000D01*
X146399500Y-93082000D01*
X146384748Y-93081275D01*
X146370139Y-93079108D01*
X146355812Y-93075520D01*
X146341906Y-93070544D01*
X146328555Y-93064229D01*
X146315887Y-93056636D01*
X146304024Y-93047838D01*
X146293080Y-93037920D01*
X146283162Y-93026976D01*
X146274364Y-93015113D01*
X146266771Y-93002445D01*
X146260456Y-92989094D01*
X146255480Y-92975188D01*
X146251892Y-92960861D01*
X146249725Y-92946252D01*
X146249000Y-92931500D01*
X146249000Y-92630500D01*
X146249725Y-92615748D01*
X146251892Y-92601139D01*
X146255480Y-92586812D01*
X146260456Y-92572906D01*
X146266771Y-92559555D01*
X146274364Y-92546887D01*
X146283162Y-92535024D01*
X146293080Y-92524080D01*
X146304024Y-92514162D01*
X146315887Y-92505364D01*
X146328555Y-92497771D01*
X146341906Y-92491456D01*
X146355812Y-92486480D01*
X146370139Y-92482892D01*
X146384748Y-92480725D01*
X146399500Y-92480000D01*
X147825500Y-92480000D01*
X147840252Y-92480725D01*
G37*
G36*
X147840252Y-93130725D02*
G01*
X147854861Y-93132892D01*
X147869188Y-93136480D01*
X147883094Y-93141456D01*
X147896445Y-93147771D01*
X147909113Y-93155364D01*
X147920976Y-93164162D01*
X147931920Y-93174080D01*
X147941838Y-93185024D01*
X147950636Y-93196887D01*
X147958229Y-93209555D01*
X147964544Y-93222906D01*
X147969520Y-93236812D01*
X147973108Y-93251139D01*
X147975275Y-93265748D01*
X147976000Y-93280500D01*
X147976000Y-93581500D01*
X147975275Y-93596252D01*
X147973108Y-93610861D01*
X147969520Y-93625188D01*
X147964544Y-93639094D01*
X147958229Y-93652445D01*
X147950636Y-93665113D01*
X147941838Y-93676976D01*
X147931920Y-93687920D01*
X147920976Y-93697838D01*
X147909113Y-93706636D01*
X147896445Y-93714229D01*
X147883094Y-93720544D01*
X147869188Y-93725520D01*
X147854861Y-93729108D01*
X147840252Y-93731275D01*
X147825500Y-93732000D01*
X146399500Y-93732000D01*
X146384748Y-93731275D01*
X146370139Y-93729108D01*
X146355812Y-93725520D01*
X146341906Y-93720544D01*
X146328555Y-93714229D01*
X146315887Y-93706636D01*
X146304024Y-93697838D01*
X146293080Y-93687920D01*
X146283162Y-93676976D01*
X146274364Y-93665113D01*
X146266771Y-93652445D01*
X146260456Y-93639094D01*
X146255480Y-93625188D01*
X146251892Y-93610861D01*
X146249725Y-93596252D01*
X146249000Y-93581500D01*
X146249000Y-93280500D01*
X146249725Y-93265748D01*
X146251892Y-93251139D01*
X146255480Y-93236812D01*
X146260456Y-93222906D01*
X146266771Y-93209555D01*
X146274364Y-93196887D01*
X146283162Y-93185024D01*
X146293080Y-93174080D01*
X146304024Y-93164162D01*
X146315887Y-93155364D01*
X146328555Y-93147771D01*
X146341906Y-93141456D01*
X146355812Y-93136480D01*
X146370139Y-93132892D01*
X146384748Y-93130725D01*
X146399500Y-93130000D01*
X147825500Y-93130000D01*
X147840252Y-93130725D01*
G37*
G36*
X152065252Y-93130725D02*
G01*
X152079861Y-93132892D01*
X152094188Y-93136480D01*
X152108094Y-93141456D01*
X152121445Y-93147771D01*
X152134113Y-93155364D01*
X152145976Y-93164162D01*
X152156920Y-93174080D01*
X152166838Y-93185024D01*
X152175636Y-93196887D01*
X152183229Y-93209555D01*
X152189544Y-93222906D01*
X152194520Y-93236812D01*
X152198108Y-93251139D01*
X152200275Y-93265748D01*
X152201000Y-93280500D01*
X152201000Y-93581500D01*
X152200275Y-93596252D01*
X152198108Y-93610861D01*
X152194520Y-93625188D01*
X152189544Y-93639094D01*
X152183229Y-93652445D01*
X152175636Y-93665113D01*
X152166838Y-93676976D01*
X152156920Y-93687920D01*
X152145976Y-93697838D01*
X152134113Y-93706636D01*
X152121445Y-93714229D01*
X152108094Y-93720544D01*
X152094188Y-93725520D01*
X152079861Y-93729108D01*
X152065252Y-93731275D01*
X152050500Y-93732000D01*
X150624500Y-93732000D01*
X150609748Y-93731275D01*
X150595139Y-93729108D01*
X150580812Y-93725520D01*
X150566906Y-93720544D01*
X150553555Y-93714229D01*
X150540887Y-93706636D01*
X150529024Y-93697838D01*
X150518080Y-93687920D01*
X150508162Y-93676976D01*
X150499364Y-93665113D01*
X150491771Y-93652445D01*
X150485456Y-93639094D01*
X150480480Y-93625188D01*
X150476892Y-93610861D01*
X150474725Y-93596252D01*
X150474000Y-93581500D01*
X150474000Y-93280500D01*
X150474725Y-93265748D01*
X150476892Y-93251139D01*
X150480480Y-93236812D01*
X150485456Y-93222906D01*
X150491771Y-93209555D01*
X150499364Y-93196887D01*
X150508162Y-93185024D01*
X150518080Y-93174080D01*
X150529024Y-93164162D01*
X150540887Y-93155364D01*
X150553555Y-93147771D01*
X150566906Y-93141456D01*
X150580812Y-93136480D01*
X150595139Y-93132892D01*
X150609748Y-93130725D01*
X150624500Y-93130000D01*
X152050500Y-93130000D01*
X152065252Y-93130725D01*
G37*
G36*
X152065252Y-92480725D02*
G01*
X152079861Y-92482892D01*
X152094188Y-92486480D01*
X152108094Y-92491456D01*
X152121445Y-92497771D01*
X152134113Y-92505364D01*
X152145976Y-92514162D01*
X152156920Y-92524080D01*
X152166838Y-92535024D01*
X152175636Y-92546887D01*
X152183229Y-92559555D01*
X152189544Y-92572906D01*
X152194520Y-92586812D01*
X152198108Y-92601139D01*
X152200275Y-92615748D01*
X152201000Y-92630500D01*
X152201000Y-92931500D01*
X152200275Y-92946252D01*
X152198108Y-92960861D01*
X152194520Y-92975188D01*
X152189544Y-92989094D01*
X152183229Y-93002445D01*
X152175636Y-93015113D01*
X152166838Y-93026976D01*
X152156920Y-93037920D01*
X152145976Y-93047838D01*
X152134113Y-93056636D01*
X152121445Y-93064229D01*
X152108094Y-93070544D01*
X152094188Y-93075520D01*
X152079861Y-93079108D01*
X152065252Y-93081275D01*
X152050500Y-93082000D01*
X150624500Y-93082000D01*
X150609748Y-93081275D01*
X150595139Y-93079108D01*
X150580812Y-93075520D01*
X150566906Y-93070544D01*
X150553555Y-93064229D01*
X150540887Y-93056636D01*
X150529024Y-93047838D01*
X150518080Y-93037920D01*
X150508162Y-93026976D01*
X150499364Y-93015113D01*
X150491771Y-93002445D01*
X150485456Y-92989094D01*
X150480480Y-92975188D01*
X150476892Y-92960861D01*
X150474725Y-92946252D01*
X150474000Y-92931500D01*
X150474000Y-92630500D01*
X150474725Y-92615748D01*
X150476892Y-92601139D01*
X150480480Y-92586812D01*
X150485456Y-92572906D01*
X150491771Y-92559555D01*
X150499364Y-92546887D01*
X150508162Y-92535024D01*
X150518080Y-92524080D01*
X150529024Y-92514162D01*
X150540887Y-92505364D01*
X150553555Y-92497771D01*
X150566906Y-92491456D01*
X150580812Y-92486480D01*
X150595139Y-92482892D01*
X150609748Y-92480725D01*
X150624500Y-92480000D01*
X152050500Y-92480000D01*
X152065252Y-92480725D01*
G37*
G36*
X152065252Y-91830725D02*
G01*
X152079861Y-91832892D01*
X152094188Y-91836480D01*
X152108094Y-91841456D01*
X152121445Y-91847771D01*
X152134113Y-91855364D01*
X152145976Y-91864162D01*
X152156920Y-91874080D01*
X152166838Y-91885024D01*
X152175636Y-91896887D01*
X152183229Y-91909555D01*
X152189544Y-91922906D01*
X152194520Y-91936812D01*
X152198108Y-91951139D01*
X152200275Y-91965748D01*
X152201000Y-91980500D01*
X152201000Y-92281500D01*
X152200275Y-92296252D01*
X152198108Y-92310861D01*
X152194520Y-92325188D01*
X152189544Y-92339094D01*
X152183229Y-92352445D01*
X152175636Y-92365113D01*
X152166838Y-92376976D01*
X152156920Y-92387920D01*
X152145976Y-92397838D01*
X152134113Y-92406636D01*
X152121445Y-92414229D01*
X152108094Y-92420544D01*
X152094188Y-92425520D01*
X152079861Y-92429108D01*
X152065252Y-92431275D01*
X152050500Y-92432000D01*
X150624500Y-92432000D01*
X150609748Y-92431275D01*
X150595139Y-92429108D01*
X150580812Y-92425520D01*
X150566906Y-92420544D01*
X150553555Y-92414229D01*
X150540887Y-92406636D01*
X150529024Y-92397838D01*
X150518080Y-92387920D01*
X150508162Y-92376976D01*
X150499364Y-92365113D01*
X150491771Y-92352445D01*
X150485456Y-92339094D01*
X150480480Y-92325188D01*
X150476892Y-92310861D01*
X150474725Y-92296252D01*
X150474000Y-92281500D01*
X150474000Y-91980500D01*
X150474725Y-91965748D01*
X150476892Y-91951139D01*
X150480480Y-91936812D01*
X150485456Y-91922906D01*
X150491771Y-91909555D01*
X150499364Y-91896887D01*
X150508162Y-91885024D01*
X150518080Y-91874080D01*
X150529024Y-91864162D01*
X150540887Y-91855364D01*
X150553555Y-91847771D01*
X150566906Y-91841456D01*
X150580812Y-91836480D01*
X150595139Y-91832892D01*
X150609748Y-91830725D01*
X150624500Y-91830000D01*
X152050500Y-91830000D01*
X152065252Y-91830725D01*
G37*
G36*
X152065252Y-91180725D02*
G01*
X152079861Y-91182892D01*
X152094188Y-91186480D01*
X152108094Y-91191456D01*
X152121445Y-91197771D01*
X152134113Y-91205364D01*
X152145976Y-91214162D01*
X152156920Y-91224080D01*
X152166838Y-91235024D01*
X152175636Y-91246887D01*
X152183229Y-91259555D01*
X152189544Y-91272906D01*
X152194520Y-91286812D01*
X152198108Y-91301139D01*
X152200275Y-91315748D01*
X152201000Y-91330500D01*
X152201000Y-91631500D01*
X152200275Y-91646252D01*
X152198108Y-91660861D01*
X152194520Y-91675188D01*
X152189544Y-91689094D01*
X152183229Y-91702445D01*
X152175636Y-91715113D01*
X152166838Y-91726976D01*
X152156920Y-91737920D01*
X152145976Y-91747838D01*
X152134113Y-91756636D01*
X152121445Y-91764229D01*
X152108094Y-91770544D01*
X152094188Y-91775520D01*
X152079861Y-91779108D01*
X152065252Y-91781275D01*
X152050500Y-91782000D01*
X150624500Y-91782000D01*
X150609748Y-91781275D01*
X150595139Y-91779108D01*
X150580812Y-91775520D01*
X150566906Y-91770544D01*
X150553555Y-91764229D01*
X150540887Y-91756636D01*
X150529024Y-91747838D01*
X150518080Y-91737920D01*
X150508162Y-91726976D01*
X150499364Y-91715113D01*
X150491771Y-91702445D01*
X150485456Y-91689094D01*
X150480480Y-91675188D01*
X150476892Y-91660861D01*
X150474725Y-91646252D01*
X150474000Y-91631500D01*
X150474000Y-91330500D01*
X150474725Y-91315748D01*
X150476892Y-91301139D01*
X150480480Y-91286812D01*
X150485456Y-91272906D01*
X150491771Y-91259555D01*
X150499364Y-91246887D01*
X150508162Y-91235024D01*
X150518080Y-91224080D01*
X150529024Y-91214162D01*
X150540887Y-91205364D01*
X150553555Y-91197771D01*
X150566906Y-91191456D01*
X150580812Y-91186480D01*
X150595139Y-91182892D01*
X150609748Y-91180725D01*
X150624500Y-91180000D01*
X152050500Y-91180000D01*
X152065252Y-91180725D01*
G37*
D17*
X144714000Y-96346000D03*
X142814000Y-96346000D03*
X142814000Y-93646000D03*
X143764000Y-93646000D03*
X144714000Y-93646000D03*
D14*
X139065000Y-76327000D03*
X139065000Y-89027000D03*
X141605000Y-81407000D03*
M02*
