G04 #@! TF.GenerationSoftware,KiCad,Pcbnew,5.1.5-52549c5~84~ubuntu18.04.1*
G04 #@! TF.CreationDate,2020-01-22T16:22:53-05:00*
G04 #@! TF.ProjectId,ATA,4154412e-6b69-4636-9164-5f7063625858,1.0*
G04 #@! TF.SameCoordinates,Original*
G04 #@! TF.FileFunction,Paste,Top*
G04 #@! TF.FilePolarity,Positive*
%FSLAX46Y46*%
G04 Gerber Fmt 4.6, Leading zero omitted, Abs format (unit mm)*
G04 Created by KiCad (PCBNEW 5.1.5-52549c5~84~ubuntu18.04.1) date 2020-01-22 16:22:53*
%MOMM*%
%LPD*%
G04 APERTURE LIST*
%ADD10R,0.900000X0.800000*%
%ADD11C,0.100000*%
%ADD12R,1.400000X3.400000*%
%ADD13R,2.300000X5.600000*%
%ADD14R,0.600000X1.050000*%
G04 APERTURE END LIST*
D10*
X140700000Y-95250000D03*
X138700000Y-96200000D03*
X138700000Y-94300000D03*
D11*
G36*
X144295691Y-84120053D02*
G01*
X144316926Y-84123203D01*
X144337750Y-84128419D01*
X144357962Y-84135651D01*
X144377368Y-84144830D01*
X144395781Y-84155866D01*
X144413024Y-84168654D01*
X144428930Y-84183070D01*
X144443346Y-84198976D01*
X144456134Y-84216219D01*
X144467170Y-84234632D01*
X144476349Y-84254038D01*
X144483581Y-84274250D01*
X144488797Y-84295074D01*
X144491947Y-84316309D01*
X144493000Y-84337750D01*
X144493000Y-84775250D01*
X144491947Y-84796691D01*
X144488797Y-84817926D01*
X144483581Y-84838750D01*
X144476349Y-84858962D01*
X144467170Y-84878368D01*
X144456134Y-84896781D01*
X144443346Y-84914024D01*
X144428930Y-84929930D01*
X144413024Y-84944346D01*
X144395781Y-84957134D01*
X144377368Y-84968170D01*
X144357962Y-84977349D01*
X144337750Y-84984581D01*
X144316926Y-84989797D01*
X144295691Y-84992947D01*
X144274250Y-84994000D01*
X143761750Y-84994000D01*
X143740309Y-84992947D01*
X143719074Y-84989797D01*
X143698250Y-84984581D01*
X143678038Y-84977349D01*
X143658632Y-84968170D01*
X143640219Y-84957134D01*
X143622976Y-84944346D01*
X143607070Y-84929930D01*
X143592654Y-84914024D01*
X143579866Y-84896781D01*
X143568830Y-84878368D01*
X143559651Y-84858962D01*
X143552419Y-84838750D01*
X143547203Y-84817926D01*
X143544053Y-84796691D01*
X143543000Y-84775250D01*
X143543000Y-84337750D01*
X143544053Y-84316309D01*
X143547203Y-84295074D01*
X143552419Y-84274250D01*
X143559651Y-84254038D01*
X143568830Y-84234632D01*
X143579866Y-84216219D01*
X143592654Y-84198976D01*
X143607070Y-84183070D01*
X143622976Y-84168654D01*
X143640219Y-84155866D01*
X143658632Y-84144830D01*
X143678038Y-84135651D01*
X143698250Y-84128419D01*
X143719074Y-84123203D01*
X143740309Y-84120053D01*
X143761750Y-84119000D01*
X144274250Y-84119000D01*
X144295691Y-84120053D01*
G37*
G36*
X144295691Y-85695053D02*
G01*
X144316926Y-85698203D01*
X144337750Y-85703419D01*
X144357962Y-85710651D01*
X144377368Y-85719830D01*
X144395781Y-85730866D01*
X144413024Y-85743654D01*
X144428930Y-85758070D01*
X144443346Y-85773976D01*
X144456134Y-85791219D01*
X144467170Y-85809632D01*
X144476349Y-85829038D01*
X144483581Y-85849250D01*
X144488797Y-85870074D01*
X144491947Y-85891309D01*
X144493000Y-85912750D01*
X144493000Y-86350250D01*
X144491947Y-86371691D01*
X144488797Y-86392926D01*
X144483581Y-86413750D01*
X144476349Y-86433962D01*
X144467170Y-86453368D01*
X144456134Y-86471781D01*
X144443346Y-86489024D01*
X144428930Y-86504930D01*
X144413024Y-86519346D01*
X144395781Y-86532134D01*
X144377368Y-86543170D01*
X144357962Y-86552349D01*
X144337750Y-86559581D01*
X144316926Y-86564797D01*
X144295691Y-86567947D01*
X144274250Y-86569000D01*
X143761750Y-86569000D01*
X143740309Y-86567947D01*
X143719074Y-86564797D01*
X143698250Y-86559581D01*
X143678038Y-86552349D01*
X143658632Y-86543170D01*
X143640219Y-86532134D01*
X143622976Y-86519346D01*
X143607070Y-86504930D01*
X143592654Y-86489024D01*
X143579866Y-86471781D01*
X143568830Y-86453368D01*
X143559651Y-86433962D01*
X143552419Y-86413750D01*
X143547203Y-86392926D01*
X143544053Y-86371691D01*
X143543000Y-86350250D01*
X143543000Y-85912750D01*
X143544053Y-85891309D01*
X143547203Y-85870074D01*
X143552419Y-85849250D01*
X143559651Y-85829038D01*
X143568830Y-85809632D01*
X143579866Y-85791219D01*
X143592654Y-85773976D01*
X143607070Y-85758070D01*
X143622976Y-85743654D01*
X143640219Y-85730866D01*
X143658632Y-85719830D01*
X143678038Y-85710651D01*
X143698250Y-85703419D01*
X143719074Y-85698203D01*
X143740309Y-85695053D01*
X143761750Y-85694000D01*
X144274250Y-85694000D01*
X144295691Y-85695053D01*
G37*
G36*
X153312691Y-86076053D02*
G01*
X153333926Y-86079203D01*
X153354750Y-86084419D01*
X153374962Y-86091651D01*
X153394368Y-86100830D01*
X153412781Y-86111866D01*
X153430024Y-86124654D01*
X153445930Y-86139070D01*
X153460346Y-86154976D01*
X153473134Y-86172219D01*
X153484170Y-86190632D01*
X153493349Y-86210038D01*
X153500581Y-86230250D01*
X153505797Y-86251074D01*
X153508947Y-86272309D01*
X153510000Y-86293750D01*
X153510000Y-86731250D01*
X153508947Y-86752691D01*
X153505797Y-86773926D01*
X153500581Y-86794750D01*
X153493349Y-86814962D01*
X153484170Y-86834368D01*
X153473134Y-86852781D01*
X153460346Y-86870024D01*
X153445930Y-86885930D01*
X153430024Y-86900346D01*
X153412781Y-86913134D01*
X153394368Y-86924170D01*
X153374962Y-86933349D01*
X153354750Y-86940581D01*
X153333926Y-86945797D01*
X153312691Y-86948947D01*
X153291250Y-86950000D01*
X152778750Y-86950000D01*
X152757309Y-86948947D01*
X152736074Y-86945797D01*
X152715250Y-86940581D01*
X152695038Y-86933349D01*
X152675632Y-86924170D01*
X152657219Y-86913134D01*
X152639976Y-86900346D01*
X152624070Y-86885930D01*
X152609654Y-86870024D01*
X152596866Y-86852781D01*
X152585830Y-86834368D01*
X152576651Y-86814962D01*
X152569419Y-86794750D01*
X152564203Y-86773926D01*
X152561053Y-86752691D01*
X152560000Y-86731250D01*
X152560000Y-86293750D01*
X152561053Y-86272309D01*
X152564203Y-86251074D01*
X152569419Y-86230250D01*
X152576651Y-86210038D01*
X152585830Y-86190632D01*
X152596866Y-86172219D01*
X152609654Y-86154976D01*
X152624070Y-86139070D01*
X152639976Y-86124654D01*
X152657219Y-86111866D01*
X152675632Y-86100830D01*
X152695038Y-86091651D01*
X152715250Y-86084419D01*
X152736074Y-86079203D01*
X152757309Y-86076053D01*
X152778750Y-86075000D01*
X153291250Y-86075000D01*
X153312691Y-86076053D01*
G37*
G36*
X153312691Y-84501053D02*
G01*
X153333926Y-84504203D01*
X153354750Y-84509419D01*
X153374962Y-84516651D01*
X153394368Y-84525830D01*
X153412781Y-84536866D01*
X153430024Y-84549654D01*
X153445930Y-84564070D01*
X153460346Y-84579976D01*
X153473134Y-84597219D01*
X153484170Y-84615632D01*
X153493349Y-84635038D01*
X153500581Y-84655250D01*
X153505797Y-84676074D01*
X153508947Y-84697309D01*
X153510000Y-84718750D01*
X153510000Y-85156250D01*
X153508947Y-85177691D01*
X153505797Y-85198926D01*
X153500581Y-85219750D01*
X153493349Y-85239962D01*
X153484170Y-85259368D01*
X153473134Y-85277781D01*
X153460346Y-85295024D01*
X153445930Y-85310930D01*
X153430024Y-85325346D01*
X153412781Y-85338134D01*
X153394368Y-85349170D01*
X153374962Y-85358349D01*
X153354750Y-85365581D01*
X153333926Y-85370797D01*
X153312691Y-85373947D01*
X153291250Y-85375000D01*
X152778750Y-85375000D01*
X152757309Y-85373947D01*
X152736074Y-85370797D01*
X152715250Y-85365581D01*
X152695038Y-85358349D01*
X152675632Y-85349170D01*
X152657219Y-85338134D01*
X152639976Y-85325346D01*
X152624070Y-85310930D01*
X152609654Y-85295024D01*
X152596866Y-85277781D01*
X152585830Y-85259368D01*
X152576651Y-85239962D01*
X152569419Y-85219750D01*
X152564203Y-85198926D01*
X152561053Y-85177691D01*
X152560000Y-85156250D01*
X152560000Y-84718750D01*
X152561053Y-84697309D01*
X152564203Y-84676074D01*
X152569419Y-84655250D01*
X152576651Y-84635038D01*
X152585830Y-84615632D01*
X152596866Y-84597219D01*
X152609654Y-84579976D01*
X152624070Y-84564070D01*
X152639976Y-84549654D01*
X152657219Y-84536866D01*
X152675632Y-84525830D01*
X152695038Y-84516651D01*
X152715250Y-84509419D01*
X152736074Y-84504203D01*
X152757309Y-84501053D01*
X152778750Y-84500000D01*
X153291250Y-84500000D01*
X153312691Y-84501053D01*
G37*
G36*
X154709691Y-93315053D02*
G01*
X154730926Y-93318203D01*
X154751750Y-93323419D01*
X154771962Y-93330651D01*
X154791368Y-93339830D01*
X154809781Y-93350866D01*
X154827024Y-93363654D01*
X154842930Y-93378070D01*
X154857346Y-93393976D01*
X154870134Y-93411219D01*
X154881170Y-93429632D01*
X154890349Y-93449038D01*
X154897581Y-93469250D01*
X154902797Y-93490074D01*
X154905947Y-93511309D01*
X154907000Y-93532750D01*
X154907000Y-93970250D01*
X154905947Y-93991691D01*
X154902797Y-94012926D01*
X154897581Y-94033750D01*
X154890349Y-94053962D01*
X154881170Y-94073368D01*
X154870134Y-94091781D01*
X154857346Y-94109024D01*
X154842930Y-94124930D01*
X154827024Y-94139346D01*
X154809781Y-94152134D01*
X154791368Y-94163170D01*
X154771962Y-94172349D01*
X154751750Y-94179581D01*
X154730926Y-94184797D01*
X154709691Y-94187947D01*
X154688250Y-94189000D01*
X154175750Y-94189000D01*
X154154309Y-94187947D01*
X154133074Y-94184797D01*
X154112250Y-94179581D01*
X154092038Y-94172349D01*
X154072632Y-94163170D01*
X154054219Y-94152134D01*
X154036976Y-94139346D01*
X154021070Y-94124930D01*
X154006654Y-94109024D01*
X153993866Y-94091781D01*
X153982830Y-94073368D01*
X153973651Y-94053962D01*
X153966419Y-94033750D01*
X153961203Y-94012926D01*
X153958053Y-93991691D01*
X153957000Y-93970250D01*
X153957000Y-93532750D01*
X153958053Y-93511309D01*
X153961203Y-93490074D01*
X153966419Y-93469250D01*
X153973651Y-93449038D01*
X153982830Y-93429632D01*
X153993866Y-93411219D01*
X154006654Y-93393976D01*
X154021070Y-93378070D01*
X154036976Y-93363654D01*
X154054219Y-93350866D01*
X154072632Y-93339830D01*
X154092038Y-93330651D01*
X154112250Y-93323419D01*
X154133074Y-93318203D01*
X154154309Y-93315053D01*
X154175750Y-93314000D01*
X154688250Y-93314000D01*
X154709691Y-93315053D01*
G37*
G36*
X154709691Y-91740053D02*
G01*
X154730926Y-91743203D01*
X154751750Y-91748419D01*
X154771962Y-91755651D01*
X154791368Y-91764830D01*
X154809781Y-91775866D01*
X154827024Y-91788654D01*
X154842930Y-91803070D01*
X154857346Y-91818976D01*
X154870134Y-91836219D01*
X154881170Y-91854632D01*
X154890349Y-91874038D01*
X154897581Y-91894250D01*
X154902797Y-91915074D01*
X154905947Y-91936309D01*
X154907000Y-91957750D01*
X154907000Y-92395250D01*
X154905947Y-92416691D01*
X154902797Y-92437926D01*
X154897581Y-92458750D01*
X154890349Y-92478962D01*
X154881170Y-92498368D01*
X154870134Y-92516781D01*
X154857346Y-92534024D01*
X154842930Y-92549930D01*
X154827024Y-92564346D01*
X154809781Y-92577134D01*
X154791368Y-92588170D01*
X154771962Y-92597349D01*
X154751750Y-92604581D01*
X154730926Y-92609797D01*
X154709691Y-92612947D01*
X154688250Y-92614000D01*
X154175750Y-92614000D01*
X154154309Y-92612947D01*
X154133074Y-92609797D01*
X154112250Y-92604581D01*
X154092038Y-92597349D01*
X154072632Y-92588170D01*
X154054219Y-92577134D01*
X154036976Y-92564346D01*
X154021070Y-92549930D01*
X154006654Y-92534024D01*
X153993866Y-92516781D01*
X153982830Y-92498368D01*
X153973651Y-92478962D01*
X153966419Y-92458750D01*
X153961203Y-92437926D01*
X153958053Y-92416691D01*
X153957000Y-92395250D01*
X153957000Y-91957750D01*
X153958053Y-91936309D01*
X153961203Y-91915074D01*
X153966419Y-91894250D01*
X153973651Y-91874038D01*
X153982830Y-91854632D01*
X153993866Y-91836219D01*
X154006654Y-91818976D01*
X154021070Y-91803070D01*
X154036976Y-91788654D01*
X154054219Y-91775866D01*
X154072632Y-91764830D01*
X154092038Y-91755651D01*
X154112250Y-91748419D01*
X154133074Y-91743203D01*
X154154309Y-91740053D01*
X154175750Y-91739000D01*
X154688250Y-91739000D01*
X154709691Y-91740053D01*
G37*
G36*
X144295691Y-89759053D02*
G01*
X144316926Y-89762203D01*
X144337750Y-89767419D01*
X144357962Y-89774651D01*
X144377368Y-89783830D01*
X144395781Y-89794866D01*
X144413024Y-89807654D01*
X144428930Y-89822070D01*
X144443346Y-89837976D01*
X144456134Y-89855219D01*
X144467170Y-89873632D01*
X144476349Y-89893038D01*
X144483581Y-89913250D01*
X144488797Y-89934074D01*
X144491947Y-89955309D01*
X144493000Y-89976750D01*
X144493000Y-90414250D01*
X144491947Y-90435691D01*
X144488797Y-90456926D01*
X144483581Y-90477750D01*
X144476349Y-90497962D01*
X144467170Y-90517368D01*
X144456134Y-90535781D01*
X144443346Y-90553024D01*
X144428930Y-90568930D01*
X144413024Y-90583346D01*
X144395781Y-90596134D01*
X144377368Y-90607170D01*
X144357962Y-90616349D01*
X144337750Y-90623581D01*
X144316926Y-90628797D01*
X144295691Y-90631947D01*
X144274250Y-90633000D01*
X143761750Y-90633000D01*
X143740309Y-90631947D01*
X143719074Y-90628797D01*
X143698250Y-90623581D01*
X143678038Y-90616349D01*
X143658632Y-90607170D01*
X143640219Y-90596134D01*
X143622976Y-90583346D01*
X143607070Y-90568930D01*
X143592654Y-90553024D01*
X143579866Y-90535781D01*
X143568830Y-90517368D01*
X143559651Y-90497962D01*
X143552419Y-90477750D01*
X143547203Y-90456926D01*
X143544053Y-90435691D01*
X143543000Y-90414250D01*
X143543000Y-89976750D01*
X143544053Y-89955309D01*
X143547203Y-89934074D01*
X143552419Y-89913250D01*
X143559651Y-89893038D01*
X143568830Y-89873632D01*
X143579866Y-89855219D01*
X143592654Y-89837976D01*
X143607070Y-89822070D01*
X143622976Y-89807654D01*
X143640219Y-89794866D01*
X143658632Y-89783830D01*
X143678038Y-89774651D01*
X143698250Y-89767419D01*
X143719074Y-89762203D01*
X143740309Y-89759053D01*
X143761750Y-89758000D01*
X144274250Y-89758000D01*
X144295691Y-89759053D01*
G37*
G36*
X144295691Y-88184053D02*
G01*
X144316926Y-88187203D01*
X144337750Y-88192419D01*
X144357962Y-88199651D01*
X144377368Y-88208830D01*
X144395781Y-88219866D01*
X144413024Y-88232654D01*
X144428930Y-88247070D01*
X144443346Y-88262976D01*
X144456134Y-88280219D01*
X144467170Y-88298632D01*
X144476349Y-88318038D01*
X144483581Y-88338250D01*
X144488797Y-88359074D01*
X144491947Y-88380309D01*
X144493000Y-88401750D01*
X144493000Y-88839250D01*
X144491947Y-88860691D01*
X144488797Y-88881926D01*
X144483581Y-88902750D01*
X144476349Y-88922962D01*
X144467170Y-88942368D01*
X144456134Y-88960781D01*
X144443346Y-88978024D01*
X144428930Y-88993930D01*
X144413024Y-89008346D01*
X144395781Y-89021134D01*
X144377368Y-89032170D01*
X144357962Y-89041349D01*
X144337750Y-89048581D01*
X144316926Y-89053797D01*
X144295691Y-89056947D01*
X144274250Y-89058000D01*
X143761750Y-89058000D01*
X143740309Y-89056947D01*
X143719074Y-89053797D01*
X143698250Y-89048581D01*
X143678038Y-89041349D01*
X143658632Y-89032170D01*
X143640219Y-89021134D01*
X143622976Y-89008346D01*
X143607070Y-88993930D01*
X143592654Y-88978024D01*
X143579866Y-88960781D01*
X143568830Y-88942368D01*
X143559651Y-88922962D01*
X143552419Y-88902750D01*
X143547203Y-88881926D01*
X143544053Y-88860691D01*
X143543000Y-88839250D01*
X143543000Y-88401750D01*
X143544053Y-88380309D01*
X143547203Y-88359074D01*
X143552419Y-88338250D01*
X143559651Y-88318038D01*
X143568830Y-88298632D01*
X143579866Y-88280219D01*
X143592654Y-88262976D01*
X143607070Y-88247070D01*
X143622976Y-88232654D01*
X143640219Y-88219866D01*
X143658632Y-88208830D01*
X143678038Y-88199651D01*
X143698250Y-88192419D01*
X143719074Y-88187203D01*
X143740309Y-88184053D01*
X143761750Y-88183000D01*
X144274250Y-88183000D01*
X144295691Y-88184053D01*
G37*
D12*
X150495000Y-81915000D03*
X147995000Y-81915000D03*
D13*
X153045000Y-75315000D03*
X145445000Y-75315000D03*
D11*
G36*
X147585691Y-89188053D02*
G01*
X147606926Y-89191203D01*
X147627750Y-89196419D01*
X147647962Y-89203651D01*
X147667368Y-89212830D01*
X147685781Y-89223866D01*
X147703024Y-89236654D01*
X147718930Y-89251070D01*
X147733346Y-89266976D01*
X147746134Y-89284219D01*
X147757170Y-89302632D01*
X147766349Y-89322038D01*
X147773581Y-89342250D01*
X147778797Y-89363074D01*
X147781947Y-89384309D01*
X147783000Y-89405750D01*
X147783000Y-89918250D01*
X147781947Y-89939691D01*
X147778797Y-89960926D01*
X147773581Y-89981750D01*
X147766349Y-90001962D01*
X147757170Y-90021368D01*
X147746134Y-90039781D01*
X147733346Y-90057024D01*
X147718930Y-90072930D01*
X147703024Y-90087346D01*
X147685781Y-90100134D01*
X147667368Y-90111170D01*
X147647962Y-90120349D01*
X147627750Y-90127581D01*
X147606926Y-90132797D01*
X147585691Y-90135947D01*
X147564250Y-90137000D01*
X147126750Y-90137000D01*
X147105309Y-90135947D01*
X147084074Y-90132797D01*
X147063250Y-90127581D01*
X147043038Y-90120349D01*
X147023632Y-90111170D01*
X147005219Y-90100134D01*
X146987976Y-90087346D01*
X146972070Y-90072930D01*
X146957654Y-90057024D01*
X146944866Y-90039781D01*
X146933830Y-90021368D01*
X146924651Y-90001962D01*
X146917419Y-89981750D01*
X146912203Y-89960926D01*
X146909053Y-89939691D01*
X146908000Y-89918250D01*
X146908000Y-89405750D01*
X146909053Y-89384309D01*
X146912203Y-89363074D01*
X146917419Y-89342250D01*
X146924651Y-89322038D01*
X146933830Y-89302632D01*
X146944866Y-89284219D01*
X146957654Y-89266976D01*
X146972070Y-89251070D01*
X146987976Y-89236654D01*
X147005219Y-89223866D01*
X147023632Y-89212830D01*
X147043038Y-89203651D01*
X147063250Y-89196419D01*
X147084074Y-89191203D01*
X147105309Y-89188053D01*
X147126750Y-89187000D01*
X147564250Y-89187000D01*
X147585691Y-89188053D01*
G37*
G36*
X146010691Y-89188053D02*
G01*
X146031926Y-89191203D01*
X146052750Y-89196419D01*
X146072962Y-89203651D01*
X146092368Y-89212830D01*
X146110781Y-89223866D01*
X146128024Y-89236654D01*
X146143930Y-89251070D01*
X146158346Y-89266976D01*
X146171134Y-89284219D01*
X146182170Y-89302632D01*
X146191349Y-89322038D01*
X146198581Y-89342250D01*
X146203797Y-89363074D01*
X146206947Y-89384309D01*
X146208000Y-89405750D01*
X146208000Y-89918250D01*
X146206947Y-89939691D01*
X146203797Y-89960926D01*
X146198581Y-89981750D01*
X146191349Y-90001962D01*
X146182170Y-90021368D01*
X146171134Y-90039781D01*
X146158346Y-90057024D01*
X146143930Y-90072930D01*
X146128024Y-90087346D01*
X146110781Y-90100134D01*
X146092368Y-90111170D01*
X146072962Y-90120349D01*
X146052750Y-90127581D01*
X146031926Y-90132797D01*
X146010691Y-90135947D01*
X145989250Y-90137000D01*
X145551750Y-90137000D01*
X145530309Y-90135947D01*
X145509074Y-90132797D01*
X145488250Y-90127581D01*
X145468038Y-90120349D01*
X145448632Y-90111170D01*
X145430219Y-90100134D01*
X145412976Y-90087346D01*
X145397070Y-90072930D01*
X145382654Y-90057024D01*
X145369866Y-90039781D01*
X145358830Y-90021368D01*
X145349651Y-90001962D01*
X145342419Y-89981750D01*
X145337203Y-89960926D01*
X145334053Y-89939691D01*
X145333000Y-89918250D01*
X145333000Y-89405750D01*
X145334053Y-89384309D01*
X145337203Y-89363074D01*
X145342419Y-89342250D01*
X145349651Y-89322038D01*
X145358830Y-89302632D01*
X145369866Y-89284219D01*
X145382654Y-89266976D01*
X145397070Y-89251070D01*
X145412976Y-89236654D01*
X145430219Y-89223866D01*
X145448632Y-89212830D01*
X145468038Y-89203651D01*
X145488250Y-89196419D01*
X145509074Y-89191203D01*
X145530309Y-89188053D01*
X145551750Y-89187000D01*
X145989250Y-89187000D01*
X146010691Y-89188053D01*
G37*
G36*
X148677691Y-87664053D02*
G01*
X148698926Y-87667203D01*
X148719750Y-87672419D01*
X148739962Y-87679651D01*
X148759368Y-87688830D01*
X148777781Y-87699866D01*
X148795024Y-87712654D01*
X148810930Y-87727070D01*
X148825346Y-87742976D01*
X148838134Y-87760219D01*
X148849170Y-87778632D01*
X148858349Y-87798038D01*
X148865581Y-87818250D01*
X148870797Y-87839074D01*
X148873947Y-87860309D01*
X148875000Y-87881750D01*
X148875000Y-88394250D01*
X148873947Y-88415691D01*
X148870797Y-88436926D01*
X148865581Y-88457750D01*
X148858349Y-88477962D01*
X148849170Y-88497368D01*
X148838134Y-88515781D01*
X148825346Y-88533024D01*
X148810930Y-88548930D01*
X148795024Y-88563346D01*
X148777781Y-88576134D01*
X148759368Y-88587170D01*
X148739962Y-88596349D01*
X148719750Y-88603581D01*
X148698926Y-88608797D01*
X148677691Y-88611947D01*
X148656250Y-88613000D01*
X148218750Y-88613000D01*
X148197309Y-88611947D01*
X148176074Y-88608797D01*
X148155250Y-88603581D01*
X148135038Y-88596349D01*
X148115632Y-88587170D01*
X148097219Y-88576134D01*
X148079976Y-88563346D01*
X148064070Y-88548930D01*
X148049654Y-88533024D01*
X148036866Y-88515781D01*
X148025830Y-88497368D01*
X148016651Y-88477962D01*
X148009419Y-88457750D01*
X148004203Y-88436926D01*
X148001053Y-88415691D01*
X148000000Y-88394250D01*
X148000000Y-87881750D01*
X148001053Y-87860309D01*
X148004203Y-87839074D01*
X148009419Y-87818250D01*
X148016651Y-87798038D01*
X148025830Y-87778632D01*
X148036866Y-87760219D01*
X148049654Y-87742976D01*
X148064070Y-87727070D01*
X148079976Y-87712654D01*
X148097219Y-87699866D01*
X148115632Y-87688830D01*
X148135038Y-87679651D01*
X148155250Y-87672419D01*
X148176074Y-87667203D01*
X148197309Y-87664053D01*
X148218750Y-87663000D01*
X148656250Y-87663000D01*
X148677691Y-87664053D01*
G37*
G36*
X150252691Y-87664053D02*
G01*
X150273926Y-87667203D01*
X150294750Y-87672419D01*
X150314962Y-87679651D01*
X150334368Y-87688830D01*
X150352781Y-87699866D01*
X150370024Y-87712654D01*
X150385930Y-87727070D01*
X150400346Y-87742976D01*
X150413134Y-87760219D01*
X150424170Y-87778632D01*
X150433349Y-87798038D01*
X150440581Y-87818250D01*
X150445797Y-87839074D01*
X150448947Y-87860309D01*
X150450000Y-87881750D01*
X150450000Y-88394250D01*
X150448947Y-88415691D01*
X150445797Y-88436926D01*
X150440581Y-88457750D01*
X150433349Y-88477962D01*
X150424170Y-88497368D01*
X150413134Y-88515781D01*
X150400346Y-88533024D01*
X150385930Y-88548930D01*
X150370024Y-88563346D01*
X150352781Y-88576134D01*
X150334368Y-88587170D01*
X150314962Y-88596349D01*
X150294750Y-88603581D01*
X150273926Y-88608797D01*
X150252691Y-88611947D01*
X150231250Y-88613000D01*
X149793750Y-88613000D01*
X149772309Y-88611947D01*
X149751074Y-88608797D01*
X149730250Y-88603581D01*
X149710038Y-88596349D01*
X149690632Y-88587170D01*
X149672219Y-88576134D01*
X149654976Y-88563346D01*
X149639070Y-88548930D01*
X149624654Y-88533024D01*
X149611866Y-88515781D01*
X149600830Y-88497368D01*
X149591651Y-88477962D01*
X149584419Y-88457750D01*
X149579203Y-88436926D01*
X149576053Y-88415691D01*
X149575000Y-88394250D01*
X149575000Y-87881750D01*
X149576053Y-87860309D01*
X149579203Y-87839074D01*
X149584419Y-87818250D01*
X149591651Y-87798038D01*
X149600830Y-87778632D01*
X149611866Y-87760219D01*
X149624654Y-87742976D01*
X149639070Y-87727070D01*
X149654976Y-87712654D01*
X149672219Y-87699866D01*
X149690632Y-87688830D01*
X149710038Y-87679651D01*
X149730250Y-87672419D01*
X149751074Y-87667203D01*
X149772309Y-87664053D01*
X149793750Y-87663000D01*
X150231250Y-87663000D01*
X150252691Y-87664053D01*
G37*
G36*
X152919691Y-89188053D02*
G01*
X152940926Y-89191203D01*
X152961750Y-89196419D01*
X152981962Y-89203651D01*
X153001368Y-89212830D01*
X153019781Y-89223866D01*
X153037024Y-89236654D01*
X153052930Y-89251070D01*
X153067346Y-89266976D01*
X153080134Y-89284219D01*
X153091170Y-89302632D01*
X153100349Y-89322038D01*
X153107581Y-89342250D01*
X153112797Y-89363074D01*
X153115947Y-89384309D01*
X153117000Y-89405750D01*
X153117000Y-89918250D01*
X153115947Y-89939691D01*
X153112797Y-89960926D01*
X153107581Y-89981750D01*
X153100349Y-90001962D01*
X153091170Y-90021368D01*
X153080134Y-90039781D01*
X153067346Y-90057024D01*
X153052930Y-90072930D01*
X153037024Y-90087346D01*
X153019781Y-90100134D01*
X153001368Y-90111170D01*
X152981962Y-90120349D01*
X152961750Y-90127581D01*
X152940926Y-90132797D01*
X152919691Y-90135947D01*
X152898250Y-90137000D01*
X152460750Y-90137000D01*
X152439309Y-90135947D01*
X152418074Y-90132797D01*
X152397250Y-90127581D01*
X152377038Y-90120349D01*
X152357632Y-90111170D01*
X152339219Y-90100134D01*
X152321976Y-90087346D01*
X152306070Y-90072930D01*
X152291654Y-90057024D01*
X152278866Y-90039781D01*
X152267830Y-90021368D01*
X152258651Y-90001962D01*
X152251419Y-89981750D01*
X152246203Y-89960926D01*
X152243053Y-89939691D01*
X152242000Y-89918250D01*
X152242000Y-89405750D01*
X152243053Y-89384309D01*
X152246203Y-89363074D01*
X152251419Y-89342250D01*
X152258651Y-89322038D01*
X152267830Y-89302632D01*
X152278866Y-89284219D01*
X152291654Y-89266976D01*
X152306070Y-89251070D01*
X152321976Y-89236654D01*
X152339219Y-89223866D01*
X152357632Y-89212830D01*
X152377038Y-89203651D01*
X152397250Y-89196419D01*
X152418074Y-89191203D01*
X152439309Y-89188053D01*
X152460750Y-89187000D01*
X152898250Y-89187000D01*
X152919691Y-89188053D01*
G37*
G36*
X151344691Y-89188053D02*
G01*
X151365926Y-89191203D01*
X151386750Y-89196419D01*
X151406962Y-89203651D01*
X151426368Y-89212830D01*
X151444781Y-89223866D01*
X151462024Y-89236654D01*
X151477930Y-89251070D01*
X151492346Y-89266976D01*
X151505134Y-89284219D01*
X151516170Y-89302632D01*
X151525349Y-89322038D01*
X151532581Y-89342250D01*
X151537797Y-89363074D01*
X151540947Y-89384309D01*
X151542000Y-89405750D01*
X151542000Y-89918250D01*
X151540947Y-89939691D01*
X151537797Y-89960926D01*
X151532581Y-89981750D01*
X151525349Y-90001962D01*
X151516170Y-90021368D01*
X151505134Y-90039781D01*
X151492346Y-90057024D01*
X151477930Y-90072930D01*
X151462024Y-90087346D01*
X151444781Y-90100134D01*
X151426368Y-90111170D01*
X151406962Y-90120349D01*
X151386750Y-90127581D01*
X151365926Y-90132797D01*
X151344691Y-90135947D01*
X151323250Y-90137000D01*
X150885750Y-90137000D01*
X150864309Y-90135947D01*
X150843074Y-90132797D01*
X150822250Y-90127581D01*
X150802038Y-90120349D01*
X150782632Y-90111170D01*
X150764219Y-90100134D01*
X150746976Y-90087346D01*
X150731070Y-90072930D01*
X150716654Y-90057024D01*
X150703866Y-90039781D01*
X150692830Y-90021368D01*
X150683651Y-90001962D01*
X150676419Y-89981750D01*
X150671203Y-89960926D01*
X150668053Y-89939691D01*
X150667000Y-89918250D01*
X150667000Y-89405750D01*
X150668053Y-89384309D01*
X150671203Y-89363074D01*
X150676419Y-89342250D01*
X150683651Y-89322038D01*
X150692830Y-89302632D01*
X150703866Y-89284219D01*
X150716654Y-89266976D01*
X150731070Y-89251070D01*
X150746976Y-89236654D01*
X150764219Y-89223866D01*
X150782632Y-89212830D01*
X150802038Y-89203651D01*
X150822250Y-89196419D01*
X150843074Y-89191203D01*
X150864309Y-89188053D01*
X150885750Y-89187000D01*
X151323250Y-89187000D01*
X151344691Y-89188053D01*
G37*
G36*
X148232691Y-86076053D02*
G01*
X148253926Y-86079203D01*
X148274750Y-86084419D01*
X148294962Y-86091651D01*
X148314368Y-86100830D01*
X148332781Y-86111866D01*
X148350024Y-86124654D01*
X148365930Y-86139070D01*
X148380346Y-86154976D01*
X148393134Y-86172219D01*
X148404170Y-86190632D01*
X148413349Y-86210038D01*
X148420581Y-86230250D01*
X148425797Y-86251074D01*
X148428947Y-86272309D01*
X148430000Y-86293750D01*
X148430000Y-86731250D01*
X148428947Y-86752691D01*
X148425797Y-86773926D01*
X148420581Y-86794750D01*
X148413349Y-86814962D01*
X148404170Y-86834368D01*
X148393134Y-86852781D01*
X148380346Y-86870024D01*
X148365930Y-86885930D01*
X148350024Y-86900346D01*
X148332781Y-86913134D01*
X148314368Y-86924170D01*
X148294962Y-86933349D01*
X148274750Y-86940581D01*
X148253926Y-86945797D01*
X148232691Y-86948947D01*
X148211250Y-86950000D01*
X147698750Y-86950000D01*
X147677309Y-86948947D01*
X147656074Y-86945797D01*
X147635250Y-86940581D01*
X147615038Y-86933349D01*
X147595632Y-86924170D01*
X147577219Y-86913134D01*
X147559976Y-86900346D01*
X147544070Y-86885930D01*
X147529654Y-86870024D01*
X147516866Y-86852781D01*
X147505830Y-86834368D01*
X147496651Y-86814962D01*
X147489419Y-86794750D01*
X147484203Y-86773926D01*
X147481053Y-86752691D01*
X147480000Y-86731250D01*
X147480000Y-86293750D01*
X147481053Y-86272309D01*
X147484203Y-86251074D01*
X147489419Y-86230250D01*
X147496651Y-86210038D01*
X147505830Y-86190632D01*
X147516866Y-86172219D01*
X147529654Y-86154976D01*
X147544070Y-86139070D01*
X147559976Y-86124654D01*
X147577219Y-86111866D01*
X147595632Y-86100830D01*
X147615038Y-86091651D01*
X147635250Y-86084419D01*
X147656074Y-86079203D01*
X147677309Y-86076053D01*
X147698750Y-86075000D01*
X148211250Y-86075000D01*
X148232691Y-86076053D01*
G37*
G36*
X148232691Y-84501053D02*
G01*
X148253926Y-84504203D01*
X148274750Y-84509419D01*
X148294962Y-84516651D01*
X148314368Y-84525830D01*
X148332781Y-84536866D01*
X148350024Y-84549654D01*
X148365930Y-84564070D01*
X148380346Y-84579976D01*
X148393134Y-84597219D01*
X148404170Y-84615632D01*
X148413349Y-84635038D01*
X148420581Y-84655250D01*
X148425797Y-84676074D01*
X148428947Y-84697309D01*
X148430000Y-84718750D01*
X148430000Y-85156250D01*
X148428947Y-85177691D01*
X148425797Y-85198926D01*
X148420581Y-85219750D01*
X148413349Y-85239962D01*
X148404170Y-85259368D01*
X148393134Y-85277781D01*
X148380346Y-85295024D01*
X148365930Y-85310930D01*
X148350024Y-85325346D01*
X148332781Y-85338134D01*
X148314368Y-85349170D01*
X148294962Y-85358349D01*
X148274750Y-85365581D01*
X148253926Y-85370797D01*
X148232691Y-85373947D01*
X148211250Y-85375000D01*
X147698750Y-85375000D01*
X147677309Y-85373947D01*
X147656074Y-85370797D01*
X147635250Y-85365581D01*
X147615038Y-85358349D01*
X147595632Y-85349170D01*
X147577219Y-85338134D01*
X147559976Y-85325346D01*
X147544070Y-85310930D01*
X147529654Y-85295024D01*
X147516866Y-85277781D01*
X147505830Y-85259368D01*
X147496651Y-85239962D01*
X147489419Y-85219750D01*
X147484203Y-85198926D01*
X147481053Y-85177691D01*
X147480000Y-85156250D01*
X147480000Y-84718750D01*
X147481053Y-84697309D01*
X147484203Y-84676074D01*
X147489419Y-84655250D01*
X147496651Y-84635038D01*
X147505830Y-84615632D01*
X147516866Y-84597219D01*
X147529654Y-84579976D01*
X147544070Y-84564070D01*
X147559976Y-84549654D01*
X147577219Y-84536866D01*
X147595632Y-84525830D01*
X147615038Y-84516651D01*
X147635250Y-84509419D01*
X147656074Y-84504203D01*
X147677309Y-84501053D01*
X147698750Y-84500000D01*
X148211250Y-84500000D01*
X148232691Y-84501053D01*
G37*
G36*
X150772691Y-84501053D02*
G01*
X150793926Y-84504203D01*
X150814750Y-84509419D01*
X150834962Y-84516651D01*
X150854368Y-84525830D01*
X150872781Y-84536866D01*
X150890024Y-84549654D01*
X150905930Y-84564070D01*
X150920346Y-84579976D01*
X150933134Y-84597219D01*
X150944170Y-84615632D01*
X150953349Y-84635038D01*
X150960581Y-84655250D01*
X150965797Y-84676074D01*
X150968947Y-84697309D01*
X150970000Y-84718750D01*
X150970000Y-85156250D01*
X150968947Y-85177691D01*
X150965797Y-85198926D01*
X150960581Y-85219750D01*
X150953349Y-85239962D01*
X150944170Y-85259368D01*
X150933134Y-85277781D01*
X150920346Y-85295024D01*
X150905930Y-85310930D01*
X150890024Y-85325346D01*
X150872781Y-85338134D01*
X150854368Y-85349170D01*
X150834962Y-85358349D01*
X150814750Y-85365581D01*
X150793926Y-85370797D01*
X150772691Y-85373947D01*
X150751250Y-85375000D01*
X150238750Y-85375000D01*
X150217309Y-85373947D01*
X150196074Y-85370797D01*
X150175250Y-85365581D01*
X150155038Y-85358349D01*
X150135632Y-85349170D01*
X150117219Y-85338134D01*
X150099976Y-85325346D01*
X150084070Y-85310930D01*
X150069654Y-85295024D01*
X150056866Y-85277781D01*
X150045830Y-85259368D01*
X150036651Y-85239962D01*
X150029419Y-85219750D01*
X150024203Y-85198926D01*
X150021053Y-85177691D01*
X150020000Y-85156250D01*
X150020000Y-84718750D01*
X150021053Y-84697309D01*
X150024203Y-84676074D01*
X150029419Y-84655250D01*
X150036651Y-84635038D01*
X150045830Y-84615632D01*
X150056866Y-84597219D01*
X150069654Y-84579976D01*
X150084070Y-84564070D01*
X150099976Y-84549654D01*
X150117219Y-84536866D01*
X150135632Y-84525830D01*
X150155038Y-84516651D01*
X150175250Y-84509419D01*
X150196074Y-84504203D01*
X150217309Y-84501053D01*
X150238750Y-84500000D01*
X150751250Y-84500000D01*
X150772691Y-84501053D01*
G37*
G36*
X150772691Y-86076053D02*
G01*
X150793926Y-86079203D01*
X150814750Y-86084419D01*
X150834962Y-86091651D01*
X150854368Y-86100830D01*
X150872781Y-86111866D01*
X150890024Y-86124654D01*
X150905930Y-86139070D01*
X150920346Y-86154976D01*
X150933134Y-86172219D01*
X150944170Y-86190632D01*
X150953349Y-86210038D01*
X150960581Y-86230250D01*
X150965797Y-86251074D01*
X150968947Y-86272309D01*
X150970000Y-86293750D01*
X150970000Y-86731250D01*
X150968947Y-86752691D01*
X150965797Y-86773926D01*
X150960581Y-86794750D01*
X150953349Y-86814962D01*
X150944170Y-86834368D01*
X150933134Y-86852781D01*
X150920346Y-86870024D01*
X150905930Y-86885930D01*
X150890024Y-86900346D01*
X150872781Y-86913134D01*
X150854368Y-86924170D01*
X150834962Y-86933349D01*
X150814750Y-86940581D01*
X150793926Y-86945797D01*
X150772691Y-86948947D01*
X150751250Y-86950000D01*
X150238750Y-86950000D01*
X150217309Y-86948947D01*
X150196074Y-86945797D01*
X150175250Y-86940581D01*
X150155038Y-86933349D01*
X150135632Y-86924170D01*
X150117219Y-86913134D01*
X150099976Y-86900346D01*
X150084070Y-86885930D01*
X150069654Y-86870024D01*
X150056866Y-86852781D01*
X150045830Y-86834368D01*
X150036651Y-86814962D01*
X150029419Y-86794750D01*
X150024203Y-86773926D01*
X150021053Y-86752691D01*
X150020000Y-86731250D01*
X150020000Y-86293750D01*
X150021053Y-86272309D01*
X150024203Y-86251074D01*
X150029419Y-86230250D01*
X150036651Y-86210038D01*
X150045830Y-86190632D01*
X150056866Y-86172219D01*
X150069654Y-86154976D01*
X150084070Y-86139070D01*
X150099976Y-86124654D01*
X150117219Y-86111866D01*
X150135632Y-86100830D01*
X150155038Y-86091651D01*
X150175250Y-86084419D01*
X150196074Y-86079203D01*
X150217309Y-86076053D01*
X150238750Y-86075000D01*
X150751250Y-86075000D01*
X150772691Y-86076053D01*
G37*
G36*
X147812252Y-91231602D02*
G01*
X147824386Y-91233402D01*
X147836286Y-91236382D01*
X147847835Y-91240515D01*
X147858925Y-91245760D01*
X147869446Y-91252066D01*
X147879299Y-91259374D01*
X147888388Y-91267612D01*
X147896626Y-91276701D01*
X147903934Y-91286554D01*
X147910240Y-91297075D01*
X147915485Y-91308165D01*
X147919618Y-91319714D01*
X147922598Y-91331614D01*
X147924398Y-91343748D01*
X147925000Y-91356000D01*
X147925000Y-91606000D01*
X147924398Y-91618252D01*
X147922598Y-91630386D01*
X147919618Y-91642286D01*
X147915485Y-91653835D01*
X147910240Y-91664925D01*
X147903934Y-91675446D01*
X147896626Y-91685299D01*
X147888388Y-91694388D01*
X147879299Y-91702626D01*
X147869446Y-91709934D01*
X147858925Y-91716240D01*
X147847835Y-91721485D01*
X147836286Y-91725618D01*
X147824386Y-91728598D01*
X147812252Y-91730398D01*
X147800000Y-91731000D01*
X146425000Y-91731000D01*
X146412748Y-91730398D01*
X146400614Y-91728598D01*
X146388714Y-91725618D01*
X146377165Y-91721485D01*
X146366075Y-91716240D01*
X146355554Y-91709934D01*
X146345701Y-91702626D01*
X146336612Y-91694388D01*
X146328374Y-91685299D01*
X146321066Y-91675446D01*
X146314760Y-91664925D01*
X146309515Y-91653835D01*
X146305382Y-91642286D01*
X146302402Y-91630386D01*
X146300602Y-91618252D01*
X146300000Y-91606000D01*
X146300000Y-91356000D01*
X146300602Y-91343748D01*
X146302402Y-91331614D01*
X146305382Y-91319714D01*
X146309515Y-91308165D01*
X146314760Y-91297075D01*
X146321066Y-91286554D01*
X146328374Y-91276701D01*
X146336612Y-91267612D01*
X146345701Y-91259374D01*
X146355554Y-91252066D01*
X146366075Y-91245760D01*
X146377165Y-91240515D01*
X146388714Y-91236382D01*
X146400614Y-91233402D01*
X146412748Y-91231602D01*
X146425000Y-91231000D01*
X147800000Y-91231000D01*
X147812252Y-91231602D01*
G37*
G36*
X147812252Y-91881602D02*
G01*
X147824386Y-91883402D01*
X147836286Y-91886382D01*
X147847835Y-91890515D01*
X147858925Y-91895760D01*
X147869446Y-91902066D01*
X147879299Y-91909374D01*
X147888388Y-91917612D01*
X147896626Y-91926701D01*
X147903934Y-91936554D01*
X147910240Y-91947075D01*
X147915485Y-91958165D01*
X147919618Y-91969714D01*
X147922598Y-91981614D01*
X147924398Y-91993748D01*
X147925000Y-92006000D01*
X147925000Y-92256000D01*
X147924398Y-92268252D01*
X147922598Y-92280386D01*
X147919618Y-92292286D01*
X147915485Y-92303835D01*
X147910240Y-92314925D01*
X147903934Y-92325446D01*
X147896626Y-92335299D01*
X147888388Y-92344388D01*
X147879299Y-92352626D01*
X147869446Y-92359934D01*
X147858925Y-92366240D01*
X147847835Y-92371485D01*
X147836286Y-92375618D01*
X147824386Y-92378598D01*
X147812252Y-92380398D01*
X147800000Y-92381000D01*
X146425000Y-92381000D01*
X146412748Y-92380398D01*
X146400614Y-92378598D01*
X146388714Y-92375618D01*
X146377165Y-92371485D01*
X146366075Y-92366240D01*
X146355554Y-92359934D01*
X146345701Y-92352626D01*
X146336612Y-92344388D01*
X146328374Y-92335299D01*
X146321066Y-92325446D01*
X146314760Y-92314925D01*
X146309515Y-92303835D01*
X146305382Y-92292286D01*
X146302402Y-92280386D01*
X146300602Y-92268252D01*
X146300000Y-92256000D01*
X146300000Y-92006000D01*
X146300602Y-91993748D01*
X146302402Y-91981614D01*
X146305382Y-91969714D01*
X146309515Y-91958165D01*
X146314760Y-91947075D01*
X146321066Y-91936554D01*
X146328374Y-91926701D01*
X146336612Y-91917612D01*
X146345701Y-91909374D01*
X146355554Y-91902066D01*
X146366075Y-91895760D01*
X146377165Y-91890515D01*
X146388714Y-91886382D01*
X146400614Y-91883402D01*
X146412748Y-91881602D01*
X146425000Y-91881000D01*
X147800000Y-91881000D01*
X147812252Y-91881602D01*
G37*
G36*
X147812252Y-92531602D02*
G01*
X147824386Y-92533402D01*
X147836286Y-92536382D01*
X147847835Y-92540515D01*
X147858925Y-92545760D01*
X147869446Y-92552066D01*
X147879299Y-92559374D01*
X147888388Y-92567612D01*
X147896626Y-92576701D01*
X147903934Y-92586554D01*
X147910240Y-92597075D01*
X147915485Y-92608165D01*
X147919618Y-92619714D01*
X147922598Y-92631614D01*
X147924398Y-92643748D01*
X147925000Y-92656000D01*
X147925000Y-92906000D01*
X147924398Y-92918252D01*
X147922598Y-92930386D01*
X147919618Y-92942286D01*
X147915485Y-92953835D01*
X147910240Y-92964925D01*
X147903934Y-92975446D01*
X147896626Y-92985299D01*
X147888388Y-92994388D01*
X147879299Y-93002626D01*
X147869446Y-93009934D01*
X147858925Y-93016240D01*
X147847835Y-93021485D01*
X147836286Y-93025618D01*
X147824386Y-93028598D01*
X147812252Y-93030398D01*
X147800000Y-93031000D01*
X146425000Y-93031000D01*
X146412748Y-93030398D01*
X146400614Y-93028598D01*
X146388714Y-93025618D01*
X146377165Y-93021485D01*
X146366075Y-93016240D01*
X146355554Y-93009934D01*
X146345701Y-93002626D01*
X146336612Y-92994388D01*
X146328374Y-92985299D01*
X146321066Y-92975446D01*
X146314760Y-92964925D01*
X146309515Y-92953835D01*
X146305382Y-92942286D01*
X146302402Y-92930386D01*
X146300602Y-92918252D01*
X146300000Y-92906000D01*
X146300000Y-92656000D01*
X146300602Y-92643748D01*
X146302402Y-92631614D01*
X146305382Y-92619714D01*
X146309515Y-92608165D01*
X146314760Y-92597075D01*
X146321066Y-92586554D01*
X146328374Y-92576701D01*
X146336612Y-92567612D01*
X146345701Y-92559374D01*
X146355554Y-92552066D01*
X146366075Y-92545760D01*
X146377165Y-92540515D01*
X146388714Y-92536382D01*
X146400614Y-92533402D01*
X146412748Y-92531602D01*
X146425000Y-92531000D01*
X147800000Y-92531000D01*
X147812252Y-92531602D01*
G37*
G36*
X147812252Y-93181602D02*
G01*
X147824386Y-93183402D01*
X147836286Y-93186382D01*
X147847835Y-93190515D01*
X147858925Y-93195760D01*
X147869446Y-93202066D01*
X147879299Y-93209374D01*
X147888388Y-93217612D01*
X147896626Y-93226701D01*
X147903934Y-93236554D01*
X147910240Y-93247075D01*
X147915485Y-93258165D01*
X147919618Y-93269714D01*
X147922598Y-93281614D01*
X147924398Y-93293748D01*
X147925000Y-93306000D01*
X147925000Y-93556000D01*
X147924398Y-93568252D01*
X147922598Y-93580386D01*
X147919618Y-93592286D01*
X147915485Y-93603835D01*
X147910240Y-93614925D01*
X147903934Y-93625446D01*
X147896626Y-93635299D01*
X147888388Y-93644388D01*
X147879299Y-93652626D01*
X147869446Y-93659934D01*
X147858925Y-93666240D01*
X147847835Y-93671485D01*
X147836286Y-93675618D01*
X147824386Y-93678598D01*
X147812252Y-93680398D01*
X147800000Y-93681000D01*
X146425000Y-93681000D01*
X146412748Y-93680398D01*
X146400614Y-93678598D01*
X146388714Y-93675618D01*
X146377165Y-93671485D01*
X146366075Y-93666240D01*
X146355554Y-93659934D01*
X146345701Y-93652626D01*
X146336612Y-93644388D01*
X146328374Y-93635299D01*
X146321066Y-93625446D01*
X146314760Y-93614925D01*
X146309515Y-93603835D01*
X146305382Y-93592286D01*
X146302402Y-93580386D01*
X146300602Y-93568252D01*
X146300000Y-93556000D01*
X146300000Y-93306000D01*
X146300602Y-93293748D01*
X146302402Y-93281614D01*
X146305382Y-93269714D01*
X146309515Y-93258165D01*
X146314760Y-93247075D01*
X146321066Y-93236554D01*
X146328374Y-93226701D01*
X146336612Y-93217612D01*
X146345701Y-93209374D01*
X146355554Y-93202066D01*
X146366075Y-93195760D01*
X146377165Y-93190515D01*
X146388714Y-93186382D01*
X146400614Y-93183402D01*
X146412748Y-93181602D01*
X146425000Y-93181000D01*
X147800000Y-93181000D01*
X147812252Y-93181602D01*
G37*
G36*
X152037252Y-93181602D02*
G01*
X152049386Y-93183402D01*
X152061286Y-93186382D01*
X152072835Y-93190515D01*
X152083925Y-93195760D01*
X152094446Y-93202066D01*
X152104299Y-93209374D01*
X152113388Y-93217612D01*
X152121626Y-93226701D01*
X152128934Y-93236554D01*
X152135240Y-93247075D01*
X152140485Y-93258165D01*
X152144618Y-93269714D01*
X152147598Y-93281614D01*
X152149398Y-93293748D01*
X152150000Y-93306000D01*
X152150000Y-93556000D01*
X152149398Y-93568252D01*
X152147598Y-93580386D01*
X152144618Y-93592286D01*
X152140485Y-93603835D01*
X152135240Y-93614925D01*
X152128934Y-93625446D01*
X152121626Y-93635299D01*
X152113388Y-93644388D01*
X152104299Y-93652626D01*
X152094446Y-93659934D01*
X152083925Y-93666240D01*
X152072835Y-93671485D01*
X152061286Y-93675618D01*
X152049386Y-93678598D01*
X152037252Y-93680398D01*
X152025000Y-93681000D01*
X150650000Y-93681000D01*
X150637748Y-93680398D01*
X150625614Y-93678598D01*
X150613714Y-93675618D01*
X150602165Y-93671485D01*
X150591075Y-93666240D01*
X150580554Y-93659934D01*
X150570701Y-93652626D01*
X150561612Y-93644388D01*
X150553374Y-93635299D01*
X150546066Y-93625446D01*
X150539760Y-93614925D01*
X150534515Y-93603835D01*
X150530382Y-93592286D01*
X150527402Y-93580386D01*
X150525602Y-93568252D01*
X150525000Y-93556000D01*
X150525000Y-93306000D01*
X150525602Y-93293748D01*
X150527402Y-93281614D01*
X150530382Y-93269714D01*
X150534515Y-93258165D01*
X150539760Y-93247075D01*
X150546066Y-93236554D01*
X150553374Y-93226701D01*
X150561612Y-93217612D01*
X150570701Y-93209374D01*
X150580554Y-93202066D01*
X150591075Y-93195760D01*
X150602165Y-93190515D01*
X150613714Y-93186382D01*
X150625614Y-93183402D01*
X150637748Y-93181602D01*
X150650000Y-93181000D01*
X152025000Y-93181000D01*
X152037252Y-93181602D01*
G37*
G36*
X152037252Y-92531602D02*
G01*
X152049386Y-92533402D01*
X152061286Y-92536382D01*
X152072835Y-92540515D01*
X152083925Y-92545760D01*
X152094446Y-92552066D01*
X152104299Y-92559374D01*
X152113388Y-92567612D01*
X152121626Y-92576701D01*
X152128934Y-92586554D01*
X152135240Y-92597075D01*
X152140485Y-92608165D01*
X152144618Y-92619714D01*
X152147598Y-92631614D01*
X152149398Y-92643748D01*
X152150000Y-92656000D01*
X152150000Y-92906000D01*
X152149398Y-92918252D01*
X152147598Y-92930386D01*
X152144618Y-92942286D01*
X152140485Y-92953835D01*
X152135240Y-92964925D01*
X152128934Y-92975446D01*
X152121626Y-92985299D01*
X152113388Y-92994388D01*
X152104299Y-93002626D01*
X152094446Y-93009934D01*
X152083925Y-93016240D01*
X152072835Y-93021485D01*
X152061286Y-93025618D01*
X152049386Y-93028598D01*
X152037252Y-93030398D01*
X152025000Y-93031000D01*
X150650000Y-93031000D01*
X150637748Y-93030398D01*
X150625614Y-93028598D01*
X150613714Y-93025618D01*
X150602165Y-93021485D01*
X150591075Y-93016240D01*
X150580554Y-93009934D01*
X150570701Y-93002626D01*
X150561612Y-92994388D01*
X150553374Y-92985299D01*
X150546066Y-92975446D01*
X150539760Y-92964925D01*
X150534515Y-92953835D01*
X150530382Y-92942286D01*
X150527402Y-92930386D01*
X150525602Y-92918252D01*
X150525000Y-92906000D01*
X150525000Y-92656000D01*
X150525602Y-92643748D01*
X150527402Y-92631614D01*
X150530382Y-92619714D01*
X150534515Y-92608165D01*
X150539760Y-92597075D01*
X150546066Y-92586554D01*
X150553374Y-92576701D01*
X150561612Y-92567612D01*
X150570701Y-92559374D01*
X150580554Y-92552066D01*
X150591075Y-92545760D01*
X150602165Y-92540515D01*
X150613714Y-92536382D01*
X150625614Y-92533402D01*
X150637748Y-92531602D01*
X150650000Y-92531000D01*
X152025000Y-92531000D01*
X152037252Y-92531602D01*
G37*
G36*
X152037252Y-91881602D02*
G01*
X152049386Y-91883402D01*
X152061286Y-91886382D01*
X152072835Y-91890515D01*
X152083925Y-91895760D01*
X152094446Y-91902066D01*
X152104299Y-91909374D01*
X152113388Y-91917612D01*
X152121626Y-91926701D01*
X152128934Y-91936554D01*
X152135240Y-91947075D01*
X152140485Y-91958165D01*
X152144618Y-91969714D01*
X152147598Y-91981614D01*
X152149398Y-91993748D01*
X152150000Y-92006000D01*
X152150000Y-92256000D01*
X152149398Y-92268252D01*
X152147598Y-92280386D01*
X152144618Y-92292286D01*
X152140485Y-92303835D01*
X152135240Y-92314925D01*
X152128934Y-92325446D01*
X152121626Y-92335299D01*
X152113388Y-92344388D01*
X152104299Y-92352626D01*
X152094446Y-92359934D01*
X152083925Y-92366240D01*
X152072835Y-92371485D01*
X152061286Y-92375618D01*
X152049386Y-92378598D01*
X152037252Y-92380398D01*
X152025000Y-92381000D01*
X150650000Y-92381000D01*
X150637748Y-92380398D01*
X150625614Y-92378598D01*
X150613714Y-92375618D01*
X150602165Y-92371485D01*
X150591075Y-92366240D01*
X150580554Y-92359934D01*
X150570701Y-92352626D01*
X150561612Y-92344388D01*
X150553374Y-92335299D01*
X150546066Y-92325446D01*
X150539760Y-92314925D01*
X150534515Y-92303835D01*
X150530382Y-92292286D01*
X150527402Y-92280386D01*
X150525602Y-92268252D01*
X150525000Y-92256000D01*
X150525000Y-92006000D01*
X150525602Y-91993748D01*
X150527402Y-91981614D01*
X150530382Y-91969714D01*
X150534515Y-91958165D01*
X150539760Y-91947075D01*
X150546066Y-91936554D01*
X150553374Y-91926701D01*
X150561612Y-91917612D01*
X150570701Y-91909374D01*
X150580554Y-91902066D01*
X150591075Y-91895760D01*
X150602165Y-91890515D01*
X150613714Y-91886382D01*
X150625614Y-91883402D01*
X150637748Y-91881602D01*
X150650000Y-91881000D01*
X152025000Y-91881000D01*
X152037252Y-91881602D01*
G37*
G36*
X152037252Y-91231602D02*
G01*
X152049386Y-91233402D01*
X152061286Y-91236382D01*
X152072835Y-91240515D01*
X152083925Y-91245760D01*
X152094446Y-91252066D01*
X152104299Y-91259374D01*
X152113388Y-91267612D01*
X152121626Y-91276701D01*
X152128934Y-91286554D01*
X152135240Y-91297075D01*
X152140485Y-91308165D01*
X152144618Y-91319714D01*
X152147598Y-91331614D01*
X152149398Y-91343748D01*
X152150000Y-91356000D01*
X152150000Y-91606000D01*
X152149398Y-91618252D01*
X152147598Y-91630386D01*
X152144618Y-91642286D01*
X152140485Y-91653835D01*
X152135240Y-91664925D01*
X152128934Y-91675446D01*
X152121626Y-91685299D01*
X152113388Y-91694388D01*
X152104299Y-91702626D01*
X152094446Y-91709934D01*
X152083925Y-91716240D01*
X152072835Y-91721485D01*
X152061286Y-91725618D01*
X152049386Y-91728598D01*
X152037252Y-91730398D01*
X152025000Y-91731000D01*
X150650000Y-91731000D01*
X150637748Y-91730398D01*
X150625614Y-91728598D01*
X150613714Y-91725618D01*
X150602165Y-91721485D01*
X150591075Y-91716240D01*
X150580554Y-91709934D01*
X150570701Y-91702626D01*
X150561612Y-91694388D01*
X150553374Y-91685299D01*
X150546066Y-91675446D01*
X150539760Y-91664925D01*
X150534515Y-91653835D01*
X150530382Y-91642286D01*
X150527402Y-91630386D01*
X150525602Y-91618252D01*
X150525000Y-91606000D01*
X150525000Y-91356000D01*
X150525602Y-91343748D01*
X150527402Y-91331614D01*
X150530382Y-91319714D01*
X150534515Y-91308165D01*
X150539760Y-91297075D01*
X150546066Y-91286554D01*
X150553374Y-91276701D01*
X150561612Y-91267612D01*
X150570701Y-91259374D01*
X150580554Y-91252066D01*
X150591075Y-91245760D01*
X150602165Y-91240515D01*
X150613714Y-91236382D01*
X150625614Y-91233402D01*
X150637748Y-91231602D01*
X150650000Y-91231000D01*
X152025000Y-91231000D01*
X152037252Y-91231602D01*
G37*
D14*
X144714000Y-96346000D03*
X142814000Y-96346000D03*
X142814000Y-93646000D03*
X143764000Y-93646000D03*
X144714000Y-93646000D03*
M02*
