G04 #@! TF.GenerationSoftware,KiCad,Pcbnew,5.1.5-52549c5~84~ubuntu18.04.1*
G04 #@! TF.CreationDate,2020-01-22T16:22:53-05:00*
G04 #@! TF.ProjectId,ATA,4154412e-6b69-4636-9164-5f7063625858,1.0*
G04 #@! TF.SameCoordinates,Original*
G04 #@! TF.FileFunction,Soldermask,Bot*
G04 #@! TF.FilePolarity,Negative*
%FSLAX46Y46*%
G04 Gerber Fmt 4.6, Leading zero omitted, Abs format (unit mm)*
G04 Created by KiCad (PCBNEW 5.1.5-52549c5~84~ubuntu18.04.1) date 2020-01-22 16:22:53*
%MOMM*%
%LPD*%
G04 APERTURE LIST*
%ADD10C,0.100000*%
G04 APERTURE END LIST*
D10*
G36*
X137287142Y-101003242D02*
G01*
X137435101Y-101064529D01*
X137568255Y-101153499D01*
X137681501Y-101266745D01*
X137770471Y-101399899D01*
X137831758Y-101547858D01*
X137863000Y-101704925D01*
X137863000Y-101865075D01*
X137831758Y-102022142D01*
X137770471Y-102170101D01*
X137681501Y-102303255D01*
X137568255Y-102416501D01*
X137435101Y-102505471D01*
X137287142Y-102566758D01*
X137130075Y-102598000D01*
X136969925Y-102598000D01*
X136812858Y-102566758D01*
X136664899Y-102505471D01*
X136531745Y-102416501D01*
X136418499Y-102303255D01*
X136329529Y-102170101D01*
X136268242Y-102022142D01*
X136237000Y-101865075D01*
X136237000Y-101704925D01*
X136268242Y-101547858D01*
X136329529Y-101399899D01*
X136418499Y-101266745D01*
X136531745Y-101153499D01*
X136664899Y-101064529D01*
X136812858Y-101003242D01*
X136969925Y-100972000D01*
X137130075Y-100972000D01*
X137287142Y-101003242D01*
G37*
G36*
X155287142Y-101003242D02*
G01*
X155435101Y-101064529D01*
X155568255Y-101153499D01*
X155681501Y-101266745D01*
X155770471Y-101399899D01*
X155831758Y-101547858D01*
X155863000Y-101704925D01*
X155863000Y-101865075D01*
X155831758Y-102022142D01*
X155770471Y-102170101D01*
X155681501Y-102303255D01*
X155568255Y-102416501D01*
X155435101Y-102505471D01*
X155287142Y-102566758D01*
X155130075Y-102598000D01*
X154969925Y-102598000D01*
X154812858Y-102566758D01*
X154664899Y-102505471D01*
X154531745Y-102416501D01*
X154418499Y-102303255D01*
X154329529Y-102170101D01*
X154268242Y-102022142D01*
X154237000Y-101865075D01*
X154237000Y-101704925D01*
X154268242Y-101547858D01*
X154329529Y-101399899D01*
X154418499Y-101266745D01*
X154531745Y-101153499D01*
X154664899Y-101064529D01*
X154812858Y-101003242D01*
X154969925Y-100972000D01*
X155130075Y-100972000D01*
X155287142Y-101003242D01*
G37*
G36*
X149287142Y-98603242D02*
G01*
X149435101Y-98664529D01*
X149568255Y-98753499D01*
X149681501Y-98866745D01*
X149770471Y-98999899D01*
X149831758Y-99147858D01*
X149863000Y-99304925D01*
X149863000Y-99465075D01*
X149831758Y-99622142D01*
X149770471Y-99770101D01*
X149681501Y-99903255D01*
X149568255Y-100016501D01*
X149435101Y-100105471D01*
X149287142Y-100166758D01*
X149130075Y-100198000D01*
X148969925Y-100198000D01*
X148812858Y-100166758D01*
X148664899Y-100105471D01*
X148531745Y-100016501D01*
X148418499Y-99903255D01*
X148329529Y-99770101D01*
X148268242Y-99622142D01*
X148237000Y-99465075D01*
X148237000Y-99304925D01*
X148268242Y-99147858D01*
X148329529Y-98999899D01*
X148418499Y-98866745D01*
X148531745Y-98753499D01*
X148664899Y-98664529D01*
X148812858Y-98603242D01*
X148969925Y-98572000D01*
X149130075Y-98572000D01*
X149287142Y-98603242D01*
G37*
G36*
X145287142Y-98603242D02*
G01*
X145435101Y-98664529D01*
X145568255Y-98753499D01*
X145681501Y-98866745D01*
X145770471Y-98999899D01*
X145831758Y-99147858D01*
X145863000Y-99304925D01*
X145863000Y-99465075D01*
X145831758Y-99622142D01*
X145770471Y-99770101D01*
X145681501Y-99903255D01*
X145568255Y-100016501D01*
X145435101Y-100105471D01*
X145287142Y-100166758D01*
X145130075Y-100198000D01*
X144969925Y-100198000D01*
X144812858Y-100166758D01*
X144664899Y-100105471D01*
X144531745Y-100016501D01*
X144418499Y-99903255D01*
X144329529Y-99770101D01*
X144268242Y-99622142D01*
X144237000Y-99465075D01*
X144237000Y-99304925D01*
X144268242Y-99147858D01*
X144329529Y-98999899D01*
X144418499Y-98866745D01*
X144531745Y-98753499D01*
X144664899Y-98664529D01*
X144812858Y-98603242D01*
X144969925Y-98572000D01*
X145130075Y-98572000D01*
X145287142Y-98603242D01*
G37*
G36*
X147287142Y-98603242D02*
G01*
X147435101Y-98664529D01*
X147568255Y-98753499D01*
X147681501Y-98866745D01*
X147770471Y-98999899D01*
X147831758Y-99147858D01*
X147863000Y-99304925D01*
X147863000Y-99465075D01*
X147831758Y-99622142D01*
X147770471Y-99770101D01*
X147681501Y-99903255D01*
X147568255Y-100016501D01*
X147435101Y-100105471D01*
X147287142Y-100166758D01*
X147130075Y-100198000D01*
X146969925Y-100198000D01*
X146812858Y-100166758D01*
X146664899Y-100105471D01*
X146531745Y-100016501D01*
X146418499Y-99903255D01*
X146329529Y-99770101D01*
X146268242Y-99622142D01*
X146237000Y-99465075D01*
X146237000Y-99304925D01*
X146268242Y-99147858D01*
X146329529Y-98999899D01*
X146418499Y-98866745D01*
X146531745Y-98753499D01*
X146664899Y-98664529D01*
X146812858Y-98603242D01*
X146969925Y-98572000D01*
X147130075Y-98572000D01*
X147287142Y-98603242D01*
G37*
G36*
X143287142Y-98603242D02*
G01*
X143435101Y-98664529D01*
X143568255Y-98753499D01*
X143681501Y-98866745D01*
X143770471Y-98999899D01*
X143831758Y-99147858D01*
X143863000Y-99304925D01*
X143863000Y-99465075D01*
X143831758Y-99622142D01*
X143770471Y-99770101D01*
X143681501Y-99903255D01*
X143568255Y-100016501D01*
X143435101Y-100105471D01*
X143287142Y-100166758D01*
X143130075Y-100198000D01*
X142969925Y-100198000D01*
X142812858Y-100166758D01*
X142664899Y-100105471D01*
X142531745Y-100016501D01*
X142418499Y-99903255D01*
X142329529Y-99770101D01*
X142268242Y-99622142D01*
X142237000Y-99465075D01*
X142237000Y-99304925D01*
X142268242Y-99147858D01*
X142329529Y-98999899D01*
X142418499Y-98866745D01*
X142531745Y-98753499D01*
X142664899Y-98664529D01*
X142812858Y-98603242D01*
X142969925Y-98572000D01*
X143130075Y-98572000D01*
X143287142Y-98603242D01*
G37*
G36*
X141287142Y-98603242D02*
G01*
X141435101Y-98664529D01*
X141568255Y-98753499D01*
X141681501Y-98866745D01*
X141770471Y-98999899D01*
X141831758Y-99147858D01*
X141863000Y-99304925D01*
X141863000Y-99465075D01*
X141831758Y-99622142D01*
X141770471Y-99770101D01*
X141681501Y-99903255D01*
X141568255Y-100016501D01*
X141435101Y-100105471D01*
X141287142Y-100166758D01*
X141130075Y-100198000D01*
X140969925Y-100198000D01*
X140812858Y-100166758D01*
X140664899Y-100105471D01*
X140531745Y-100016501D01*
X140418499Y-99903255D01*
X140329529Y-99770101D01*
X140268242Y-99622142D01*
X140237000Y-99465075D01*
X140237000Y-99304925D01*
X140268242Y-99147858D01*
X140329529Y-98999899D01*
X140418499Y-98866745D01*
X140531745Y-98753499D01*
X140664899Y-98664529D01*
X140812858Y-98603242D01*
X140969925Y-98572000D01*
X141130075Y-98572000D01*
X141287142Y-98603242D01*
G37*
G36*
X151287142Y-98603242D02*
G01*
X151435101Y-98664529D01*
X151568255Y-98753499D01*
X151681501Y-98866745D01*
X151770471Y-98999899D01*
X151831758Y-99147858D01*
X151863000Y-99304925D01*
X151863000Y-99465075D01*
X151831758Y-99622142D01*
X151770471Y-99770101D01*
X151681501Y-99903255D01*
X151568255Y-100016501D01*
X151435101Y-100105471D01*
X151287142Y-100166758D01*
X151130075Y-100198000D01*
X150969925Y-100198000D01*
X150812858Y-100166758D01*
X150664899Y-100105471D01*
X150531745Y-100016501D01*
X150418499Y-99903255D01*
X150329529Y-99770101D01*
X150268242Y-99622142D01*
X150237000Y-99465075D01*
X150237000Y-99304925D01*
X150268242Y-99147858D01*
X150329529Y-98999899D01*
X150418499Y-98866745D01*
X150531745Y-98753499D01*
X150664899Y-98664529D01*
X150812858Y-98603242D01*
X150969925Y-98572000D01*
X151130075Y-98572000D01*
X151287142Y-98603242D01*
G37*
G36*
X139287142Y-98603242D02*
G01*
X139435101Y-98664529D01*
X139568255Y-98753499D01*
X139681501Y-98866745D01*
X139770471Y-98999899D01*
X139831758Y-99147858D01*
X139863000Y-99304925D01*
X139863000Y-99465075D01*
X139831758Y-99622142D01*
X139770471Y-99770101D01*
X139681501Y-99903255D01*
X139568255Y-100016501D01*
X139435101Y-100105471D01*
X139287142Y-100166758D01*
X139130075Y-100198000D01*
X138969925Y-100198000D01*
X138812858Y-100166758D01*
X138664899Y-100105471D01*
X138531745Y-100016501D01*
X138418499Y-99903255D01*
X138329529Y-99770101D01*
X138268242Y-99622142D01*
X138237000Y-99465075D01*
X138237000Y-99304925D01*
X138268242Y-99147858D01*
X138329529Y-98999899D01*
X138418499Y-98866745D01*
X138531745Y-98753499D01*
X138664899Y-98664529D01*
X138812858Y-98603242D01*
X138969925Y-98572000D01*
X139130075Y-98572000D01*
X139287142Y-98603242D01*
G37*
G36*
X153287142Y-98603242D02*
G01*
X153435101Y-98664529D01*
X153568255Y-98753499D01*
X153681501Y-98866745D01*
X153770471Y-98999899D01*
X153831758Y-99147858D01*
X153863000Y-99304925D01*
X153863000Y-99465075D01*
X153831758Y-99622142D01*
X153770471Y-99770101D01*
X153681501Y-99903255D01*
X153568255Y-100016501D01*
X153435101Y-100105471D01*
X153287142Y-100166758D01*
X153130075Y-100198000D01*
X152969925Y-100198000D01*
X152812858Y-100166758D01*
X152664899Y-100105471D01*
X152531745Y-100016501D01*
X152418499Y-99903255D01*
X152329529Y-99770101D01*
X152268242Y-99622142D01*
X152237000Y-99465075D01*
X152237000Y-99304925D01*
X152268242Y-99147858D01*
X152329529Y-98999899D01*
X152418499Y-98866745D01*
X152531745Y-98753499D01*
X152664899Y-98664529D01*
X152812858Y-98603242D01*
X152969925Y-98572000D01*
X153130075Y-98572000D01*
X153287142Y-98603242D01*
G37*
G36*
X139302142Y-88245242D02*
G01*
X139450101Y-88306529D01*
X139583255Y-88395499D01*
X139696501Y-88508745D01*
X139785471Y-88641899D01*
X139846758Y-88789858D01*
X139878000Y-88946925D01*
X139878000Y-89107075D01*
X139846758Y-89264142D01*
X139785471Y-89412101D01*
X139696501Y-89545255D01*
X139583255Y-89658501D01*
X139450101Y-89747471D01*
X139302142Y-89808758D01*
X139145075Y-89840000D01*
X138984925Y-89840000D01*
X138827858Y-89808758D01*
X138679899Y-89747471D01*
X138546745Y-89658501D01*
X138433499Y-89545255D01*
X138344529Y-89412101D01*
X138283242Y-89264142D01*
X138252000Y-89107075D01*
X138252000Y-88946925D01*
X138283242Y-88789858D01*
X138344529Y-88641899D01*
X138433499Y-88508745D01*
X138546745Y-88395499D01*
X138679899Y-88306529D01*
X138827858Y-88245242D01*
X138984925Y-88214000D01*
X139145075Y-88214000D01*
X139302142Y-88245242D01*
G37*
G36*
X141842142Y-80625242D02*
G01*
X141990101Y-80686529D01*
X142123255Y-80775499D01*
X142236501Y-80888745D01*
X142325471Y-81021899D01*
X142386758Y-81169858D01*
X142418000Y-81326925D01*
X142418000Y-81487075D01*
X142386758Y-81644142D01*
X142325471Y-81792101D01*
X142236501Y-81925255D01*
X142123255Y-82038501D01*
X141990101Y-82127471D01*
X141842142Y-82188758D01*
X141685075Y-82220000D01*
X141524925Y-82220000D01*
X141367858Y-82188758D01*
X141219899Y-82127471D01*
X141086745Y-82038501D01*
X140973499Y-81925255D01*
X140884529Y-81792101D01*
X140823242Y-81644142D01*
X140792000Y-81487075D01*
X140792000Y-81326925D01*
X140823242Y-81169858D01*
X140884529Y-81021899D01*
X140973499Y-80888745D01*
X141086745Y-80775499D01*
X141219899Y-80686529D01*
X141367858Y-80625242D01*
X141524925Y-80594000D01*
X141685075Y-80594000D01*
X141842142Y-80625242D01*
G37*
G36*
X139302142Y-75545242D02*
G01*
X139450101Y-75606529D01*
X139583255Y-75695499D01*
X139696501Y-75808745D01*
X139785471Y-75941899D01*
X139846758Y-76089858D01*
X139878000Y-76246925D01*
X139878000Y-76407075D01*
X139846758Y-76564142D01*
X139785471Y-76712101D01*
X139696501Y-76845255D01*
X139583255Y-76958501D01*
X139450101Y-77047471D01*
X139302142Y-77108758D01*
X139145075Y-77140000D01*
X138984925Y-77140000D01*
X138827858Y-77108758D01*
X138679899Y-77047471D01*
X138546745Y-76958501D01*
X138433499Y-76845255D01*
X138344529Y-76712101D01*
X138283242Y-76564142D01*
X138252000Y-76407075D01*
X138252000Y-76246925D01*
X138283242Y-76089858D01*
X138344529Y-75941899D01*
X138433499Y-75808745D01*
X138546745Y-75695499D01*
X138679899Y-75606529D01*
X138827858Y-75545242D01*
X138984925Y-75514000D01*
X139145075Y-75514000D01*
X139302142Y-75545242D01*
G37*
M02*
