G04 #@! TF.GenerationSoftware,KiCad,Pcbnew,5.1.5-52549c5~84~ubuntu18.04.1*
G04 #@! TF.CreationDate,2020-01-22T16:22:53-05:00*
G04 #@! TF.ProjectId,ATA,4154412e-6b69-4636-9164-5f7063625858,1.0*
G04 #@! TF.SameCoordinates,Original*
G04 #@! TF.FileFunction,Copper,L1,Top*
G04 #@! TF.FilePolarity,Positive*
%FSLAX46Y46*%
G04 Gerber Fmt 4.6, Leading zero omitted, Abs format (unit mm)*
G04 Created by KiCad (PCBNEW 5.1.5-52549c5~84~ubuntu18.04.1) date 2020-01-22 16:22:53*
%MOMM*%
%LPD*%
G04 APERTURE LIST*
%ADD10R,0.900000X0.800000*%
%ADD11C,0.100000*%
%ADD12C,1.524000*%
%ADD13R,1.400000X3.400000*%
%ADD14R,2.300000X5.600000*%
%ADD15R,0.600000X1.050000*%
%ADD16C,0.800000*%
%ADD17C,0.300000*%
%ADD18C,0.254000*%
G04 APERTURE END LIST*
D10*
X140700000Y-95250000D03*
X138700000Y-96200000D03*
X138700000Y-94300000D03*
G04 #@! TA.AperFunction,SMDPad,CuDef*
D11*
G36*
X144295691Y-84120053D02*
G01*
X144316926Y-84123203D01*
X144337750Y-84128419D01*
X144357962Y-84135651D01*
X144377368Y-84144830D01*
X144395781Y-84155866D01*
X144413024Y-84168654D01*
X144428930Y-84183070D01*
X144443346Y-84198976D01*
X144456134Y-84216219D01*
X144467170Y-84234632D01*
X144476349Y-84254038D01*
X144483581Y-84274250D01*
X144488797Y-84295074D01*
X144491947Y-84316309D01*
X144493000Y-84337750D01*
X144493000Y-84775250D01*
X144491947Y-84796691D01*
X144488797Y-84817926D01*
X144483581Y-84838750D01*
X144476349Y-84858962D01*
X144467170Y-84878368D01*
X144456134Y-84896781D01*
X144443346Y-84914024D01*
X144428930Y-84929930D01*
X144413024Y-84944346D01*
X144395781Y-84957134D01*
X144377368Y-84968170D01*
X144357962Y-84977349D01*
X144337750Y-84984581D01*
X144316926Y-84989797D01*
X144295691Y-84992947D01*
X144274250Y-84994000D01*
X143761750Y-84994000D01*
X143740309Y-84992947D01*
X143719074Y-84989797D01*
X143698250Y-84984581D01*
X143678038Y-84977349D01*
X143658632Y-84968170D01*
X143640219Y-84957134D01*
X143622976Y-84944346D01*
X143607070Y-84929930D01*
X143592654Y-84914024D01*
X143579866Y-84896781D01*
X143568830Y-84878368D01*
X143559651Y-84858962D01*
X143552419Y-84838750D01*
X143547203Y-84817926D01*
X143544053Y-84796691D01*
X143543000Y-84775250D01*
X143543000Y-84337750D01*
X143544053Y-84316309D01*
X143547203Y-84295074D01*
X143552419Y-84274250D01*
X143559651Y-84254038D01*
X143568830Y-84234632D01*
X143579866Y-84216219D01*
X143592654Y-84198976D01*
X143607070Y-84183070D01*
X143622976Y-84168654D01*
X143640219Y-84155866D01*
X143658632Y-84144830D01*
X143678038Y-84135651D01*
X143698250Y-84128419D01*
X143719074Y-84123203D01*
X143740309Y-84120053D01*
X143761750Y-84119000D01*
X144274250Y-84119000D01*
X144295691Y-84120053D01*
G37*
G04 #@! TD.AperFunction*
G04 #@! TA.AperFunction,SMDPad,CuDef*
G36*
X144295691Y-85695053D02*
G01*
X144316926Y-85698203D01*
X144337750Y-85703419D01*
X144357962Y-85710651D01*
X144377368Y-85719830D01*
X144395781Y-85730866D01*
X144413024Y-85743654D01*
X144428930Y-85758070D01*
X144443346Y-85773976D01*
X144456134Y-85791219D01*
X144467170Y-85809632D01*
X144476349Y-85829038D01*
X144483581Y-85849250D01*
X144488797Y-85870074D01*
X144491947Y-85891309D01*
X144493000Y-85912750D01*
X144493000Y-86350250D01*
X144491947Y-86371691D01*
X144488797Y-86392926D01*
X144483581Y-86413750D01*
X144476349Y-86433962D01*
X144467170Y-86453368D01*
X144456134Y-86471781D01*
X144443346Y-86489024D01*
X144428930Y-86504930D01*
X144413024Y-86519346D01*
X144395781Y-86532134D01*
X144377368Y-86543170D01*
X144357962Y-86552349D01*
X144337750Y-86559581D01*
X144316926Y-86564797D01*
X144295691Y-86567947D01*
X144274250Y-86569000D01*
X143761750Y-86569000D01*
X143740309Y-86567947D01*
X143719074Y-86564797D01*
X143698250Y-86559581D01*
X143678038Y-86552349D01*
X143658632Y-86543170D01*
X143640219Y-86532134D01*
X143622976Y-86519346D01*
X143607070Y-86504930D01*
X143592654Y-86489024D01*
X143579866Y-86471781D01*
X143568830Y-86453368D01*
X143559651Y-86433962D01*
X143552419Y-86413750D01*
X143547203Y-86392926D01*
X143544053Y-86371691D01*
X143543000Y-86350250D01*
X143543000Y-85912750D01*
X143544053Y-85891309D01*
X143547203Y-85870074D01*
X143552419Y-85849250D01*
X143559651Y-85829038D01*
X143568830Y-85809632D01*
X143579866Y-85791219D01*
X143592654Y-85773976D01*
X143607070Y-85758070D01*
X143622976Y-85743654D01*
X143640219Y-85730866D01*
X143658632Y-85719830D01*
X143678038Y-85710651D01*
X143698250Y-85703419D01*
X143719074Y-85698203D01*
X143740309Y-85695053D01*
X143761750Y-85694000D01*
X144274250Y-85694000D01*
X144295691Y-85695053D01*
G37*
G04 #@! TD.AperFunction*
G04 #@! TA.AperFunction,SMDPad,CuDef*
G36*
X153312691Y-86076053D02*
G01*
X153333926Y-86079203D01*
X153354750Y-86084419D01*
X153374962Y-86091651D01*
X153394368Y-86100830D01*
X153412781Y-86111866D01*
X153430024Y-86124654D01*
X153445930Y-86139070D01*
X153460346Y-86154976D01*
X153473134Y-86172219D01*
X153484170Y-86190632D01*
X153493349Y-86210038D01*
X153500581Y-86230250D01*
X153505797Y-86251074D01*
X153508947Y-86272309D01*
X153510000Y-86293750D01*
X153510000Y-86731250D01*
X153508947Y-86752691D01*
X153505797Y-86773926D01*
X153500581Y-86794750D01*
X153493349Y-86814962D01*
X153484170Y-86834368D01*
X153473134Y-86852781D01*
X153460346Y-86870024D01*
X153445930Y-86885930D01*
X153430024Y-86900346D01*
X153412781Y-86913134D01*
X153394368Y-86924170D01*
X153374962Y-86933349D01*
X153354750Y-86940581D01*
X153333926Y-86945797D01*
X153312691Y-86948947D01*
X153291250Y-86950000D01*
X152778750Y-86950000D01*
X152757309Y-86948947D01*
X152736074Y-86945797D01*
X152715250Y-86940581D01*
X152695038Y-86933349D01*
X152675632Y-86924170D01*
X152657219Y-86913134D01*
X152639976Y-86900346D01*
X152624070Y-86885930D01*
X152609654Y-86870024D01*
X152596866Y-86852781D01*
X152585830Y-86834368D01*
X152576651Y-86814962D01*
X152569419Y-86794750D01*
X152564203Y-86773926D01*
X152561053Y-86752691D01*
X152560000Y-86731250D01*
X152560000Y-86293750D01*
X152561053Y-86272309D01*
X152564203Y-86251074D01*
X152569419Y-86230250D01*
X152576651Y-86210038D01*
X152585830Y-86190632D01*
X152596866Y-86172219D01*
X152609654Y-86154976D01*
X152624070Y-86139070D01*
X152639976Y-86124654D01*
X152657219Y-86111866D01*
X152675632Y-86100830D01*
X152695038Y-86091651D01*
X152715250Y-86084419D01*
X152736074Y-86079203D01*
X152757309Y-86076053D01*
X152778750Y-86075000D01*
X153291250Y-86075000D01*
X153312691Y-86076053D01*
G37*
G04 #@! TD.AperFunction*
G04 #@! TA.AperFunction,SMDPad,CuDef*
G36*
X153312691Y-84501053D02*
G01*
X153333926Y-84504203D01*
X153354750Y-84509419D01*
X153374962Y-84516651D01*
X153394368Y-84525830D01*
X153412781Y-84536866D01*
X153430024Y-84549654D01*
X153445930Y-84564070D01*
X153460346Y-84579976D01*
X153473134Y-84597219D01*
X153484170Y-84615632D01*
X153493349Y-84635038D01*
X153500581Y-84655250D01*
X153505797Y-84676074D01*
X153508947Y-84697309D01*
X153510000Y-84718750D01*
X153510000Y-85156250D01*
X153508947Y-85177691D01*
X153505797Y-85198926D01*
X153500581Y-85219750D01*
X153493349Y-85239962D01*
X153484170Y-85259368D01*
X153473134Y-85277781D01*
X153460346Y-85295024D01*
X153445930Y-85310930D01*
X153430024Y-85325346D01*
X153412781Y-85338134D01*
X153394368Y-85349170D01*
X153374962Y-85358349D01*
X153354750Y-85365581D01*
X153333926Y-85370797D01*
X153312691Y-85373947D01*
X153291250Y-85375000D01*
X152778750Y-85375000D01*
X152757309Y-85373947D01*
X152736074Y-85370797D01*
X152715250Y-85365581D01*
X152695038Y-85358349D01*
X152675632Y-85349170D01*
X152657219Y-85338134D01*
X152639976Y-85325346D01*
X152624070Y-85310930D01*
X152609654Y-85295024D01*
X152596866Y-85277781D01*
X152585830Y-85259368D01*
X152576651Y-85239962D01*
X152569419Y-85219750D01*
X152564203Y-85198926D01*
X152561053Y-85177691D01*
X152560000Y-85156250D01*
X152560000Y-84718750D01*
X152561053Y-84697309D01*
X152564203Y-84676074D01*
X152569419Y-84655250D01*
X152576651Y-84635038D01*
X152585830Y-84615632D01*
X152596866Y-84597219D01*
X152609654Y-84579976D01*
X152624070Y-84564070D01*
X152639976Y-84549654D01*
X152657219Y-84536866D01*
X152675632Y-84525830D01*
X152695038Y-84516651D01*
X152715250Y-84509419D01*
X152736074Y-84504203D01*
X152757309Y-84501053D01*
X152778750Y-84500000D01*
X153291250Y-84500000D01*
X153312691Y-84501053D01*
G37*
G04 #@! TD.AperFunction*
G04 #@! TA.AperFunction,SMDPad,CuDef*
G36*
X154709691Y-93315053D02*
G01*
X154730926Y-93318203D01*
X154751750Y-93323419D01*
X154771962Y-93330651D01*
X154791368Y-93339830D01*
X154809781Y-93350866D01*
X154827024Y-93363654D01*
X154842930Y-93378070D01*
X154857346Y-93393976D01*
X154870134Y-93411219D01*
X154881170Y-93429632D01*
X154890349Y-93449038D01*
X154897581Y-93469250D01*
X154902797Y-93490074D01*
X154905947Y-93511309D01*
X154907000Y-93532750D01*
X154907000Y-93970250D01*
X154905947Y-93991691D01*
X154902797Y-94012926D01*
X154897581Y-94033750D01*
X154890349Y-94053962D01*
X154881170Y-94073368D01*
X154870134Y-94091781D01*
X154857346Y-94109024D01*
X154842930Y-94124930D01*
X154827024Y-94139346D01*
X154809781Y-94152134D01*
X154791368Y-94163170D01*
X154771962Y-94172349D01*
X154751750Y-94179581D01*
X154730926Y-94184797D01*
X154709691Y-94187947D01*
X154688250Y-94189000D01*
X154175750Y-94189000D01*
X154154309Y-94187947D01*
X154133074Y-94184797D01*
X154112250Y-94179581D01*
X154092038Y-94172349D01*
X154072632Y-94163170D01*
X154054219Y-94152134D01*
X154036976Y-94139346D01*
X154021070Y-94124930D01*
X154006654Y-94109024D01*
X153993866Y-94091781D01*
X153982830Y-94073368D01*
X153973651Y-94053962D01*
X153966419Y-94033750D01*
X153961203Y-94012926D01*
X153958053Y-93991691D01*
X153957000Y-93970250D01*
X153957000Y-93532750D01*
X153958053Y-93511309D01*
X153961203Y-93490074D01*
X153966419Y-93469250D01*
X153973651Y-93449038D01*
X153982830Y-93429632D01*
X153993866Y-93411219D01*
X154006654Y-93393976D01*
X154021070Y-93378070D01*
X154036976Y-93363654D01*
X154054219Y-93350866D01*
X154072632Y-93339830D01*
X154092038Y-93330651D01*
X154112250Y-93323419D01*
X154133074Y-93318203D01*
X154154309Y-93315053D01*
X154175750Y-93314000D01*
X154688250Y-93314000D01*
X154709691Y-93315053D01*
G37*
G04 #@! TD.AperFunction*
G04 #@! TA.AperFunction,SMDPad,CuDef*
G36*
X154709691Y-91740053D02*
G01*
X154730926Y-91743203D01*
X154751750Y-91748419D01*
X154771962Y-91755651D01*
X154791368Y-91764830D01*
X154809781Y-91775866D01*
X154827024Y-91788654D01*
X154842930Y-91803070D01*
X154857346Y-91818976D01*
X154870134Y-91836219D01*
X154881170Y-91854632D01*
X154890349Y-91874038D01*
X154897581Y-91894250D01*
X154902797Y-91915074D01*
X154905947Y-91936309D01*
X154907000Y-91957750D01*
X154907000Y-92395250D01*
X154905947Y-92416691D01*
X154902797Y-92437926D01*
X154897581Y-92458750D01*
X154890349Y-92478962D01*
X154881170Y-92498368D01*
X154870134Y-92516781D01*
X154857346Y-92534024D01*
X154842930Y-92549930D01*
X154827024Y-92564346D01*
X154809781Y-92577134D01*
X154791368Y-92588170D01*
X154771962Y-92597349D01*
X154751750Y-92604581D01*
X154730926Y-92609797D01*
X154709691Y-92612947D01*
X154688250Y-92614000D01*
X154175750Y-92614000D01*
X154154309Y-92612947D01*
X154133074Y-92609797D01*
X154112250Y-92604581D01*
X154092038Y-92597349D01*
X154072632Y-92588170D01*
X154054219Y-92577134D01*
X154036976Y-92564346D01*
X154021070Y-92549930D01*
X154006654Y-92534024D01*
X153993866Y-92516781D01*
X153982830Y-92498368D01*
X153973651Y-92478962D01*
X153966419Y-92458750D01*
X153961203Y-92437926D01*
X153958053Y-92416691D01*
X153957000Y-92395250D01*
X153957000Y-91957750D01*
X153958053Y-91936309D01*
X153961203Y-91915074D01*
X153966419Y-91894250D01*
X153973651Y-91874038D01*
X153982830Y-91854632D01*
X153993866Y-91836219D01*
X154006654Y-91818976D01*
X154021070Y-91803070D01*
X154036976Y-91788654D01*
X154054219Y-91775866D01*
X154072632Y-91764830D01*
X154092038Y-91755651D01*
X154112250Y-91748419D01*
X154133074Y-91743203D01*
X154154309Y-91740053D01*
X154175750Y-91739000D01*
X154688250Y-91739000D01*
X154709691Y-91740053D01*
G37*
G04 #@! TD.AperFunction*
G04 #@! TA.AperFunction,SMDPad,CuDef*
G36*
X144295691Y-89759053D02*
G01*
X144316926Y-89762203D01*
X144337750Y-89767419D01*
X144357962Y-89774651D01*
X144377368Y-89783830D01*
X144395781Y-89794866D01*
X144413024Y-89807654D01*
X144428930Y-89822070D01*
X144443346Y-89837976D01*
X144456134Y-89855219D01*
X144467170Y-89873632D01*
X144476349Y-89893038D01*
X144483581Y-89913250D01*
X144488797Y-89934074D01*
X144491947Y-89955309D01*
X144493000Y-89976750D01*
X144493000Y-90414250D01*
X144491947Y-90435691D01*
X144488797Y-90456926D01*
X144483581Y-90477750D01*
X144476349Y-90497962D01*
X144467170Y-90517368D01*
X144456134Y-90535781D01*
X144443346Y-90553024D01*
X144428930Y-90568930D01*
X144413024Y-90583346D01*
X144395781Y-90596134D01*
X144377368Y-90607170D01*
X144357962Y-90616349D01*
X144337750Y-90623581D01*
X144316926Y-90628797D01*
X144295691Y-90631947D01*
X144274250Y-90633000D01*
X143761750Y-90633000D01*
X143740309Y-90631947D01*
X143719074Y-90628797D01*
X143698250Y-90623581D01*
X143678038Y-90616349D01*
X143658632Y-90607170D01*
X143640219Y-90596134D01*
X143622976Y-90583346D01*
X143607070Y-90568930D01*
X143592654Y-90553024D01*
X143579866Y-90535781D01*
X143568830Y-90517368D01*
X143559651Y-90497962D01*
X143552419Y-90477750D01*
X143547203Y-90456926D01*
X143544053Y-90435691D01*
X143543000Y-90414250D01*
X143543000Y-89976750D01*
X143544053Y-89955309D01*
X143547203Y-89934074D01*
X143552419Y-89913250D01*
X143559651Y-89893038D01*
X143568830Y-89873632D01*
X143579866Y-89855219D01*
X143592654Y-89837976D01*
X143607070Y-89822070D01*
X143622976Y-89807654D01*
X143640219Y-89794866D01*
X143658632Y-89783830D01*
X143678038Y-89774651D01*
X143698250Y-89767419D01*
X143719074Y-89762203D01*
X143740309Y-89759053D01*
X143761750Y-89758000D01*
X144274250Y-89758000D01*
X144295691Y-89759053D01*
G37*
G04 #@! TD.AperFunction*
G04 #@! TA.AperFunction,SMDPad,CuDef*
G36*
X144295691Y-88184053D02*
G01*
X144316926Y-88187203D01*
X144337750Y-88192419D01*
X144357962Y-88199651D01*
X144377368Y-88208830D01*
X144395781Y-88219866D01*
X144413024Y-88232654D01*
X144428930Y-88247070D01*
X144443346Y-88262976D01*
X144456134Y-88280219D01*
X144467170Y-88298632D01*
X144476349Y-88318038D01*
X144483581Y-88338250D01*
X144488797Y-88359074D01*
X144491947Y-88380309D01*
X144493000Y-88401750D01*
X144493000Y-88839250D01*
X144491947Y-88860691D01*
X144488797Y-88881926D01*
X144483581Y-88902750D01*
X144476349Y-88922962D01*
X144467170Y-88942368D01*
X144456134Y-88960781D01*
X144443346Y-88978024D01*
X144428930Y-88993930D01*
X144413024Y-89008346D01*
X144395781Y-89021134D01*
X144377368Y-89032170D01*
X144357962Y-89041349D01*
X144337750Y-89048581D01*
X144316926Y-89053797D01*
X144295691Y-89056947D01*
X144274250Y-89058000D01*
X143761750Y-89058000D01*
X143740309Y-89056947D01*
X143719074Y-89053797D01*
X143698250Y-89048581D01*
X143678038Y-89041349D01*
X143658632Y-89032170D01*
X143640219Y-89021134D01*
X143622976Y-89008346D01*
X143607070Y-88993930D01*
X143592654Y-88978024D01*
X143579866Y-88960781D01*
X143568830Y-88942368D01*
X143559651Y-88922962D01*
X143552419Y-88902750D01*
X143547203Y-88881926D01*
X143544053Y-88860691D01*
X143543000Y-88839250D01*
X143543000Y-88401750D01*
X143544053Y-88380309D01*
X143547203Y-88359074D01*
X143552419Y-88338250D01*
X143559651Y-88318038D01*
X143568830Y-88298632D01*
X143579866Y-88280219D01*
X143592654Y-88262976D01*
X143607070Y-88247070D01*
X143622976Y-88232654D01*
X143640219Y-88219866D01*
X143658632Y-88208830D01*
X143678038Y-88199651D01*
X143698250Y-88192419D01*
X143719074Y-88187203D01*
X143740309Y-88184053D01*
X143761750Y-88183000D01*
X144274250Y-88183000D01*
X144295691Y-88184053D01*
G37*
G04 #@! TD.AperFunction*
D12*
X155050000Y-101785000D03*
X137050000Y-101785000D03*
X153050000Y-99385000D03*
X139050000Y-99385000D03*
X151050000Y-99385000D03*
X141050000Y-99385000D03*
X149050000Y-99385000D03*
X143050000Y-99385000D03*
X147050000Y-99385000D03*
X145050000Y-99385000D03*
D13*
X150495000Y-81915000D03*
X147995000Y-81915000D03*
D14*
X153045000Y-75315000D03*
X145445000Y-75315000D03*
G04 #@! TA.AperFunction,SMDPad,CuDef*
D11*
G36*
X147585691Y-89188053D02*
G01*
X147606926Y-89191203D01*
X147627750Y-89196419D01*
X147647962Y-89203651D01*
X147667368Y-89212830D01*
X147685781Y-89223866D01*
X147703024Y-89236654D01*
X147718930Y-89251070D01*
X147733346Y-89266976D01*
X147746134Y-89284219D01*
X147757170Y-89302632D01*
X147766349Y-89322038D01*
X147773581Y-89342250D01*
X147778797Y-89363074D01*
X147781947Y-89384309D01*
X147783000Y-89405750D01*
X147783000Y-89918250D01*
X147781947Y-89939691D01*
X147778797Y-89960926D01*
X147773581Y-89981750D01*
X147766349Y-90001962D01*
X147757170Y-90021368D01*
X147746134Y-90039781D01*
X147733346Y-90057024D01*
X147718930Y-90072930D01*
X147703024Y-90087346D01*
X147685781Y-90100134D01*
X147667368Y-90111170D01*
X147647962Y-90120349D01*
X147627750Y-90127581D01*
X147606926Y-90132797D01*
X147585691Y-90135947D01*
X147564250Y-90137000D01*
X147126750Y-90137000D01*
X147105309Y-90135947D01*
X147084074Y-90132797D01*
X147063250Y-90127581D01*
X147043038Y-90120349D01*
X147023632Y-90111170D01*
X147005219Y-90100134D01*
X146987976Y-90087346D01*
X146972070Y-90072930D01*
X146957654Y-90057024D01*
X146944866Y-90039781D01*
X146933830Y-90021368D01*
X146924651Y-90001962D01*
X146917419Y-89981750D01*
X146912203Y-89960926D01*
X146909053Y-89939691D01*
X146908000Y-89918250D01*
X146908000Y-89405750D01*
X146909053Y-89384309D01*
X146912203Y-89363074D01*
X146917419Y-89342250D01*
X146924651Y-89322038D01*
X146933830Y-89302632D01*
X146944866Y-89284219D01*
X146957654Y-89266976D01*
X146972070Y-89251070D01*
X146987976Y-89236654D01*
X147005219Y-89223866D01*
X147023632Y-89212830D01*
X147043038Y-89203651D01*
X147063250Y-89196419D01*
X147084074Y-89191203D01*
X147105309Y-89188053D01*
X147126750Y-89187000D01*
X147564250Y-89187000D01*
X147585691Y-89188053D01*
G37*
G04 #@! TD.AperFunction*
G04 #@! TA.AperFunction,SMDPad,CuDef*
G36*
X146010691Y-89188053D02*
G01*
X146031926Y-89191203D01*
X146052750Y-89196419D01*
X146072962Y-89203651D01*
X146092368Y-89212830D01*
X146110781Y-89223866D01*
X146128024Y-89236654D01*
X146143930Y-89251070D01*
X146158346Y-89266976D01*
X146171134Y-89284219D01*
X146182170Y-89302632D01*
X146191349Y-89322038D01*
X146198581Y-89342250D01*
X146203797Y-89363074D01*
X146206947Y-89384309D01*
X146208000Y-89405750D01*
X146208000Y-89918250D01*
X146206947Y-89939691D01*
X146203797Y-89960926D01*
X146198581Y-89981750D01*
X146191349Y-90001962D01*
X146182170Y-90021368D01*
X146171134Y-90039781D01*
X146158346Y-90057024D01*
X146143930Y-90072930D01*
X146128024Y-90087346D01*
X146110781Y-90100134D01*
X146092368Y-90111170D01*
X146072962Y-90120349D01*
X146052750Y-90127581D01*
X146031926Y-90132797D01*
X146010691Y-90135947D01*
X145989250Y-90137000D01*
X145551750Y-90137000D01*
X145530309Y-90135947D01*
X145509074Y-90132797D01*
X145488250Y-90127581D01*
X145468038Y-90120349D01*
X145448632Y-90111170D01*
X145430219Y-90100134D01*
X145412976Y-90087346D01*
X145397070Y-90072930D01*
X145382654Y-90057024D01*
X145369866Y-90039781D01*
X145358830Y-90021368D01*
X145349651Y-90001962D01*
X145342419Y-89981750D01*
X145337203Y-89960926D01*
X145334053Y-89939691D01*
X145333000Y-89918250D01*
X145333000Y-89405750D01*
X145334053Y-89384309D01*
X145337203Y-89363074D01*
X145342419Y-89342250D01*
X145349651Y-89322038D01*
X145358830Y-89302632D01*
X145369866Y-89284219D01*
X145382654Y-89266976D01*
X145397070Y-89251070D01*
X145412976Y-89236654D01*
X145430219Y-89223866D01*
X145448632Y-89212830D01*
X145468038Y-89203651D01*
X145488250Y-89196419D01*
X145509074Y-89191203D01*
X145530309Y-89188053D01*
X145551750Y-89187000D01*
X145989250Y-89187000D01*
X146010691Y-89188053D01*
G37*
G04 #@! TD.AperFunction*
G04 #@! TA.AperFunction,SMDPad,CuDef*
G36*
X148677691Y-87664053D02*
G01*
X148698926Y-87667203D01*
X148719750Y-87672419D01*
X148739962Y-87679651D01*
X148759368Y-87688830D01*
X148777781Y-87699866D01*
X148795024Y-87712654D01*
X148810930Y-87727070D01*
X148825346Y-87742976D01*
X148838134Y-87760219D01*
X148849170Y-87778632D01*
X148858349Y-87798038D01*
X148865581Y-87818250D01*
X148870797Y-87839074D01*
X148873947Y-87860309D01*
X148875000Y-87881750D01*
X148875000Y-88394250D01*
X148873947Y-88415691D01*
X148870797Y-88436926D01*
X148865581Y-88457750D01*
X148858349Y-88477962D01*
X148849170Y-88497368D01*
X148838134Y-88515781D01*
X148825346Y-88533024D01*
X148810930Y-88548930D01*
X148795024Y-88563346D01*
X148777781Y-88576134D01*
X148759368Y-88587170D01*
X148739962Y-88596349D01*
X148719750Y-88603581D01*
X148698926Y-88608797D01*
X148677691Y-88611947D01*
X148656250Y-88613000D01*
X148218750Y-88613000D01*
X148197309Y-88611947D01*
X148176074Y-88608797D01*
X148155250Y-88603581D01*
X148135038Y-88596349D01*
X148115632Y-88587170D01*
X148097219Y-88576134D01*
X148079976Y-88563346D01*
X148064070Y-88548930D01*
X148049654Y-88533024D01*
X148036866Y-88515781D01*
X148025830Y-88497368D01*
X148016651Y-88477962D01*
X148009419Y-88457750D01*
X148004203Y-88436926D01*
X148001053Y-88415691D01*
X148000000Y-88394250D01*
X148000000Y-87881750D01*
X148001053Y-87860309D01*
X148004203Y-87839074D01*
X148009419Y-87818250D01*
X148016651Y-87798038D01*
X148025830Y-87778632D01*
X148036866Y-87760219D01*
X148049654Y-87742976D01*
X148064070Y-87727070D01*
X148079976Y-87712654D01*
X148097219Y-87699866D01*
X148115632Y-87688830D01*
X148135038Y-87679651D01*
X148155250Y-87672419D01*
X148176074Y-87667203D01*
X148197309Y-87664053D01*
X148218750Y-87663000D01*
X148656250Y-87663000D01*
X148677691Y-87664053D01*
G37*
G04 #@! TD.AperFunction*
G04 #@! TA.AperFunction,SMDPad,CuDef*
G36*
X150252691Y-87664053D02*
G01*
X150273926Y-87667203D01*
X150294750Y-87672419D01*
X150314962Y-87679651D01*
X150334368Y-87688830D01*
X150352781Y-87699866D01*
X150370024Y-87712654D01*
X150385930Y-87727070D01*
X150400346Y-87742976D01*
X150413134Y-87760219D01*
X150424170Y-87778632D01*
X150433349Y-87798038D01*
X150440581Y-87818250D01*
X150445797Y-87839074D01*
X150448947Y-87860309D01*
X150450000Y-87881750D01*
X150450000Y-88394250D01*
X150448947Y-88415691D01*
X150445797Y-88436926D01*
X150440581Y-88457750D01*
X150433349Y-88477962D01*
X150424170Y-88497368D01*
X150413134Y-88515781D01*
X150400346Y-88533024D01*
X150385930Y-88548930D01*
X150370024Y-88563346D01*
X150352781Y-88576134D01*
X150334368Y-88587170D01*
X150314962Y-88596349D01*
X150294750Y-88603581D01*
X150273926Y-88608797D01*
X150252691Y-88611947D01*
X150231250Y-88613000D01*
X149793750Y-88613000D01*
X149772309Y-88611947D01*
X149751074Y-88608797D01*
X149730250Y-88603581D01*
X149710038Y-88596349D01*
X149690632Y-88587170D01*
X149672219Y-88576134D01*
X149654976Y-88563346D01*
X149639070Y-88548930D01*
X149624654Y-88533024D01*
X149611866Y-88515781D01*
X149600830Y-88497368D01*
X149591651Y-88477962D01*
X149584419Y-88457750D01*
X149579203Y-88436926D01*
X149576053Y-88415691D01*
X149575000Y-88394250D01*
X149575000Y-87881750D01*
X149576053Y-87860309D01*
X149579203Y-87839074D01*
X149584419Y-87818250D01*
X149591651Y-87798038D01*
X149600830Y-87778632D01*
X149611866Y-87760219D01*
X149624654Y-87742976D01*
X149639070Y-87727070D01*
X149654976Y-87712654D01*
X149672219Y-87699866D01*
X149690632Y-87688830D01*
X149710038Y-87679651D01*
X149730250Y-87672419D01*
X149751074Y-87667203D01*
X149772309Y-87664053D01*
X149793750Y-87663000D01*
X150231250Y-87663000D01*
X150252691Y-87664053D01*
G37*
G04 #@! TD.AperFunction*
G04 #@! TA.AperFunction,SMDPad,CuDef*
G36*
X152919691Y-89188053D02*
G01*
X152940926Y-89191203D01*
X152961750Y-89196419D01*
X152981962Y-89203651D01*
X153001368Y-89212830D01*
X153019781Y-89223866D01*
X153037024Y-89236654D01*
X153052930Y-89251070D01*
X153067346Y-89266976D01*
X153080134Y-89284219D01*
X153091170Y-89302632D01*
X153100349Y-89322038D01*
X153107581Y-89342250D01*
X153112797Y-89363074D01*
X153115947Y-89384309D01*
X153117000Y-89405750D01*
X153117000Y-89918250D01*
X153115947Y-89939691D01*
X153112797Y-89960926D01*
X153107581Y-89981750D01*
X153100349Y-90001962D01*
X153091170Y-90021368D01*
X153080134Y-90039781D01*
X153067346Y-90057024D01*
X153052930Y-90072930D01*
X153037024Y-90087346D01*
X153019781Y-90100134D01*
X153001368Y-90111170D01*
X152981962Y-90120349D01*
X152961750Y-90127581D01*
X152940926Y-90132797D01*
X152919691Y-90135947D01*
X152898250Y-90137000D01*
X152460750Y-90137000D01*
X152439309Y-90135947D01*
X152418074Y-90132797D01*
X152397250Y-90127581D01*
X152377038Y-90120349D01*
X152357632Y-90111170D01*
X152339219Y-90100134D01*
X152321976Y-90087346D01*
X152306070Y-90072930D01*
X152291654Y-90057024D01*
X152278866Y-90039781D01*
X152267830Y-90021368D01*
X152258651Y-90001962D01*
X152251419Y-89981750D01*
X152246203Y-89960926D01*
X152243053Y-89939691D01*
X152242000Y-89918250D01*
X152242000Y-89405750D01*
X152243053Y-89384309D01*
X152246203Y-89363074D01*
X152251419Y-89342250D01*
X152258651Y-89322038D01*
X152267830Y-89302632D01*
X152278866Y-89284219D01*
X152291654Y-89266976D01*
X152306070Y-89251070D01*
X152321976Y-89236654D01*
X152339219Y-89223866D01*
X152357632Y-89212830D01*
X152377038Y-89203651D01*
X152397250Y-89196419D01*
X152418074Y-89191203D01*
X152439309Y-89188053D01*
X152460750Y-89187000D01*
X152898250Y-89187000D01*
X152919691Y-89188053D01*
G37*
G04 #@! TD.AperFunction*
G04 #@! TA.AperFunction,SMDPad,CuDef*
G36*
X151344691Y-89188053D02*
G01*
X151365926Y-89191203D01*
X151386750Y-89196419D01*
X151406962Y-89203651D01*
X151426368Y-89212830D01*
X151444781Y-89223866D01*
X151462024Y-89236654D01*
X151477930Y-89251070D01*
X151492346Y-89266976D01*
X151505134Y-89284219D01*
X151516170Y-89302632D01*
X151525349Y-89322038D01*
X151532581Y-89342250D01*
X151537797Y-89363074D01*
X151540947Y-89384309D01*
X151542000Y-89405750D01*
X151542000Y-89918250D01*
X151540947Y-89939691D01*
X151537797Y-89960926D01*
X151532581Y-89981750D01*
X151525349Y-90001962D01*
X151516170Y-90021368D01*
X151505134Y-90039781D01*
X151492346Y-90057024D01*
X151477930Y-90072930D01*
X151462024Y-90087346D01*
X151444781Y-90100134D01*
X151426368Y-90111170D01*
X151406962Y-90120349D01*
X151386750Y-90127581D01*
X151365926Y-90132797D01*
X151344691Y-90135947D01*
X151323250Y-90137000D01*
X150885750Y-90137000D01*
X150864309Y-90135947D01*
X150843074Y-90132797D01*
X150822250Y-90127581D01*
X150802038Y-90120349D01*
X150782632Y-90111170D01*
X150764219Y-90100134D01*
X150746976Y-90087346D01*
X150731070Y-90072930D01*
X150716654Y-90057024D01*
X150703866Y-90039781D01*
X150692830Y-90021368D01*
X150683651Y-90001962D01*
X150676419Y-89981750D01*
X150671203Y-89960926D01*
X150668053Y-89939691D01*
X150667000Y-89918250D01*
X150667000Y-89405750D01*
X150668053Y-89384309D01*
X150671203Y-89363074D01*
X150676419Y-89342250D01*
X150683651Y-89322038D01*
X150692830Y-89302632D01*
X150703866Y-89284219D01*
X150716654Y-89266976D01*
X150731070Y-89251070D01*
X150746976Y-89236654D01*
X150764219Y-89223866D01*
X150782632Y-89212830D01*
X150802038Y-89203651D01*
X150822250Y-89196419D01*
X150843074Y-89191203D01*
X150864309Y-89188053D01*
X150885750Y-89187000D01*
X151323250Y-89187000D01*
X151344691Y-89188053D01*
G37*
G04 #@! TD.AperFunction*
G04 #@! TA.AperFunction,SMDPad,CuDef*
G36*
X148232691Y-86076053D02*
G01*
X148253926Y-86079203D01*
X148274750Y-86084419D01*
X148294962Y-86091651D01*
X148314368Y-86100830D01*
X148332781Y-86111866D01*
X148350024Y-86124654D01*
X148365930Y-86139070D01*
X148380346Y-86154976D01*
X148393134Y-86172219D01*
X148404170Y-86190632D01*
X148413349Y-86210038D01*
X148420581Y-86230250D01*
X148425797Y-86251074D01*
X148428947Y-86272309D01*
X148430000Y-86293750D01*
X148430000Y-86731250D01*
X148428947Y-86752691D01*
X148425797Y-86773926D01*
X148420581Y-86794750D01*
X148413349Y-86814962D01*
X148404170Y-86834368D01*
X148393134Y-86852781D01*
X148380346Y-86870024D01*
X148365930Y-86885930D01*
X148350024Y-86900346D01*
X148332781Y-86913134D01*
X148314368Y-86924170D01*
X148294962Y-86933349D01*
X148274750Y-86940581D01*
X148253926Y-86945797D01*
X148232691Y-86948947D01*
X148211250Y-86950000D01*
X147698750Y-86950000D01*
X147677309Y-86948947D01*
X147656074Y-86945797D01*
X147635250Y-86940581D01*
X147615038Y-86933349D01*
X147595632Y-86924170D01*
X147577219Y-86913134D01*
X147559976Y-86900346D01*
X147544070Y-86885930D01*
X147529654Y-86870024D01*
X147516866Y-86852781D01*
X147505830Y-86834368D01*
X147496651Y-86814962D01*
X147489419Y-86794750D01*
X147484203Y-86773926D01*
X147481053Y-86752691D01*
X147480000Y-86731250D01*
X147480000Y-86293750D01*
X147481053Y-86272309D01*
X147484203Y-86251074D01*
X147489419Y-86230250D01*
X147496651Y-86210038D01*
X147505830Y-86190632D01*
X147516866Y-86172219D01*
X147529654Y-86154976D01*
X147544070Y-86139070D01*
X147559976Y-86124654D01*
X147577219Y-86111866D01*
X147595632Y-86100830D01*
X147615038Y-86091651D01*
X147635250Y-86084419D01*
X147656074Y-86079203D01*
X147677309Y-86076053D01*
X147698750Y-86075000D01*
X148211250Y-86075000D01*
X148232691Y-86076053D01*
G37*
G04 #@! TD.AperFunction*
G04 #@! TA.AperFunction,SMDPad,CuDef*
G36*
X148232691Y-84501053D02*
G01*
X148253926Y-84504203D01*
X148274750Y-84509419D01*
X148294962Y-84516651D01*
X148314368Y-84525830D01*
X148332781Y-84536866D01*
X148350024Y-84549654D01*
X148365930Y-84564070D01*
X148380346Y-84579976D01*
X148393134Y-84597219D01*
X148404170Y-84615632D01*
X148413349Y-84635038D01*
X148420581Y-84655250D01*
X148425797Y-84676074D01*
X148428947Y-84697309D01*
X148430000Y-84718750D01*
X148430000Y-85156250D01*
X148428947Y-85177691D01*
X148425797Y-85198926D01*
X148420581Y-85219750D01*
X148413349Y-85239962D01*
X148404170Y-85259368D01*
X148393134Y-85277781D01*
X148380346Y-85295024D01*
X148365930Y-85310930D01*
X148350024Y-85325346D01*
X148332781Y-85338134D01*
X148314368Y-85349170D01*
X148294962Y-85358349D01*
X148274750Y-85365581D01*
X148253926Y-85370797D01*
X148232691Y-85373947D01*
X148211250Y-85375000D01*
X147698750Y-85375000D01*
X147677309Y-85373947D01*
X147656074Y-85370797D01*
X147635250Y-85365581D01*
X147615038Y-85358349D01*
X147595632Y-85349170D01*
X147577219Y-85338134D01*
X147559976Y-85325346D01*
X147544070Y-85310930D01*
X147529654Y-85295024D01*
X147516866Y-85277781D01*
X147505830Y-85259368D01*
X147496651Y-85239962D01*
X147489419Y-85219750D01*
X147484203Y-85198926D01*
X147481053Y-85177691D01*
X147480000Y-85156250D01*
X147480000Y-84718750D01*
X147481053Y-84697309D01*
X147484203Y-84676074D01*
X147489419Y-84655250D01*
X147496651Y-84635038D01*
X147505830Y-84615632D01*
X147516866Y-84597219D01*
X147529654Y-84579976D01*
X147544070Y-84564070D01*
X147559976Y-84549654D01*
X147577219Y-84536866D01*
X147595632Y-84525830D01*
X147615038Y-84516651D01*
X147635250Y-84509419D01*
X147656074Y-84504203D01*
X147677309Y-84501053D01*
X147698750Y-84500000D01*
X148211250Y-84500000D01*
X148232691Y-84501053D01*
G37*
G04 #@! TD.AperFunction*
G04 #@! TA.AperFunction,SMDPad,CuDef*
G36*
X150772691Y-84501053D02*
G01*
X150793926Y-84504203D01*
X150814750Y-84509419D01*
X150834962Y-84516651D01*
X150854368Y-84525830D01*
X150872781Y-84536866D01*
X150890024Y-84549654D01*
X150905930Y-84564070D01*
X150920346Y-84579976D01*
X150933134Y-84597219D01*
X150944170Y-84615632D01*
X150953349Y-84635038D01*
X150960581Y-84655250D01*
X150965797Y-84676074D01*
X150968947Y-84697309D01*
X150970000Y-84718750D01*
X150970000Y-85156250D01*
X150968947Y-85177691D01*
X150965797Y-85198926D01*
X150960581Y-85219750D01*
X150953349Y-85239962D01*
X150944170Y-85259368D01*
X150933134Y-85277781D01*
X150920346Y-85295024D01*
X150905930Y-85310930D01*
X150890024Y-85325346D01*
X150872781Y-85338134D01*
X150854368Y-85349170D01*
X150834962Y-85358349D01*
X150814750Y-85365581D01*
X150793926Y-85370797D01*
X150772691Y-85373947D01*
X150751250Y-85375000D01*
X150238750Y-85375000D01*
X150217309Y-85373947D01*
X150196074Y-85370797D01*
X150175250Y-85365581D01*
X150155038Y-85358349D01*
X150135632Y-85349170D01*
X150117219Y-85338134D01*
X150099976Y-85325346D01*
X150084070Y-85310930D01*
X150069654Y-85295024D01*
X150056866Y-85277781D01*
X150045830Y-85259368D01*
X150036651Y-85239962D01*
X150029419Y-85219750D01*
X150024203Y-85198926D01*
X150021053Y-85177691D01*
X150020000Y-85156250D01*
X150020000Y-84718750D01*
X150021053Y-84697309D01*
X150024203Y-84676074D01*
X150029419Y-84655250D01*
X150036651Y-84635038D01*
X150045830Y-84615632D01*
X150056866Y-84597219D01*
X150069654Y-84579976D01*
X150084070Y-84564070D01*
X150099976Y-84549654D01*
X150117219Y-84536866D01*
X150135632Y-84525830D01*
X150155038Y-84516651D01*
X150175250Y-84509419D01*
X150196074Y-84504203D01*
X150217309Y-84501053D01*
X150238750Y-84500000D01*
X150751250Y-84500000D01*
X150772691Y-84501053D01*
G37*
G04 #@! TD.AperFunction*
G04 #@! TA.AperFunction,SMDPad,CuDef*
G36*
X150772691Y-86076053D02*
G01*
X150793926Y-86079203D01*
X150814750Y-86084419D01*
X150834962Y-86091651D01*
X150854368Y-86100830D01*
X150872781Y-86111866D01*
X150890024Y-86124654D01*
X150905930Y-86139070D01*
X150920346Y-86154976D01*
X150933134Y-86172219D01*
X150944170Y-86190632D01*
X150953349Y-86210038D01*
X150960581Y-86230250D01*
X150965797Y-86251074D01*
X150968947Y-86272309D01*
X150970000Y-86293750D01*
X150970000Y-86731250D01*
X150968947Y-86752691D01*
X150965797Y-86773926D01*
X150960581Y-86794750D01*
X150953349Y-86814962D01*
X150944170Y-86834368D01*
X150933134Y-86852781D01*
X150920346Y-86870024D01*
X150905930Y-86885930D01*
X150890024Y-86900346D01*
X150872781Y-86913134D01*
X150854368Y-86924170D01*
X150834962Y-86933349D01*
X150814750Y-86940581D01*
X150793926Y-86945797D01*
X150772691Y-86948947D01*
X150751250Y-86950000D01*
X150238750Y-86950000D01*
X150217309Y-86948947D01*
X150196074Y-86945797D01*
X150175250Y-86940581D01*
X150155038Y-86933349D01*
X150135632Y-86924170D01*
X150117219Y-86913134D01*
X150099976Y-86900346D01*
X150084070Y-86885930D01*
X150069654Y-86870024D01*
X150056866Y-86852781D01*
X150045830Y-86834368D01*
X150036651Y-86814962D01*
X150029419Y-86794750D01*
X150024203Y-86773926D01*
X150021053Y-86752691D01*
X150020000Y-86731250D01*
X150020000Y-86293750D01*
X150021053Y-86272309D01*
X150024203Y-86251074D01*
X150029419Y-86230250D01*
X150036651Y-86210038D01*
X150045830Y-86190632D01*
X150056866Y-86172219D01*
X150069654Y-86154976D01*
X150084070Y-86139070D01*
X150099976Y-86124654D01*
X150117219Y-86111866D01*
X150135632Y-86100830D01*
X150155038Y-86091651D01*
X150175250Y-86084419D01*
X150196074Y-86079203D01*
X150217309Y-86076053D01*
X150238750Y-86075000D01*
X150751250Y-86075000D01*
X150772691Y-86076053D01*
G37*
G04 #@! TD.AperFunction*
G04 #@! TA.AperFunction,SMDPad,CuDef*
G36*
X147812252Y-91231602D02*
G01*
X147824386Y-91233402D01*
X147836286Y-91236382D01*
X147847835Y-91240515D01*
X147858925Y-91245760D01*
X147869446Y-91252066D01*
X147879299Y-91259374D01*
X147888388Y-91267612D01*
X147896626Y-91276701D01*
X147903934Y-91286554D01*
X147910240Y-91297075D01*
X147915485Y-91308165D01*
X147919618Y-91319714D01*
X147922598Y-91331614D01*
X147924398Y-91343748D01*
X147925000Y-91356000D01*
X147925000Y-91606000D01*
X147924398Y-91618252D01*
X147922598Y-91630386D01*
X147919618Y-91642286D01*
X147915485Y-91653835D01*
X147910240Y-91664925D01*
X147903934Y-91675446D01*
X147896626Y-91685299D01*
X147888388Y-91694388D01*
X147879299Y-91702626D01*
X147869446Y-91709934D01*
X147858925Y-91716240D01*
X147847835Y-91721485D01*
X147836286Y-91725618D01*
X147824386Y-91728598D01*
X147812252Y-91730398D01*
X147800000Y-91731000D01*
X146425000Y-91731000D01*
X146412748Y-91730398D01*
X146400614Y-91728598D01*
X146388714Y-91725618D01*
X146377165Y-91721485D01*
X146366075Y-91716240D01*
X146355554Y-91709934D01*
X146345701Y-91702626D01*
X146336612Y-91694388D01*
X146328374Y-91685299D01*
X146321066Y-91675446D01*
X146314760Y-91664925D01*
X146309515Y-91653835D01*
X146305382Y-91642286D01*
X146302402Y-91630386D01*
X146300602Y-91618252D01*
X146300000Y-91606000D01*
X146300000Y-91356000D01*
X146300602Y-91343748D01*
X146302402Y-91331614D01*
X146305382Y-91319714D01*
X146309515Y-91308165D01*
X146314760Y-91297075D01*
X146321066Y-91286554D01*
X146328374Y-91276701D01*
X146336612Y-91267612D01*
X146345701Y-91259374D01*
X146355554Y-91252066D01*
X146366075Y-91245760D01*
X146377165Y-91240515D01*
X146388714Y-91236382D01*
X146400614Y-91233402D01*
X146412748Y-91231602D01*
X146425000Y-91231000D01*
X147800000Y-91231000D01*
X147812252Y-91231602D01*
G37*
G04 #@! TD.AperFunction*
G04 #@! TA.AperFunction,SMDPad,CuDef*
G36*
X147812252Y-91881602D02*
G01*
X147824386Y-91883402D01*
X147836286Y-91886382D01*
X147847835Y-91890515D01*
X147858925Y-91895760D01*
X147869446Y-91902066D01*
X147879299Y-91909374D01*
X147888388Y-91917612D01*
X147896626Y-91926701D01*
X147903934Y-91936554D01*
X147910240Y-91947075D01*
X147915485Y-91958165D01*
X147919618Y-91969714D01*
X147922598Y-91981614D01*
X147924398Y-91993748D01*
X147925000Y-92006000D01*
X147925000Y-92256000D01*
X147924398Y-92268252D01*
X147922598Y-92280386D01*
X147919618Y-92292286D01*
X147915485Y-92303835D01*
X147910240Y-92314925D01*
X147903934Y-92325446D01*
X147896626Y-92335299D01*
X147888388Y-92344388D01*
X147879299Y-92352626D01*
X147869446Y-92359934D01*
X147858925Y-92366240D01*
X147847835Y-92371485D01*
X147836286Y-92375618D01*
X147824386Y-92378598D01*
X147812252Y-92380398D01*
X147800000Y-92381000D01*
X146425000Y-92381000D01*
X146412748Y-92380398D01*
X146400614Y-92378598D01*
X146388714Y-92375618D01*
X146377165Y-92371485D01*
X146366075Y-92366240D01*
X146355554Y-92359934D01*
X146345701Y-92352626D01*
X146336612Y-92344388D01*
X146328374Y-92335299D01*
X146321066Y-92325446D01*
X146314760Y-92314925D01*
X146309515Y-92303835D01*
X146305382Y-92292286D01*
X146302402Y-92280386D01*
X146300602Y-92268252D01*
X146300000Y-92256000D01*
X146300000Y-92006000D01*
X146300602Y-91993748D01*
X146302402Y-91981614D01*
X146305382Y-91969714D01*
X146309515Y-91958165D01*
X146314760Y-91947075D01*
X146321066Y-91936554D01*
X146328374Y-91926701D01*
X146336612Y-91917612D01*
X146345701Y-91909374D01*
X146355554Y-91902066D01*
X146366075Y-91895760D01*
X146377165Y-91890515D01*
X146388714Y-91886382D01*
X146400614Y-91883402D01*
X146412748Y-91881602D01*
X146425000Y-91881000D01*
X147800000Y-91881000D01*
X147812252Y-91881602D01*
G37*
G04 #@! TD.AperFunction*
G04 #@! TA.AperFunction,SMDPad,CuDef*
G36*
X147812252Y-92531602D02*
G01*
X147824386Y-92533402D01*
X147836286Y-92536382D01*
X147847835Y-92540515D01*
X147858925Y-92545760D01*
X147869446Y-92552066D01*
X147879299Y-92559374D01*
X147888388Y-92567612D01*
X147896626Y-92576701D01*
X147903934Y-92586554D01*
X147910240Y-92597075D01*
X147915485Y-92608165D01*
X147919618Y-92619714D01*
X147922598Y-92631614D01*
X147924398Y-92643748D01*
X147925000Y-92656000D01*
X147925000Y-92906000D01*
X147924398Y-92918252D01*
X147922598Y-92930386D01*
X147919618Y-92942286D01*
X147915485Y-92953835D01*
X147910240Y-92964925D01*
X147903934Y-92975446D01*
X147896626Y-92985299D01*
X147888388Y-92994388D01*
X147879299Y-93002626D01*
X147869446Y-93009934D01*
X147858925Y-93016240D01*
X147847835Y-93021485D01*
X147836286Y-93025618D01*
X147824386Y-93028598D01*
X147812252Y-93030398D01*
X147800000Y-93031000D01*
X146425000Y-93031000D01*
X146412748Y-93030398D01*
X146400614Y-93028598D01*
X146388714Y-93025618D01*
X146377165Y-93021485D01*
X146366075Y-93016240D01*
X146355554Y-93009934D01*
X146345701Y-93002626D01*
X146336612Y-92994388D01*
X146328374Y-92985299D01*
X146321066Y-92975446D01*
X146314760Y-92964925D01*
X146309515Y-92953835D01*
X146305382Y-92942286D01*
X146302402Y-92930386D01*
X146300602Y-92918252D01*
X146300000Y-92906000D01*
X146300000Y-92656000D01*
X146300602Y-92643748D01*
X146302402Y-92631614D01*
X146305382Y-92619714D01*
X146309515Y-92608165D01*
X146314760Y-92597075D01*
X146321066Y-92586554D01*
X146328374Y-92576701D01*
X146336612Y-92567612D01*
X146345701Y-92559374D01*
X146355554Y-92552066D01*
X146366075Y-92545760D01*
X146377165Y-92540515D01*
X146388714Y-92536382D01*
X146400614Y-92533402D01*
X146412748Y-92531602D01*
X146425000Y-92531000D01*
X147800000Y-92531000D01*
X147812252Y-92531602D01*
G37*
G04 #@! TD.AperFunction*
G04 #@! TA.AperFunction,SMDPad,CuDef*
G36*
X147812252Y-93181602D02*
G01*
X147824386Y-93183402D01*
X147836286Y-93186382D01*
X147847835Y-93190515D01*
X147858925Y-93195760D01*
X147869446Y-93202066D01*
X147879299Y-93209374D01*
X147888388Y-93217612D01*
X147896626Y-93226701D01*
X147903934Y-93236554D01*
X147910240Y-93247075D01*
X147915485Y-93258165D01*
X147919618Y-93269714D01*
X147922598Y-93281614D01*
X147924398Y-93293748D01*
X147925000Y-93306000D01*
X147925000Y-93556000D01*
X147924398Y-93568252D01*
X147922598Y-93580386D01*
X147919618Y-93592286D01*
X147915485Y-93603835D01*
X147910240Y-93614925D01*
X147903934Y-93625446D01*
X147896626Y-93635299D01*
X147888388Y-93644388D01*
X147879299Y-93652626D01*
X147869446Y-93659934D01*
X147858925Y-93666240D01*
X147847835Y-93671485D01*
X147836286Y-93675618D01*
X147824386Y-93678598D01*
X147812252Y-93680398D01*
X147800000Y-93681000D01*
X146425000Y-93681000D01*
X146412748Y-93680398D01*
X146400614Y-93678598D01*
X146388714Y-93675618D01*
X146377165Y-93671485D01*
X146366075Y-93666240D01*
X146355554Y-93659934D01*
X146345701Y-93652626D01*
X146336612Y-93644388D01*
X146328374Y-93635299D01*
X146321066Y-93625446D01*
X146314760Y-93614925D01*
X146309515Y-93603835D01*
X146305382Y-93592286D01*
X146302402Y-93580386D01*
X146300602Y-93568252D01*
X146300000Y-93556000D01*
X146300000Y-93306000D01*
X146300602Y-93293748D01*
X146302402Y-93281614D01*
X146305382Y-93269714D01*
X146309515Y-93258165D01*
X146314760Y-93247075D01*
X146321066Y-93236554D01*
X146328374Y-93226701D01*
X146336612Y-93217612D01*
X146345701Y-93209374D01*
X146355554Y-93202066D01*
X146366075Y-93195760D01*
X146377165Y-93190515D01*
X146388714Y-93186382D01*
X146400614Y-93183402D01*
X146412748Y-93181602D01*
X146425000Y-93181000D01*
X147800000Y-93181000D01*
X147812252Y-93181602D01*
G37*
G04 #@! TD.AperFunction*
G04 #@! TA.AperFunction,SMDPad,CuDef*
G36*
X152037252Y-93181602D02*
G01*
X152049386Y-93183402D01*
X152061286Y-93186382D01*
X152072835Y-93190515D01*
X152083925Y-93195760D01*
X152094446Y-93202066D01*
X152104299Y-93209374D01*
X152113388Y-93217612D01*
X152121626Y-93226701D01*
X152128934Y-93236554D01*
X152135240Y-93247075D01*
X152140485Y-93258165D01*
X152144618Y-93269714D01*
X152147598Y-93281614D01*
X152149398Y-93293748D01*
X152150000Y-93306000D01*
X152150000Y-93556000D01*
X152149398Y-93568252D01*
X152147598Y-93580386D01*
X152144618Y-93592286D01*
X152140485Y-93603835D01*
X152135240Y-93614925D01*
X152128934Y-93625446D01*
X152121626Y-93635299D01*
X152113388Y-93644388D01*
X152104299Y-93652626D01*
X152094446Y-93659934D01*
X152083925Y-93666240D01*
X152072835Y-93671485D01*
X152061286Y-93675618D01*
X152049386Y-93678598D01*
X152037252Y-93680398D01*
X152025000Y-93681000D01*
X150650000Y-93681000D01*
X150637748Y-93680398D01*
X150625614Y-93678598D01*
X150613714Y-93675618D01*
X150602165Y-93671485D01*
X150591075Y-93666240D01*
X150580554Y-93659934D01*
X150570701Y-93652626D01*
X150561612Y-93644388D01*
X150553374Y-93635299D01*
X150546066Y-93625446D01*
X150539760Y-93614925D01*
X150534515Y-93603835D01*
X150530382Y-93592286D01*
X150527402Y-93580386D01*
X150525602Y-93568252D01*
X150525000Y-93556000D01*
X150525000Y-93306000D01*
X150525602Y-93293748D01*
X150527402Y-93281614D01*
X150530382Y-93269714D01*
X150534515Y-93258165D01*
X150539760Y-93247075D01*
X150546066Y-93236554D01*
X150553374Y-93226701D01*
X150561612Y-93217612D01*
X150570701Y-93209374D01*
X150580554Y-93202066D01*
X150591075Y-93195760D01*
X150602165Y-93190515D01*
X150613714Y-93186382D01*
X150625614Y-93183402D01*
X150637748Y-93181602D01*
X150650000Y-93181000D01*
X152025000Y-93181000D01*
X152037252Y-93181602D01*
G37*
G04 #@! TD.AperFunction*
G04 #@! TA.AperFunction,SMDPad,CuDef*
G36*
X152037252Y-92531602D02*
G01*
X152049386Y-92533402D01*
X152061286Y-92536382D01*
X152072835Y-92540515D01*
X152083925Y-92545760D01*
X152094446Y-92552066D01*
X152104299Y-92559374D01*
X152113388Y-92567612D01*
X152121626Y-92576701D01*
X152128934Y-92586554D01*
X152135240Y-92597075D01*
X152140485Y-92608165D01*
X152144618Y-92619714D01*
X152147598Y-92631614D01*
X152149398Y-92643748D01*
X152150000Y-92656000D01*
X152150000Y-92906000D01*
X152149398Y-92918252D01*
X152147598Y-92930386D01*
X152144618Y-92942286D01*
X152140485Y-92953835D01*
X152135240Y-92964925D01*
X152128934Y-92975446D01*
X152121626Y-92985299D01*
X152113388Y-92994388D01*
X152104299Y-93002626D01*
X152094446Y-93009934D01*
X152083925Y-93016240D01*
X152072835Y-93021485D01*
X152061286Y-93025618D01*
X152049386Y-93028598D01*
X152037252Y-93030398D01*
X152025000Y-93031000D01*
X150650000Y-93031000D01*
X150637748Y-93030398D01*
X150625614Y-93028598D01*
X150613714Y-93025618D01*
X150602165Y-93021485D01*
X150591075Y-93016240D01*
X150580554Y-93009934D01*
X150570701Y-93002626D01*
X150561612Y-92994388D01*
X150553374Y-92985299D01*
X150546066Y-92975446D01*
X150539760Y-92964925D01*
X150534515Y-92953835D01*
X150530382Y-92942286D01*
X150527402Y-92930386D01*
X150525602Y-92918252D01*
X150525000Y-92906000D01*
X150525000Y-92656000D01*
X150525602Y-92643748D01*
X150527402Y-92631614D01*
X150530382Y-92619714D01*
X150534515Y-92608165D01*
X150539760Y-92597075D01*
X150546066Y-92586554D01*
X150553374Y-92576701D01*
X150561612Y-92567612D01*
X150570701Y-92559374D01*
X150580554Y-92552066D01*
X150591075Y-92545760D01*
X150602165Y-92540515D01*
X150613714Y-92536382D01*
X150625614Y-92533402D01*
X150637748Y-92531602D01*
X150650000Y-92531000D01*
X152025000Y-92531000D01*
X152037252Y-92531602D01*
G37*
G04 #@! TD.AperFunction*
G04 #@! TA.AperFunction,SMDPad,CuDef*
G36*
X152037252Y-91881602D02*
G01*
X152049386Y-91883402D01*
X152061286Y-91886382D01*
X152072835Y-91890515D01*
X152083925Y-91895760D01*
X152094446Y-91902066D01*
X152104299Y-91909374D01*
X152113388Y-91917612D01*
X152121626Y-91926701D01*
X152128934Y-91936554D01*
X152135240Y-91947075D01*
X152140485Y-91958165D01*
X152144618Y-91969714D01*
X152147598Y-91981614D01*
X152149398Y-91993748D01*
X152150000Y-92006000D01*
X152150000Y-92256000D01*
X152149398Y-92268252D01*
X152147598Y-92280386D01*
X152144618Y-92292286D01*
X152140485Y-92303835D01*
X152135240Y-92314925D01*
X152128934Y-92325446D01*
X152121626Y-92335299D01*
X152113388Y-92344388D01*
X152104299Y-92352626D01*
X152094446Y-92359934D01*
X152083925Y-92366240D01*
X152072835Y-92371485D01*
X152061286Y-92375618D01*
X152049386Y-92378598D01*
X152037252Y-92380398D01*
X152025000Y-92381000D01*
X150650000Y-92381000D01*
X150637748Y-92380398D01*
X150625614Y-92378598D01*
X150613714Y-92375618D01*
X150602165Y-92371485D01*
X150591075Y-92366240D01*
X150580554Y-92359934D01*
X150570701Y-92352626D01*
X150561612Y-92344388D01*
X150553374Y-92335299D01*
X150546066Y-92325446D01*
X150539760Y-92314925D01*
X150534515Y-92303835D01*
X150530382Y-92292286D01*
X150527402Y-92280386D01*
X150525602Y-92268252D01*
X150525000Y-92256000D01*
X150525000Y-92006000D01*
X150525602Y-91993748D01*
X150527402Y-91981614D01*
X150530382Y-91969714D01*
X150534515Y-91958165D01*
X150539760Y-91947075D01*
X150546066Y-91936554D01*
X150553374Y-91926701D01*
X150561612Y-91917612D01*
X150570701Y-91909374D01*
X150580554Y-91902066D01*
X150591075Y-91895760D01*
X150602165Y-91890515D01*
X150613714Y-91886382D01*
X150625614Y-91883402D01*
X150637748Y-91881602D01*
X150650000Y-91881000D01*
X152025000Y-91881000D01*
X152037252Y-91881602D01*
G37*
G04 #@! TD.AperFunction*
G04 #@! TA.AperFunction,SMDPad,CuDef*
G36*
X152037252Y-91231602D02*
G01*
X152049386Y-91233402D01*
X152061286Y-91236382D01*
X152072835Y-91240515D01*
X152083925Y-91245760D01*
X152094446Y-91252066D01*
X152104299Y-91259374D01*
X152113388Y-91267612D01*
X152121626Y-91276701D01*
X152128934Y-91286554D01*
X152135240Y-91297075D01*
X152140485Y-91308165D01*
X152144618Y-91319714D01*
X152147598Y-91331614D01*
X152149398Y-91343748D01*
X152150000Y-91356000D01*
X152150000Y-91606000D01*
X152149398Y-91618252D01*
X152147598Y-91630386D01*
X152144618Y-91642286D01*
X152140485Y-91653835D01*
X152135240Y-91664925D01*
X152128934Y-91675446D01*
X152121626Y-91685299D01*
X152113388Y-91694388D01*
X152104299Y-91702626D01*
X152094446Y-91709934D01*
X152083925Y-91716240D01*
X152072835Y-91721485D01*
X152061286Y-91725618D01*
X152049386Y-91728598D01*
X152037252Y-91730398D01*
X152025000Y-91731000D01*
X150650000Y-91731000D01*
X150637748Y-91730398D01*
X150625614Y-91728598D01*
X150613714Y-91725618D01*
X150602165Y-91721485D01*
X150591075Y-91716240D01*
X150580554Y-91709934D01*
X150570701Y-91702626D01*
X150561612Y-91694388D01*
X150553374Y-91685299D01*
X150546066Y-91675446D01*
X150539760Y-91664925D01*
X150534515Y-91653835D01*
X150530382Y-91642286D01*
X150527402Y-91630386D01*
X150525602Y-91618252D01*
X150525000Y-91606000D01*
X150525000Y-91356000D01*
X150525602Y-91343748D01*
X150527402Y-91331614D01*
X150530382Y-91319714D01*
X150534515Y-91308165D01*
X150539760Y-91297075D01*
X150546066Y-91286554D01*
X150553374Y-91276701D01*
X150561612Y-91267612D01*
X150570701Y-91259374D01*
X150580554Y-91252066D01*
X150591075Y-91245760D01*
X150602165Y-91240515D01*
X150613714Y-91236382D01*
X150625614Y-91233402D01*
X150637748Y-91231602D01*
X150650000Y-91231000D01*
X152025000Y-91231000D01*
X152037252Y-91231602D01*
G37*
G04 #@! TD.AperFunction*
D15*
X144714000Y-96346000D03*
X142814000Y-96346000D03*
X142814000Y-93646000D03*
X143764000Y-93646000D03*
X144714000Y-93646000D03*
D12*
X139065000Y-76327000D03*
X139065000Y-89027000D03*
X141605000Y-81407000D03*
D16*
X146812000Y-87376000D03*
X146050000Y-97028000D03*
X149860000Y-97028000D03*
X144018000Y-87376000D03*
X143510000Y-83312000D03*
D17*
X147955000Y-87655500D02*
X148437500Y-88138000D01*
X147955000Y-86512500D02*
X147955000Y-87655500D01*
X147345500Y-89230000D02*
X148437500Y-88138000D01*
X147345500Y-89662000D02*
X147345500Y-89230000D01*
X147112500Y-89895000D02*
X147345500Y-89662000D01*
X147112500Y-91481000D02*
X147112500Y-89895000D01*
X141230002Y-96200000D02*
X139450000Y-96200000D01*
X141959003Y-95470999D02*
X141230002Y-96200000D01*
X142527001Y-95470999D02*
X141959003Y-95470999D01*
X139450000Y-96200000D02*
X138700000Y-96200000D01*
X143764000Y-94234000D02*
X142527001Y-95470999D01*
X143764000Y-93646000D02*
X143764000Y-94234000D01*
X145770500Y-88417500D02*
X146812000Y-87376000D01*
X145770500Y-89662000D02*
X145770500Y-88417500D01*
X147050000Y-99385000D02*
X147050000Y-96758000D01*
X147050000Y-96758000D02*
X145770500Y-95478500D01*
X145770500Y-95478500D02*
X145770500Y-89662000D01*
X145770500Y-90137000D02*
X145770500Y-89662000D01*
X145770500Y-92273266D02*
X145770500Y-90137000D01*
X146278234Y-92781000D02*
X145770500Y-92273266D01*
X147112500Y-92781000D02*
X146278234Y-92781000D01*
X150495000Y-87655500D02*
X150012500Y-88138000D01*
X150495000Y-86512500D02*
X150495000Y-87655500D01*
X151104500Y-89230000D02*
X150012500Y-88138000D01*
X151104500Y-89662000D02*
X151104500Y-89230000D01*
X151337500Y-89895000D02*
X151104500Y-89662000D01*
X151337500Y-91481000D02*
X151337500Y-89895000D01*
X150495000Y-81915000D02*
X150495000Y-84937500D01*
X150495000Y-84937500D02*
X153035000Y-84937500D01*
X147995000Y-84897500D02*
X147955000Y-84937500D01*
X147995000Y-81915000D02*
X147995000Y-84897500D01*
X153050000Y-98307370D02*
X153050000Y-99385000D01*
X153050000Y-93898234D02*
X153050000Y-98307370D01*
X145396000Y-97028000D02*
X144714000Y-96346000D01*
X146050000Y-97028000D02*
X145396000Y-97028000D01*
X149860000Y-93663234D02*
X149860000Y-97028000D01*
X144018000Y-87376000D02*
X144018000Y-88620500D01*
X144018000Y-86131500D02*
X144018000Y-87376000D01*
X152171766Y-92131000D02*
X152150000Y-92131000D01*
X153050000Y-93009234D02*
X152171766Y-92131000D01*
X153050000Y-93898234D02*
X153050000Y-93009234D01*
X152150000Y-92131000D02*
X151337500Y-92131000D01*
X150525000Y-92131000D02*
X151337500Y-92131000D01*
X150503234Y-92131000D02*
X150525000Y-92131000D01*
X149860000Y-92774234D02*
X150503234Y-92131000D01*
X149860000Y-93663234D02*
X149860000Y-92774234D01*
X154386500Y-92131000D02*
X154432000Y-92176500D01*
X151337500Y-92131000D02*
X154386500Y-92131000D01*
X149050000Y-94123234D02*
X149050000Y-98307370D01*
X149050000Y-98307370D02*
X149050000Y-99385000D01*
X149050000Y-100462630D02*
X149050000Y-99385000D01*
X143679370Y-101092000D02*
X148420630Y-101092000D01*
X143050000Y-100462630D02*
X143679370Y-101092000D01*
X148420630Y-101092000D02*
X149050000Y-100462630D01*
X143050000Y-99385000D02*
X143050000Y-100462630D01*
X147925000Y-92131000D02*
X147112500Y-92131000D01*
X147946766Y-92131000D02*
X147925000Y-92131000D01*
X149050000Y-93234234D02*
X147946766Y-92131000D01*
X149050000Y-94123234D02*
X149050000Y-93234234D01*
X142814000Y-93646000D02*
X142814000Y-91506000D01*
X141605000Y-90297000D02*
X141605000Y-81407000D01*
X142814000Y-91506000D02*
X141605000Y-90297000D01*
X142214000Y-96346000D02*
X142814000Y-96346000D01*
X141050000Y-97510000D02*
X142214000Y-96346000D01*
X141050000Y-99385000D02*
X141050000Y-97510000D01*
X144714000Y-94221000D02*
X144714000Y-93646000D01*
X142814000Y-96121000D02*
X144714000Y-94221000D01*
X142814000Y-96346000D02*
X142814000Y-96121000D01*
X151337500Y-92781000D02*
X151337500Y-93431000D01*
X151337500Y-99097500D02*
X151050000Y-99385000D01*
X151337500Y-93431000D02*
X151337500Y-99097500D01*
X138700000Y-89392000D02*
X139065000Y-89027000D01*
X138700000Y-94300000D02*
X138700000Y-89392000D01*
X144018000Y-83820000D02*
X143510000Y-83312000D01*
X144018000Y-84556500D02*
X144018000Y-83820000D01*
D18*
G36*
X143656928Y-72515000D02*
G01*
X143656928Y-78115000D01*
X143669188Y-78239482D01*
X143705498Y-78359180D01*
X143764463Y-78469494D01*
X143843815Y-78566185D01*
X143940506Y-78645537D01*
X144050820Y-78704502D01*
X144170518Y-78740812D01*
X144295000Y-78753072D01*
X146595000Y-78753072D01*
X146719482Y-78740812D01*
X146839180Y-78704502D01*
X146949494Y-78645537D01*
X147046185Y-78566185D01*
X147125537Y-78469494D01*
X147184502Y-78359180D01*
X147220812Y-78239482D01*
X147233072Y-78115000D01*
X147233072Y-72515000D01*
X147223223Y-72415000D01*
X151266777Y-72415000D01*
X151256928Y-72515000D01*
X151256928Y-78115000D01*
X151269188Y-78239482D01*
X151305498Y-78359180D01*
X151364463Y-78469494D01*
X151443815Y-78566185D01*
X151540506Y-78645537D01*
X151650820Y-78704502D01*
X151770518Y-78740812D01*
X151895000Y-78753072D01*
X154195000Y-78753072D01*
X154319482Y-78740812D01*
X154439180Y-78704502D01*
X154549494Y-78645537D01*
X154646185Y-78566185D01*
X154725537Y-78469494D01*
X154784502Y-78359180D01*
X154820812Y-78239482D01*
X154833072Y-78115000D01*
X154833072Y-72515000D01*
X154823223Y-72415000D01*
X155550001Y-72415000D01*
X155550000Y-100480005D01*
X155457490Y-100441686D01*
X155187592Y-100388000D01*
X154912408Y-100388000D01*
X154642510Y-100441686D01*
X154388273Y-100546995D01*
X154159465Y-100699880D01*
X153964880Y-100894465D01*
X153811995Y-101123273D01*
X153706686Y-101377510D01*
X153653000Y-101647408D01*
X153653000Y-101922592D01*
X153706686Y-102192490D01*
X153811995Y-102446727D01*
X153964880Y-102675535D01*
X154159465Y-102870120D01*
X154388273Y-103023005D01*
X154642510Y-103128314D01*
X154912408Y-103182000D01*
X155187592Y-103182000D01*
X155457490Y-103128314D01*
X155550000Y-103089995D01*
X155550000Y-107925000D01*
X136550000Y-107925000D01*
X136550000Y-103089995D01*
X136642510Y-103128314D01*
X136912408Y-103182000D01*
X137187592Y-103182000D01*
X137457490Y-103128314D01*
X137711727Y-103023005D01*
X137940535Y-102870120D01*
X138135120Y-102675535D01*
X138288005Y-102446727D01*
X138393314Y-102192490D01*
X138447000Y-101922592D01*
X138447000Y-101647408D01*
X138393314Y-101377510D01*
X138288005Y-101123273D01*
X138135120Y-100894465D01*
X137940535Y-100699880D01*
X137711727Y-100546995D01*
X137457490Y-100441686D01*
X137187592Y-100388000D01*
X136912408Y-100388000D01*
X136642510Y-100441686D01*
X136550000Y-100480005D01*
X136550000Y-100350565D01*
X138264040Y-100350565D01*
X138331020Y-100590656D01*
X138580048Y-100707756D01*
X138847135Y-100774023D01*
X139122017Y-100786910D01*
X139394133Y-100745922D01*
X139653023Y-100652636D01*
X139768980Y-100590656D01*
X139835960Y-100350565D01*
X139050000Y-99564605D01*
X138264040Y-100350565D01*
X136550000Y-100350565D01*
X136550000Y-99457017D01*
X137648090Y-99457017D01*
X137689078Y-99729133D01*
X137782364Y-99988023D01*
X137844344Y-100103980D01*
X138084435Y-100170960D01*
X138870395Y-99385000D01*
X138084435Y-98599040D01*
X137844344Y-98666020D01*
X137727244Y-98915048D01*
X137660977Y-99182135D01*
X137648090Y-99457017D01*
X136550000Y-99457017D01*
X136550000Y-98419435D01*
X138264040Y-98419435D01*
X139050000Y-99205395D01*
X139835960Y-98419435D01*
X139768980Y-98179344D01*
X139519952Y-98062244D01*
X139252865Y-97995977D01*
X138977983Y-97983090D01*
X138705867Y-98024078D01*
X138446977Y-98117364D01*
X138331020Y-98179344D01*
X138264040Y-98419435D01*
X136550000Y-98419435D01*
X136550000Y-96600000D01*
X137611928Y-96600000D01*
X137624188Y-96724482D01*
X137660498Y-96844180D01*
X137719463Y-96954494D01*
X137798815Y-97051185D01*
X137895506Y-97130537D01*
X138005820Y-97189502D01*
X138125518Y-97225812D01*
X138250000Y-97238072D01*
X138414250Y-97235000D01*
X138573000Y-97076250D01*
X138573000Y-96327000D01*
X138827000Y-96327000D01*
X138827000Y-97076250D01*
X138985750Y-97235000D01*
X139150000Y-97238072D01*
X139274482Y-97225812D01*
X139394180Y-97189502D01*
X139504494Y-97130537D01*
X139601185Y-97051185D01*
X139680537Y-96954494D01*
X139739502Y-96844180D01*
X139775812Y-96724482D01*
X139788072Y-96600000D01*
X139785000Y-96485750D01*
X139626250Y-96327000D01*
X138827000Y-96327000D01*
X138573000Y-96327000D01*
X137773750Y-96327000D01*
X137615000Y-96485750D01*
X137611928Y-96600000D01*
X136550000Y-96600000D01*
X136550000Y-93900000D01*
X137611928Y-93900000D01*
X137611928Y-94700000D01*
X137624188Y-94824482D01*
X137660498Y-94944180D01*
X137719463Y-95054494D01*
X137798815Y-95151185D01*
X137895506Y-95230537D01*
X137931918Y-95250000D01*
X137895506Y-95269463D01*
X137798815Y-95348815D01*
X137719463Y-95445506D01*
X137660498Y-95555820D01*
X137624188Y-95675518D01*
X137611928Y-95800000D01*
X137615000Y-95914250D01*
X137773750Y-96073000D01*
X138573000Y-96073000D01*
X138573000Y-96053000D01*
X138827000Y-96053000D01*
X138827000Y-96073000D01*
X139626250Y-96073000D01*
X139710857Y-95988393D01*
X139719463Y-96004494D01*
X139798815Y-96101185D01*
X139895506Y-96180537D01*
X140005820Y-96239502D01*
X140125518Y-96275812D01*
X140250000Y-96288072D01*
X141150000Y-96288072D01*
X141163057Y-96286786D01*
X140522185Y-96927658D01*
X140492237Y-96952236D01*
X140467659Y-96982184D01*
X140467655Y-96982188D01*
X140456745Y-96995482D01*
X140394139Y-97071767D01*
X140391743Y-97076250D01*
X140321246Y-97208141D01*
X140276359Y-97356114D01*
X140261203Y-97510000D01*
X140265001Y-97548562D01*
X140265001Y-98229363D01*
X140159465Y-98299880D01*
X139964880Y-98494465D01*
X139811995Y-98723273D01*
X139755895Y-98858710D01*
X139229605Y-99385000D01*
X139755895Y-99911290D01*
X139811995Y-100046727D01*
X139964880Y-100275535D01*
X140159465Y-100470120D01*
X140388273Y-100623005D01*
X140642510Y-100728314D01*
X140912408Y-100782000D01*
X141187592Y-100782000D01*
X141457490Y-100728314D01*
X141711727Y-100623005D01*
X141940535Y-100470120D01*
X142050000Y-100360655D01*
X142159465Y-100470120D01*
X142269159Y-100543416D01*
X142276359Y-100616516D01*
X142321246Y-100764489D01*
X142355177Y-100827970D01*
X142394139Y-100900863D01*
X142424710Y-100938113D01*
X142467655Y-100990442D01*
X142467659Y-100990446D01*
X142492237Y-101020394D01*
X142522185Y-101044972D01*
X143097023Y-101619810D01*
X143121606Y-101649764D01*
X143241137Y-101747862D01*
X143377510Y-101820754D01*
X143525483Y-101865642D01*
X143600396Y-101873020D01*
X143640809Y-101877000D01*
X143640814Y-101877000D01*
X143679370Y-101880797D01*
X143717926Y-101877000D01*
X148382077Y-101877000D01*
X148420630Y-101880797D01*
X148459183Y-101877000D01*
X148459191Y-101877000D01*
X148574517Y-101865641D01*
X148722490Y-101820754D01*
X148858863Y-101747862D01*
X148978394Y-101649764D01*
X149002977Y-101619810D01*
X149577811Y-101044976D01*
X149607764Y-101020394D01*
X149705862Y-100900863D01*
X149778754Y-100764490D01*
X149795964Y-100707756D01*
X149823642Y-100616517D01*
X149830841Y-100543415D01*
X149940535Y-100470120D01*
X150050000Y-100360655D01*
X150159465Y-100470120D01*
X150388273Y-100623005D01*
X150642510Y-100728314D01*
X150912408Y-100782000D01*
X151187592Y-100782000D01*
X151457490Y-100728314D01*
X151711727Y-100623005D01*
X151940535Y-100470120D01*
X152050000Y-100360655D01*
X152159465Y-100470120D01*
X152388273Y-100623005D01*
X152642510Y-100728314D01*
X152912408Y-100782000D01*
X153187592Y-100782000D01*
X153457490Y-100728314D01*
X153711727Y-100623005D01*
X153940535Y-100470120D01*
X154135120Y-100275535D01*
X154288005Y-100046727D01*
X154393314Y-99792490D01*
X154447000Y-99522592D01*
X154447000Y-99247408D01*
X154393314Y-98977510D01*
X154288005Y-98723273D01*
X154135120Y-98494465D01*
X153940535Y-98299880D01*
X153835000Y-98229364D01*
X153835000Y-94815056D01*
X153957000Y-94827072D01*
X154146250Y-94824000D01*
X154305000Y-94665250D01*
X154305000Y-93878500D01*
X154559000Y-93878500D01*
X154559000Y-94665250D01*
X154717750Y-94824000D01*
X154907000Y-94827072D01*
X155031482Y-94814812D01*
X155151180Y-94778502D01*
X155261494Y-94719537D01*
X155358185Y-94640185D01*
X155437537Y-94543494D01*
X155496502Y-94433180D01*
X155532812Y-94313482D01*
X155545072Y-94189000D01*
X155542000Y-94037250D01*
X155383250Y-93878500D01*
X154559000Y-93878500D01*
X154305000Y-93878500D01*
X154285000Y-93878500D01*
X154285000Y-93624500D01*
X154305000Y-93624500D01*
X154305000Y-93604500D01*
X154559000Y-93604500D01*
X154559000Y-93624500D01*
X155383250Y-93624500D01*
X155542000Y-93465750D01*
X155545072Y-93314000D01*
X155532812Y-93189518D01*
X155496502Y-93069820D01*
X155437537Y-92959506D01*
X155382900Y-92892930D01*
X155400671Y-92871275D01*
X155479850Y-92723142D01*
X155528608Y-92562408D01*
X155545072Y-92395250D01*
X155545072Y-91957750D01*
X155528608Y-91790592D01*
X155479850Y-91629858D01*
X155400671Y-91481725D01*
X155294115Y-91351885D01*
X155164275Y-91245329D01*
X155016142Y-91166150D01*
X154855408Y-91117392D01*
X154688250Y-91100928D01*
X154175750Y-91100928D01*
X154008592Y-91117392D01*
X153847858Y-91166150D01*
X153699725Y-91245329D01*
X153577056Y-91346000D01*
X152787087Y-91346000D01*
X152773410Y-91207132D01*
X152729987Y-91063985D01*
X152659471Y-90932060D01*
X152564573Y-90816427D01*
X152448940Y-90721529D01*
X152445865Y-90719885D01*
X152552500Y-90613250D01*
X152552500Y-89789000D01*
X152806500Y-89789000D01*
X152806500Y-90613250D01*
X152965250Y-90772000D01*
X153117000Y-90775072D01*
X153241482Y-90762812D01*
X153361180Y-90726502D01*
X153471494Y-90667537D01*
X153568185Y-90588185D01*
X153647537Y-90491494D01*
X153706502Y-90381180D01*
X153742812Y-90261482D01*
X153755072Y-90137000D01*
X153752000Y-89947750D01*
X153593250Y-89789000D01*
X152806500Y-89789000D01*
X152552500Y-89789000D01*
X152532500Y-89789000D01*
X152532500Y-89535000D01*
X152552500Y-89535000D01*
X152552500Y-88710750D01*
X152806500Y-88710750D01*
X152806500Y-89535000D01*
X153593250Y-89535000D01*
X153752000Y-89376250D01*
X153755072Y-89187000D01*
X153742812Y-89062518D01*
X153706502Y-88942820D01*
X153647537Y-88832506D01*
X153568185Y-88735815D01*
X153471494Y-88656463D01*
X153361180Y-88597498D01*
X153241482Y-88561188D01*
X153117000Y-88548928D01*
X152965250Y-88552000D01*
X152806500Y-88710750D01*
X152552500Y-88710750D01*
X152393750Y-88552000D01*
X152242000Y-88548928D01*
X152117518Y-88561188D01*
X151997820Y-88597498D01*
X151887506Y-88656463D01*
X151820930Y-88711100D01*
X151799275Y-88693329D01*
X151651142Y-88614150D01*
X151576020Y-88591362D01*
X151118195Y-88133537D01*
X151150862Y-88093733D01*
X151223754Y-87957360D01*
X151268641Y-87809387D01*
X151280000Y-87694061D01*
X151280000Y-87694054D01*
X151283797Y-87655501D01*
X151280000Y-87616948D01*
X151280000Y-87400401D01*
X151357115Y-87337115D01*
X151463671Y-87207275D01*
X151542850Y-87059142D01*
X151575957Y-86950000D01*
X151921928Y-86950000D01*
X151934188Y-87074482D01*
X151970498Y-87194180D01*
X152029463Y-87304494D01*
X152108815Y-87401185D01*
X152205506Y-87480537D01*
X152315820Y-87539502D01*
X152435518Y-87575812D01*
X152560000Y-87588072D01*
X152749250Y-87585000D01*
X152908000Y-87426250D01*
X152908000Y-86639500D01*
X153162000Y-86639500D01*
X153162000Y-87426250D01*
X153320750Y-87585000D01*
X153510000Y-87588072D01*
X153634482Y-87575812D01*
X153754180Y-87539502D01*
X153864494Y-87480537D01*
X153961185Y-87401185D01*
X154040537Y-87304494D01*
X154099502Y-87194180D01*
X154135812Y-87074482D01*
X154148072Y-86950000D01*
X154145000Y-86798250D01*
X153986250Y-86639500D01*
X153162000Y-86639500D01*
X152908000Y-86639500D01*
X152083750Y-86639500D01*
X151925000Y-86798250D01*
X151921928Y-86950000D01*
X151575957Y-86950000D01*
X151591608Y-86898408D01*
X151608072Y-86731250D01*
X151608072Y-86293750D01*
X151591608Y-86126592D01*
X151542850Y-85965858D01*
X151463671Y-85817725D01*
X151387574Y-85725000D01*
X151389626Y-85722500D01*
X152028397Y-85722500D01*
X151970498Y-85830820D01*
X151934188Y-85950518D01*
X151921928Y-86075000D01*
X151925000Y-86226750D01*
X152083750Y-86385500D01*
X152908000Y-86385500D01*
X152908000Y-86365500D01*
X153162000Y-86365500D01*
X153162000Y-86385500D01*
X153986250Y-86385500D01*
X154145000Y-86226750D01*
X154148072Y-86075000D01*
X154135812Y-85950518D01*
X154099502Y-85830820D01*
X154040537Y-85720506D01*
X153985900Y-85653930D01*
X154003671Y-85632275D01*
X154082850Y-85484142D01*
X154131608Y-85323408D01*
X154148072Y-85156250D01*
X154148072Y-84718750D01*
X154131608Y-84551592D01*
X154082850Y-84390858D01*
X154003671Y-84242725D01*
X153897115Y-84112885D01*
X153767275Y-84006329D01*
X153619142Y-83927150D01*
X153458408Y-83878392D01*
X153291250Y-83861928D01*
X152778750Y-83861928D01*
X152611592Y-83878392D01*
X152450858Y-83927150D01*
X152302725Y-84006329D01*
X152172885Y-84112885D01*
X152140374Y-84152500D01*
X151536467Y-84152500D01*
X151549494Y-84145537D01*
X151646185Y-84066185D01*
X151725537Y-83969494D01*
X151784502Y-83859180D01*
X151820812Y-83739482D01*
X151833072Y-83615000D01*
X151833072Y-80215000D01*
X151820812Y-80090518D01*
X151784502Y-79970820D01*
X151725537Y-79860506D01*
X151646185Y-79763815D01*
X151549494Y-79684463D01*
X151439180Y-79625498D01*
X151319482Y-79589188D01*
X151195000Y-79576928D01*
X149795000Y-79576928D01*
X149670518Y-79589188D01*
X149550820Y-79625498D01*
X149440506Y-79684463D01*
X149343815Y-79763815D01*
X149264463Y-79860506D01*
X149245000Y-79896918D01*
X149225537Y-79860506D01*
X149146185Y-79763815D01*
X149049494Y-79684463D01*
X148939180Y-79625498D01*
X148819482Y-79589188D01*
X148695000Y-79576928D01*
X147295000Y-79576928D01*
X147170518Y-79589188D01*
X147050820Y-79625498D01*
X146940506Y-79684463D01*
X146843815Y-79763815D01*
X146764463Y-79860506D01*
X146705498Y-79970820D01*
X146669188Y-80090518D01*
X146656928Y-80215000D01*
X146656928Y-83615000D01*
X146669188Y-83739482D01*
X146705498Y-83859180D01*
X146764463Y-83969494D01*
X146843815Y-84066185D01*
X146940506Y-84145537D01*
X147027797Y-84192196D01*
X146986329Y-84242725D01*
X146907150Y-84390858D01*
X146858392Y-84551592D01*
X146841928Y-84718750D01*
X146841928Y-85156250D01*
X146858392Y-85323408D01*
X146907150Y-85484142D01*
X146986329Y-85632275D01*
X147062426Y-85725000D01*
X146986329Y-85817725D01*
X146907150Y-85965858D01*
X146858392Y-86126592D01*
X146841928Y-86293750D01*
X146841928Y-86731250D01*
X146858392Y-86898408D01*
X146907150Y-87059142D01*
X146986329Y-87207275D01*
X147092885Y-87337115D01*
X147170001Y-87400402D01*
X147170001Y-87616938D01*
X147166203Y-87655500D01*
X147181359Y-87809386D01*
X147226246Y-87957359D01*
X147240547Y-87984114D01*
X147299139Y-88093733D01*
X147308184Y-88104754D01*
X147331806Y-88133537D01*
X146873981Y-88591362D01*
X146798858Y-88614150D01*
X146650725Y-88693329D01*
X146629070Y-88711100D01*
X146562494Y-88656463D01*
X146452180Y-88597498D01*
X146332482Y-88561188D01*
X146208000Y-88548928D01*
X146056250Y-88552000D01*
X145897500Y-88710750D01*
X145897500Y-89535000D01*
X145917500Y-89535000D01*
X145917500Y-89789000D01*
X145897500Y-89789000D01*
X145897500Y-90613250D01*
X146004135Y-90719885D01*
X146001060Y-90721529D01*
X145885427Y-90816427D01*
X145790529Y-90932060D01*
X145720013Y-91063985D01*
X145676590Y-91207132D01*
X145661928Y-91356000D01*
X145661928Y-91606000D01*
X145676590Y-91754868D01*
X145692101Y-91806000D01*
X145676590Y-91857132D01*
X145661928Y-92006000D01*
X145661928Y-92256000D01*
X145675941Y-92398277D01*
X145665000Y-92499250D01*
X145727188Y-92561438D01*
X145790529Y-92679940D01*
X145873467Y-92781000D01*
X145790529Y-92882060D01*
X145727188Y-93000562D01*
X145665000Y-93062750D01*
X145675941Y-93163723D01*
X145661928Y-93306000D01*
X145661928Y-93556000D01*
X145676590Y-93704868D01*
X145720013Y-93848015D01*
X145790529Y-93979940D01*
X145885427Y-94095573D01*
X146001060Y-94190471D01*
X146132985Y-94260987D01*
X146276132Y-94304410D01*
X146425000Y-94319072D01*
X147800000Y-94319072D01*
X147948868Y-94304410D01*
X148092015Y-94260987D01*
X148223940Y-94190471D01*
X148265000Y-94156774D01*
X148265001Y-98229363D01*
X148159465Y-98299880D01*
X147964880Y-98494465D01*
X147811995Y-98723273D01*
X147755895Y-98858710D01*
X147229605Y-99385000D01*
X147243748Y-99399143D01*
X147064143Y-99578748D01*
X147050000Y-99564605D01*
X147035858Y-99578748D01*
X146856253Y-99399143D01*
X146870395Y-99385000D01*
X146344105Y-98858710D01*
X146288005Y-98723273D01*
X146135120Y-98494465D01*
X146060090Y-98419435D01*
X146264040Y-98419435D01*
X147050000Y-99205395D01*
X147835960Y-98419435D01*
X147768980Y-98179344D01*
X147519952Y-98062244D01*
X147252865Y-97995977D01*
X146977983Y-97983090D01*
X146705867Y-98024078D01*
X146446977Y-98117364D01*
X146331020Y-98179344D01*
X146264040Y-98419435D01*
X146060090Y-98419435D01*
X145940535Y-98299880D01*
X145711727Y-98146995D01*
X145457490Y-98041686D01*
X145187592Y-97988000D01*
X144912408Y-97988000D01*
X144642510Y-98041686D01*
X144388273Y-98146995D01*
X144159465Y-98299880D01*
X144050000Y-98409345D01*
X143940535Y-98299880D01*
X143711727Y-98146995D01*
X143457490Y-98041686D01*
X143187592Y-97988000D01*
X142912408Y-97988000D01*
X142642510Y-98041686D01*
X142388273Y-98146995D01*
X142159465Y-98299880D01*
X142050000Y-98409345D01*
X141940535Y-98299880D01*
X141835000Y-98229364D01*
X141835000Y-97835157D01*
X142230612Y-97439545D01*
X142269820Y-97460502D01*
X142389518Y-97496812D01*
X142514000Y-97509072D01*
X143114000Y-97509072D01*
X143238482Y-97496812D01*
X143358180Y-97460502D01*
X143468494Y-97401537D01*
X143565185Y-97322185D01*
X143644537Y-97225494D01*
X143703502Y-97115180D01*
X143739812Y-96995482D01*
X143752072Y-96871000D01*
X143752072Y-96293085D01*
X143775928Y-96269229D01*
X143775928Y-96871000D01*
X143788188Y-96995482D01*
X143824498Y-97115180D01*
X143883463Y-97225494D01*
X143962815Y-97322185D01*
X144059506Y-97401537D01*
X144169820Y-97460502D01*
X144289518Y-97496812D01*
X144414000Y-97509072D01*
X144766915Y-97509072D01*
X144813653Y-97555810D01*
X144838236Y-97585764D01*
X144957767Y-97683862D01*
X145080767Y-97749606D01*
X145094140Y-97756754D01*
X145242113Y-97801642D01*
X145317026Y-97809020D01*
X145357439Y-97813000D01*
X145357444Y-97813000D01*
X145372801Y-97814512D01*
X145390226Y-97831937D01*
X145559744Y-97945205D01*
X145748102Y-98023226D01*
X145948061Y-98063000D01*
X146151939Y-98063000D01*
X146351898Y-98023226D01*
X146540256Y-97945205D01*
X146709774Y-97831937D01*
X146853937Y-97687774D01*
X146967205Y-97518256D01*
X147045226Y-97329898D01*
X147085000Y-97129939D01*
X147085000Y-96926061D01*
X147045226Y-96726102D01*
X146967205Y-96537744D01*
X146853937Y-96368226D01*
X146709774Y-96224063D01*
X146540256Y-96110795D01*
X146351898Y-96032774D01*
X146151939Y-95993000D01*
X145948061Y-95993000D01*
X145748102Y-96032774D01*
X145652072Y-96072551D01*
X145652072Y-95821000D01*
X145639812Y-95696518D01*
X145603502Y-95576820D01*
X145544537Y-95466506D01*
X145465185Y-95369815D01*
X145368494Y-95290463D01*
X145258180Y-95231498D01*
X145138482Y-95195188D01*
X145014000Y-95182928D01*
X144862229Y-95182928D01*
X145241811Y-94803346D01*
X145271764Y-94778764D01*
X145309080Y-94733295D01*
X145368494Y-94701537D01*
X145465185Y-94622185D01*
X145544537Y-94525494D01*
X145603502Y-94415180D01*
X145639812Y-94295482D01*
X145652072Y-94171000D01*
X145652072Y-93121000D01*
X145639812Y-92996518D01*
X145603502Y-92876820D01*
X145544537Y-92766506D01*
X145465185Y-92669815D01*
X145368494Y-92590463D01*
X145258180Y-92531498D01*
X145138482Y-92495188D01*
X145014000Y-92482928D01*
X144414000Y-92482928D01*
X144289518Y-92495188D01*
X144239000Y-92510512D01*
X144188482Y-92495188D01*
X144064000Y-92482928D01*
X144049750Y-92486000D01*
X143891000Y-92644750D01*
X143891000Y-92757322D01*
X143883463Y-92766506D01*
X143824498Y-92876820D01*
X143788188Y-92996518D01*
X143775928Y-93121000D01*
X143775928Y-93793000D01*
X143752072Y-93793000D01*
X143752072Y-93121000D01*
X143739812Y-92996518D01*
X143703502Y-92876820D01*
X143644537Y-92766506D01*
X143637000Y-92757322D01*
X143637000Y-92644750D01*
X143599000Y-92606750D01*
X143599000Y-91544552D01*
X143602797Y-91505999D01*
X143599000Y-91467446D01*
X143599000Y-91467439D01*
X143587641Y-91352113D01*
X143562959Y-91270748D01*
X143732250Y-91268000D01*
X143891000Y-91109250D01*
X143891000Y-90322500D01*
X143066750Y-90322500D01*
X142908000Y-90481250D01*
X142907830Y-90489672D01*
X142390000Y-89971843D01*
X142390000Y-83210061D01*
X142475000Y-83210061D01*
X142475000Y-83413939D01*
X142514774Y-83613898D01*
X142592795Y-83802256D01*
X142706063Y-83971774D01*
X142850226Y-84115937D01*
X142923184Y-84164686D01*
X142921392Y-84170592D01*
X142904928Y-84337750D01*
X142904928Y-84775250D01*
X142921392Y-84942408D01*
X142970150Y-85103142D01*
X143049329Y-85251275D01*
X143125426Y-85344000D01*
X143049329Y-85436725D01*
X142970150Y-85584858D01*
X142921392Y-85745592D01*
X142904928Y-85912750D01*
X142904928Y-86350250D01*
X142921392Y-86517408D01*
X142970150Y-86678142D01*
X143049329Y-86826275D01*
X143099902Y-86887899D01*
X143022774Y-87074102D01*
X142983000Y-87274061D01*
X142983000Y-87477939D01*
X143022774Y-87677898D01*
X143099902Y-87864101D01*
X143049329Y-87925725D01*
X142970150Y-88073858D01*
X142921392Y-88234592D01*
X142904928Y-88401750D01*
X142904928Y-88839250D01*
X142921392Y-89006408D01*
X142970150Y-89167142D01*
X143049329Y-89315275D01*
X143067100Y-89336930D01*
X143012463Y-89403506D01*
X142953498Y-89513820D01*
X142917188Y-89633518D01*
X142904928Y-89758000D01*
X142908000Y-89909750D01*
X143066750Y-90068500D01*
X143891000Y-90068500D01*
X143891000Y-90048500D01*
X144145000Y-90048500D01*
X144145000Y-90068500D01*
X144165000Y-90068500D01*
X144165000Y-90322500D01*
X144145000Y-90322500D01*
X144145000Y-91109250D01*
X144303750Y-91268000D01*
X144493000Y-91271072D01*
X144617482Y-91258812D01*
X144737180Y-91222502D01*
X144847494Y-91163537D01*
X144944185Y-91084185D01*
X145023537Y-90987494D01*
X145082502Y-90877180D01*
X145118812Y-90757482D01*
X145120905Y-90736235D01*
X145208518Y-90762812D01*
X145333000Y-90775072D01*
X145484750Y-90772000D01*
X145643500Y-90613250D01*
X145643500Y-89789000D01*
X145623500Y-89789000D01*
X145623500Y-89535000D01*
X145643500Y-89535000D01*
X145643500Y-88710750D01*
X145484750Y-88552000D01*
X145333000Y-88548928D01*
X145208518Y-88561188D01*
X145131072Y-88584681D01*
X145131072Y-88401750D01*
X145114608Y-88234592D01*
X145065850Y-88073858D01*
X144986671Y-87925725D01*
X144936098Y-87864101D01*
X145013226Y-87677898D01*
X145053000Y-87477939D01*
X145053000Y-87274061D01*
X145013226Y-87074102D01*
X144936098Y-86887899D01*
X144986671Y-86826275D01*
X145065850Y-86678142D01*
X145114608Y-86517408D01*
X145131072Y-86350250D01*
X145131072Y-85912750D01*
X145114608Y-85745592D01*
X145065850Y-85584858D01*
X144986671Y-85436725D01*
X144910574Y-85344000D01*
X144986671Y-85251275D01*
X145065850Y-85103142D01*
X145114608Y-84942408D01*
X145131072Y-84775250D01*
X145131072Y-84337750D01*
X145114608Y-84170592D01*
X145065850Y-84009858D01*
X144986671Y-83861725D01*
X144880115Y-83731885D01*
X144788880Y-83657011D01*
X144746754Y-83518140D01*
X144673862Y-83381767D01*
X144575764Y-83262236D01*
X144545810Y-83237653D01*
X144545000Y-83236843D01*
X144545000Y-83210061D01*
X144505226Y-83010102D01*
X144427205Y-82821744D01*
X144313937Y-82652226D01*
X144169774Y-82508063D01*
X144000256Y-82394795D01*
X143811898Y-82316774D01*
X143611939Y-82277000D01*
X143408061Y-82277000D01*
X143208102Y-82316774D01*
X143019744Y-82394795D01*
X142850226Y-82508063D01*
X142706063Y-82652226D01*
X142592795Y-82821744D01*
X142514774Y-83010102D01*
X142475000Y-83210061D01*
X142390000Y-83210061D01*
X142390000Y-82562636D01*
X142495535Y-82492120D01*
X142690120Y-82297535D01*
X142843005Y-82068727D01*
X142948314Y-81814490D01*
X143002000Y-81544592D01*
X143002000Y-81269408D01*
X142948314Y-80999510D01*
X142843005Y-80745273D01*
X142690120Y-80516465D01*
X142495535Y-80321880D01*
X142266727Y-80168995D01*
X142012490Y-80063686D01*
X141742592Y-80010000D01*
X141467408Y-80010000D01*
X141197510Y-80063686D01*
X140943273Y-80168995D01*
X140714465Y-80321880D01*
X140519880Y-80516465D01*
X140366995Y-80745273D01*
X140261686Y-80999510D01*
X140208000Y-81269408D01*
X140208000Y-81544592D01*
X140261686Y-81814490D01*
X140366995Y-82068727D01*
X140519880Y-82297535D01*
X140714465Y-82492120D01*
X140820001Y-82562637D01*
X140820000Y-90258447D01*
X140816203Y-90297000D01*
X140820000Y-90335553D01*
X140820000Y-90335560D01*
X140831359Y-90450886D01*
X140876246Y-90598859D01*
X140949138Y-90735232D01*
X141047236Y-90854764D01*
X141077190Y-90879347D01*
X142029001Y-91831159D01*
X142029000Y-92711018D01*
X141983463Y-92766506D01*
X141924498Y-92876820D01*
X141888188Y-92996518D01*
X141875928Y-93121000D01*
X141875928Y-94171000D01*
X141888188Y-94295482D01*
X141924498Y-94415180D01*
X141983463Y-94525494D01*
X142062815Y-94622185D01*
X142159506Y-94701537D01*
X142269820Y-94760502D01*
X142389518Y-94796812D01*
X142514000Y-94809072D01*
X143015771Y-94809072D01*
X142641915Y-95182928D01*
X142514000Y-95182928D01*
X142389518Y-95195188D01*
X142269820Y-95231498D01*
X142159506Y-95290463D01*
X142062815Y-95369815D01*
X141983463Y-95466506D01*
X141924498Y-95576820D01*
X141912245Y-95617214D01*
X141912140Y-95617246D01*
X141784583Y-95685426D01*
X141788072Y-95650000D01*
X141788072Y-94850000D01*
X141775812Y-94725518D01*
X141739502Y-94605820D01*
X141680537Y-94495506D01*
X141601185Y-94398815D01*
X141504494Y-94319463D01*
X141394180Y-94260498D01*
X141274482Y-94224188D01*
X141150000Y-94211928D01*
X140250000Y-94211928D01*
X140125518Y-94224188D01*
X140005820Y-94260498D01*
X139895506Y-94319463D01*
X139798815Y-94398815D01*
X139788072Y-94411905D01*
X139788072Y-93900000D01*
X139775812Y-93775518D01*
X139739502Y-93655820D01*
X139680537Y-93545506D01*
X139601185Y-93448815D01*
X139504494Y-93369463D01*
X139485000Y-93359043D01*
X139485000Y-90365132D01*
X139726727Y-90265005D01*
X139955535Y-90112120D01*
X140150120Y-89917535D01*
X140303005Y-89688727D01*
X140408314Y-89434490D01*
X140462000Y-89164592D01*
X140462000Y-88889408D01*
X140408314Y-88619510D01*
X140303005Y-88365273D01*
X140150120Y-88136465D01*
X139955535Y-87941880D01*
X139726727Y-87788995D01*
X139472490Y-87683686D01*
X139202592Y-87630000D01*
X138927408Y-87630000D01*
X138657510Y-87683686D01*
X138403273Y-87788995D01*
X138174465Y-87941880D01*
X137979880Y-88136465D01*
X137826995Y-88365273D01*
X137721686Y-88619510D01*
X137668000Y-88889408D01*
X137668000Y-89164592D01*
X137721686Y-89434490D01*
X137826995Y-89688727D01*
X137915001Y-89820437D01*
X137915000Y-93359043D01*
X137895506Y-93369463D01*
X137798815Y-93448815D01*
X137719463Y-93545506D01*
X137660498Y-93655820D01*
X137624188Y-93775518D01*
X137611928Y-93900000D01*
X136550000Y-93900000D01*
X136550000Y-77292565D01*
X138279040Y-77292565D01*
X138346020Y-77532656D01*
X138595048Y-77649756D01*
X138862135Y-77716023D01*
X139137017Y-77728910D01*
X139409133Y-77687922D01*
X139668023Y-77594636D01*
X139783980Y-77532656D01*
X139850960Y-77292565D01*
X139065000Y-76506605D01*
X138279040Y-77292565D01*
X136550000Y-77292565D01*
X136550000Y-76399017D01*
X137663090Y-76399017D01*
X137704078Y-76671133D01*
X137797364Y-76930023D01*
X137859344Y-77045980D01*
X138099435Y-77112960D01*
X138885395Y-76327000D01*
X139244605Y-76327000D01*
X140030565Y-77112960D01*
X140270656Y-77045980D01*
X140387756Y-76796952D01*
X140454023Y-76529865D01*
X140466910Y-76254983D01*
X140425922Y-75982867D01*
X140332636Y-75723977D01*
X140270656Y-75608020D01*
X140030565Y-75541040D01*
X139244605Y-76327000D01*
X138885395Y-76327000D01*
X138099435Y-75541040D01*
X137859344Y-75608020D01*
X137742244Y-75857048D01*
X137675977Y-76124135D01*
X137663090Y-76399017D01*
X136550000Y-76399017D01*
X136550000Y-75361435D01*
X138279040Y-75361435D01*
X139065000Y-76147395D01*
X139850960Y-75361435D01*
X139783980Y-75121344D01*
X139534952Y-75004244D01*
X139267865Y-74937977D01*
X138992983Y-74925090D01*
X138720867Y-74966078D01*
X138461977Y-75059364D01*
X138346020Y-75121344D01*
X138279040Y-75361435D01*
X136550000Y-75361435D01*
X136550000Y-72415000D01*
X143666777Y-72415000D01*
X143656928Y-72515000D01*
G37*
X143656928Y-72515000D02*
X143656928Y-78115000D01*
X143669188Y-78239482D01*
X143705498Y-78359180D01*
X143764463Y-78469494D01*
X143843815Y-78566185D01*
X143940506Y-78645537D01*
X144050820Y-78704502D01*
X144170518Y-78740812D01*
X144295000Y-78753072D01*
X146595000Y-78753072D01*
X146719482Y-78740812D01*
X146839180Y-78704502D01*
X146949494Y-78645537D01*
X147046185Y-78566185D01*
X147125537Y-78469494D01*
X147184502Y-78359180D01*
X147220812Y-78239482D01*
X147233072Y-78115000D01*
X147233072Y-72515000D01*
X147223223Y-72415000D01*
X151266777Y-72415000D01*
X151256928Y-72515000D01*
X151256928Y-78115000D01*
X151269188Y-78239482D01*
X151305498Y-78359180D01*
X151364463Y-78469494D01*
X151443815Y-78566185D01*
X151540506Y-78645537D01*
X151650820Y-78704502D01*
X151770518Y-78740812D01*
X151895000Y-78753072D01*
X154195000Y-78753072D01*
X154319482Y-78740812D01*
X154439180Y-78704502D01*
X154549494Y-78645537D01*
X154646185Y-78566185D01*
X154725537Y-78469494D01*
X154784502Y-78359180D01*
X154820812Y-78239482D01*
X154833072Y-78115000D01*
X154833072Y-72515000D01*
X154823223Y-72415000D01*
X155550001Y-72415000D01*
X155550000Y-100480005D01*
X155457490Y-100441686D01*
X155187592Y-100388000D01*
X154912408Y-100388000D01*
X154642510Y-100441686D01*
X154388273Y-100546995D01*
X154159465Y-100699880D01*
X153964880Y-100894465D01*
X153811995Y-101123273D01*
X153706686Y-101377510D01*
X153653000Y-101647408D01*
X153653000Y-101922592D01*
X153706686Y-102192490D01*
X153811995Y-102446727D01*
X153964880Y-102675535D01*
X154159465Y-102870120D01*
X154388273Y-103023005D01*
X154642510Y-103128314D01*
X154912408Y-103182000D01*
X155187592Y-103182000D01*
X155457490Y-103128314D01*
X155550000Y-103089995D01*
X155550000Y-107925000D01*
X136550000Y-107925000D01*
X136550000Y-103089995D01*
X136642510Y-103128314D01*
X136912408Y-103182000D01*
X137187592Y-103182000D01*
X137457490Y-103128314D01*
X137711727Y-103023005D01*
X137940535Y-102870120D01*
X138135120Y-102675535D01*
X138288005Y-102446727D01*
X138393314Y-102192490D01*
X138447000Y-101922592D01*
X138447000Y-101647408D01*
X138393314Y-101377510D01*
X138288005Y-101123273D01*
X138135120Y-100894465D01*
X137940535Y-100699880D01*
X137711727Y-100546995D01*
X137457490Y-100441686D01*
X137187592Y-100388000D01*
X136912408Y-100388000D01*
X136642510Y-100441686D01*
X136550000Y-100480005D01*
X136550000Y-100350565D01*
X138264040Y-100350565D01*
X138331020Y-100590656D01*
X138580048Y-100707756D01*
X138847135Y-100774023D01*
X139122017Y-100786910D01*
X139394133Y-100745922D01*
X139653023Y-100652636D01*
X139768980Y-100590656D01*
X139835960Y-100350565D01*
X139050000Y-99564605D01*
X138264040Y-100350565D01*
X136550000Y-100350565D01*
X136550000Y-99457017D01*
X137648090Y-99457017D01*
X137689078Y-99729133D01*
X137782364Y-99988023D01*
X137844344Y-100103980D01*
X138084435Y-100170960D01*
X138870395Y-99385000D01*
X138084435Y-98599040D01*
X137844344Y-98666020D01*
X137727244Y-98915048D01*
X137660977Y-99182135D01*
X137648090Y-99457017D01*
X136550000Y-99457017D01*
X136550000Y-98419435D01*
X138264040Y-98419435D01*
X139050000Y-99205395D01*
X139835960Y-98419435D01*
X139768980Y-98179344D01*
X139519952Y-98062244D01*
X139252865Y-97995977D01*
X138977983Y-97983090D01*
X138705867Y-98024078D01*
X138446977Y-98117364D01*
X138331020Y-98179344D01*
X138264040Y-98419435D01*
X136550000Y-98419435D01*
X136550000Y-96600000D01*
X137611928Y-96600000D01*
X137624188Y-96724482D01*
X137660498Y-96844180D01*
X137719463Y-96954494D01*
X137798815Y-97051185D01*
X137895506Y-97130537D01*
X138005820Y-97189502D01*
X138125518Y-97225812D01*
X138250000Y-97238072D01*
X138414250Y-97235000D01*
X138573000Y-97076250D01*
X138573000Y-96327000D01*
X138827000Y-96327000D01*
X138827000Y-97076250D01*
X138985750Y-97235000D01*
X139150000Y-97238072D01*
X139274482Y-97225812D01*
X139394180Y-97189502D01*
X139504494Y-97130537D01*
X139601185Y-97051185D01*
X139680537Y-96954494D01*
X139739502Y-96844180D01*
X139775812Y-96724482D01*
X139788072Y-96600000D01*
X139785000Y-96485750D01*
X139626250Y-96327000D01*
X138827000Y-96327000D01*
X138573000Y-96327000D01*
X137773750Y-96327000D01*
X137615000Y-96485750D01*
X137611928Y-96600000D01*
X136550000Y-96600000D01*
X136550000Y-93900000D01*
X137611928Y-93900000D01*
X137611928Y-94700000D01*
X137624188Y-94824482D01*
X137660498Y-94944180D01*
X137719463Y-95054494D01*
X137798815Y-95151185D01*
X137895506Y-95230537D01*
X137931918Y-95250000D01*
X137895506Y-95269463D01*
X137798815Y-95348815D01*
X137719463Y-95445506D01*
X137660498Y-95555820D01*
X137624188Y-95675518D01*
X137611928Y-95800000D01*
X137615000Y-95914250D01*
X137773750Y-96073000D01*
X138573000Y-96073000D01*
X138573000Y-96053000D01*
X138827000Y-96053000D01*
X138827000Y-96073000D01*
X139626250Y-96073000D01*
X139710857Y-95988393D01*
X139719463Y-96004494D01*
X139798815Y-96101185D01*
X139895506Y-96180537D01*
X140005820Y-96239502D01*
X140125518Y-96275812D01*
X140250000Y-96288072D01*
X141150000Y-96288072D01*
X141163057Y-96286786D01*
X140522185Y-96927658D01*
X140492237Y-96952236D01*
X140467659Y-96982184D01*
X140467655Y-96982188D01*
X140456745Y-96995482D01*
X140394139Y-97071767D01*
X140391743Y-97076250D01*
X140321246Y-97208141D01*
X140276359Y-97356114D01*
X140261203Y-97510000D01*
X140265001Y-97548562D01*
X140265001Y-98229363D01*
X140159465Y-98299880D01*
X139964880Y-98494465D01*
X139811995Y-98723273D01*
X139755895Y-98858710D01*
X139229605Y-99385000D01*
X139755895Y-99911290D01*
X139811995Y-100046727D01*
X139964880Y-100275535D01*
X140159465Y-100470120D01*
X140388273Y-100623005D01*
X140642510Y-100728314D01*
X140912408Y-100782000D01*
X141187592Y-100782000D01*
X141457490Y-100728314D01*
X141711727Y-100623005D01*
X141940535Y-100470120D01*
X142050000Y-100360655D01*
X142159465Y-100470120D01*
X142269159Y-100543416D01*
X142276359Y-100616516D01*
X142321246Y-100764489D01*
X142355177Y-100827970D01*
X142394139Y-100900863D01*
X142424710Y-100938113D01*
X142467655Y-100990442D01*
X142467659Y-100990446D01*
X142492237Y-101020394D01*
X142522185Y-101044972D01*
X143097023Y-101619810D01*
X143121606Y-101649764D01*
X143241137Y-101747862D01*
X143377510Y-101820754D01*
X143525483Y-101865642D01*
X143600396Y-101873020D01*
X143640809Y-101877000D01*
X143640814Y-101877000D01*
X143679370Y-101880797D01*
X143717926Y-101877000D01*
X148382077Y-101877000D01*
X148420630Y-101880797D01*
X148459183Y-101877000D01*
X148459191Y-101877000D01*
X148574517Y-101865641D01*
X148722490Y-101820754D01*
X148858863Y-101747862D01*
X148978394Y-101649764D01*
X149002977Y-101619810D01*
X149577811Y-101044976D01*
X149607764Y-101020394D01*
X149705862Y-100900863D01*
X149778754Y-100764490D01*
X149795964Y-100707756D01*
X149823642Y-100616517D01*
X149830841Y-100543415D01*
X149940535Y-100470120D01*
X150050000Y-100360655D01*
X150159465Y-100470120D01*
X150388273Y-100623005D01*
X150642510Y-100728314D01*
X150912408Y-100782000D01*
X151187592Y-100782000D01*
X151457490Y-100728314D01*
X151711727Y-100623005D01*
X151940535Y-100470120D01*
X152050000Y-100360655D01*
X152159465Y-100470120D01*
X152388273Y-100623005D01*
X152642510Y-100728314D01*
X152912408Y-100782000D01*
X153187592Y-100782000D01*
X153457490Y-100728314D01*
X153711727Y-100623005D01*
X153940535Y-100470120D01*
X154135120Y-100275535D01*
X154288005Y-100046727D01*
X154393314Y-99792490D01*
X154447000Y-99522592D01*
X154447000Y-99247408D01*
X154393314Y-98977510D01*
X154288005Y-98723273D01*
X154135120Y-98494465D01*
X153940535Y-98299880D01*
X153835000Y-98229364D01*
X153835000Y-94815056D01*
X153957000Y-94827072D01*
X154146250Y-94824000D01*
X154305000Y-94665250D01*
X154305000Y-93878500D01*
X154559000Y-93878500D01*
X154559000Y-94665250D01*
X154717750Y-94824000D01*
X154907000Y-94827072D01*
X155031482Y-94814812D01*
X155151180Y-94778502D01*
X155261494Y-94719537D01*
X155358185Y-94640185D01*
X155437537Y-94543494D01*
X155496502Y-94433180D01*
X155532812Y-94313482D01*
X155545072Y-94189000D01*
X155542000Y-94037250D01*
X155383250Y-93878500D01*
X154559000Y-93878500D01*
X154305000Y-93878500D01*
X154285000Y-93878500D01*
X154285000Y-93624500D01*
X154305000Y-93624500D01*
X154305000Y-93604500D01*
X154559000Y-93604500D01*
X154559000Y-93624500D01*
X155383250Y-93624500D01*
X155542000Y-93465750D01*
X155545072Y-93314000D01*
X155532812Y-93189518D01*
X155496502Y-93069820D01*
X155437537Y-92959506D01*
X155382900Y-92892930D01*
X155400671Y-92871275D01*
X155479850Y-92723142D01*
X155528608Y-92562408D01*
X155545072Y-92395250D01*
X155545072Y-91957750D01*
X155528608Y-91790592D01*
X155479850Y-91629858D01*
X155400671Y-91481725D01*
X155294115Y-91351885D01*
X155164275Y-91245329D01*
X155016142Y-91166150D01*
X154855408Y-91117392D01*
X154688250Y-91100928D01*
X154175750Y-91100928D01*
X154008592Y-91117392D01*
X153847858Y-91166150D01*
X153699725Y-91245329D01*
X153577056Y-91346000D01*
X152787087Y-91346000D01*
X152773410Y-91207132D01*
X152729987Y-91063985D01*
X152659471Y-90932060D01*
X152564573Y-90816427D01*
X152448940Y-90721529D01*
X152445865Y-90719885D01*
X152552500Y-90613250D01*
X152552500Y-89789000D01*
X152806500Y-89789000D01*
X152806500Y-90613250D01*
X152965250Y-90772000D01*
X153117000Y-90775072D01*
X153241482Y-90762812D01*
X153361180Y-90726502D01*
X153471494Y-90667537D01*
X153568185Y-90588185D01*
X153647537Y-90491494D01*
X153706502Y-90381180D01*
X153742812Y-90261482D01*
X153755072Y-90137000D01*
X153752000Y-89947750D01*
X153593250Y-89789000D01*
X152806500Y-89789000D01*
X152552500Y-89789000D01*
X152532500Y-89789000D01*
X152532500Y-89535000D01*
X152552500Y-89535000D01*
X152552500Y-88710750D01*
X152806500Y-88710750D01*
X152806500Y-89535000D01*
X153593250Y-89535000D01*
X153752000Y-89376250D01*
X153755072Y-89187000D01*
X153742812Y-89062518D01*
X153706502Y-88942820D01*
X153647537Y-88832506D01*
X153568185Y-88735815D01*
X153471494Y-88656463D01*
X153361180Y-88597498D01*
X153241482Y-88561188D01*
X153117000Y-88548928D01*
X152965250Y-88552000D01*
X152806500Y-88710750D01*
X152552500Y-88710750D01*
X152393750Y-88552000D01*
X152242000Y-88548928D01*
X152117518Y-88561188D01*
X151997820Y-88597498D01*
X151887506Y-88656463D01*
X151820930Y-88711100D01*
X151799275Y-88693329D01*
X151651142Y-88614150D01*
X151576020Y-88591362D01*
X151118195Y-88133537D01*
X151150862Y-88093733D01*
X151223754Y-87957360D01*
X151268641Y-87809387D01*
X151280000Y-87694061D01*
X151280000Y-87694054D01*
X151283797Y-87655501D01*
X151280000Y-87616948D01*
X151280000Y-87400401D01*
X151357115Y-87337115D01*
X151463671Y-87207275D01*
X151542850Y-87059142D01*
X151575957Y-86950000D01*
X151921928Y-86950000D01*
X151934188Y-87074482D01*
X151970498Y-87194180D01*
X152029463Y-87304494D01*
X152108815Y-87401185D01*
X152205506Y-87480537D01*
X152315820Y-87539502D01*
X152435518Y-87575812D01*
X152560000Y-87588072D01*
X152749250Y-87585000D01*
X152908000Y-87426250D01*
X152908000Y-86639500D01*
X153162000Y-86639500D01*
X153162000Y-87426250D01*
X153320750Y-87585000D01*
X153510000Y-87588072D01*
X153634482Y-87575812D01*
X153754180Y-87539502D01*
X153864494Y-87480537D01*
X153961185Y-87401185D01*
X154040537Y-87304494D01*
X154099502Y-87194180D01*
X154135812Y-87074482D01*
X154148072Y-86950000D01*
X154145000Y-86798250D01*
X153986250Y-86639500D01*
X153162000Y-86639500D01*
X152908000Y-86639500D01*
X152083750Y-86639500D01*
X151925000Y-86798250D01*
X151921928Y-86950000D01*
X151575957Y-86950000D01*
X151591608Y-86898408D01*
X151608072Y-86731250D01*
X151608072Y-86293750D01*
X151591608Y-86126592D01*
X151542850Y-85965858D01*
X151463671Y-85817725D01*
X151387574Y-85725000D01*
X151389626Y-85722500D01*
X152028397Y-85722500D01*
X151970498Y-85830820D01*
X151934188Y-85950518D01*
X151921928Y-86075000D01*
X151925000Y-86226750D01*
X152083750Y-86385500D01*
X152908000Y-86385500D01*
X152908000Y-86365500D01*
X153162000Y-86365500D01*
X153162000Y-86385500D01*
X153986250Y-86385500D01*
X154145000Y-86226750D01*
X154148072Y-86075000D01*
X154135812Y-85950518D01*
X154099502Y-85830820D01*
X154040537Y-85720506D01*
X153985900Y-85653930D01*
X154003671Y-85632275D01*
X154082850Y-85484142D01*
X154131608Y-85323408D01*
X154148072Y-85156250D01*
X154148072Y-84718750D01*
X154131608Y-84551592D01*
X154082850Y-84390858D01*
X154003671Y-84242725D01*
X153897115Y-84112885D01*
X153767275Y-84006329D01*
X153619142Y-83927150D01*
X153458408Y-83878392D01*
X153291250Y-83861928D01*
X152778750Y-83861928D01*
X152611592Y-83878392D01*
X152450858Y-83927150D01*
X152302725Y-84006329D01*
X152172885Y-84112885D01*
X152140374Y-84152500D01*
X151536467Y-84152500D01*
X151549494Y-84145537D01*
X151646185Y-84066185D01*
X151725537Y-83969494D01*
X151784502Y-83859180D01*
X151820812Y-83739482D01*
X151833072Y-83615000D01*
X151833072Y-80215000D01*
X151820812Y-80090518D01*
X151784502Y-79970820D01*
X151725537Y-79860506D01*
X151646185Y-79763815D01*
X151549494Y-79684463D01*
X151439180Y-79625498D01*
X151319482Y-79589188D01*
X151195000Y-79576928D01*
X149795000Y-79576928D01*
X149670518Y-79589188D01*
X149550820Y-79625498D01*
X149440506Y-79684463D01*
X149343815Y-79763815D01*
X149264463Y-79860506D01*
X149245000Y-79896918D01*
X149225537Y-79860506D01*
X149146185Y-79763815D01*
X149049494Y-79684463D01*
X148939180Y-79625498D01*
X148819482Y-79589188D01*
X148695000Y-79576928D01*
X147295000Y-79576928D01*
X147170518Y-79589188D01*
X147050820Y-79625498D01*
X146940506Y-79684463D01*
X146843815Y-79763815D01*
X146764463Y-79860506D01*
X146705498Y-79970820D01*
X146669188Y-80090518D01*
X146656928Y-80215000D01*
X146656928Y-83615000D01*
X146669188Y-83739482D01*
X146705498Y-83859180D01*
X146764463Y-83969494D01*
X146843815Y-84066185D01*
X146940506Y-84145537D01*
X147027797Y-84192196D01*
X146986329Y-84242725D01*
X146907150Y-84390858D01*
X146858392Y-84551592D01*
X146841928Y-84718750D01*
X146841928Y-85156250D01*
X146858392Y-85323408D01*
X146907150Y-85484142D01*
X146986329Y-85632275D01*
X147062426Y-85725000D01*
X146986329Y-85817725D01*
X146907150Y-85965858D01*
X146858392Y-86126592D01*
X146841928Y-86293750D01*
X146841928Y-86731250D01*
X146858392Y-86898408D01*
X146907150Y-87059142D01*
X146986329Y-87207275D01*
X147092885Y-87337115D01*
X147170001Y-87400402D01*
X147170001Y-87616938D01*
X147166203Y-87655500D01*
X147181359Y-87809386D01*
X147226246Y-87957359D01*
X147240547Y-87984114D01*
X147299139Y-88093733D01*
X147308184Y-88104754D01*
X147331806Y-88133537D01*
X146873981Y-88591362D01*
X146798858Y-88614150D01*
X146650725Y-88693329D01*
X146629070Y-88711100D01*
X146562494Y-88656463D01*
X146452180Y-88597498D01*
X146332482Y-88561188D01*
X146208000Y-88548928D01*
X146056250Y-88552000D01*
X145897500Y-88710750D01*
X145897500Y-89535000D01*
X145917500Y-89535000D01*
X145917500Y-89789000D01*
X145897500Y-89789000D01*
X145897500Y-90613250D01*
X146004135Y-90719885D01*
X146001060Y-90721529D01*
X145885427Y-90816427D01*
X145790529Y-90932060D01*
X145720013Y-91063985D01*
X145676590Y-91207132D01*
X145661928Y-91356000D01*
X145661928Y-91606000D01*
X145676590Y-91754868D01*
X145692101Y-91806000D01*
X145676590Y-91857132D01*
X145661928Y-92006000D01*
X145661928Y-92256000D01*
X145675941Y-92398277D01*
X145665000Y-92499250D01*
X145727188Y-92561438D01*
X145790529Y-92679940D01*
X145873467Y-92781000D01*
X145790529Y-92882060D01*
X145727188Y-93000562D01*
X145665000Y-93062750D01*
X145675941Y-93163723D01*
X145661928Y-93306000D01*
X145661928Y-93556000D01*
X145676590Y-93704868D01*
X145720013Y-93848015D01*
X145790529Y-93979940D01*
X145885427Y-94095573D01*
X146001060Y-94190471D01*
X146132985Y-94260987D01*
X146276132Y-94304410D01*
X146425000Y-94319072D01*
X147800000Y-94319072D01*
X147948868Y-94304410D01*
X148092015Y-94260987D01*
X148223940Y-94190471D01*
X148265000Y-94156774D01*
X148265001Y-98229363D01*
X148159465Y-98299880D01*
X147964880Y-98494465D01*
X147811995Y-98723273D01*
X147755895Y-98858710D01*
X147229605Y-99385000D01*
X147243748Y-99399143D01*
X147064143Y-99578748D01*
X147050000Y-99564605D01*
X147035858Y-99578748D01*
X146856253Y-99399143D01*
X146870395Y-99385000D01*
X146344105Y-98858710D01*
X146288005Y-98723273D01*
X146135120Y-98494465D01*
X146060090Y-98419435D01*
X146264040Y-98419435D01*
X147050000Y-99205395D01*
X147835960Y-98419435D01*
X147768980Y-98179344D01*
X147519952Y-98062244D01*
X147252865Y-97995977D01*
X146977983Y-97983090D01*
X146705867Y-98024078D01*
X146446977Y-98117364D01*
X146331020Y-98179344D01*
X146264040Y-98419435D01*
X146060090Y-98419435D01*
X145940535Y-98299880D01*
X145711727Y-98146995D01*
X145457490Y-98041686D01*
X145187592Y-97988000D01*
X144912408Y-97988000D01*
X144642510Y-98041686D01*
X144388273Y-98146995D01*
X144159465Y-98299880D01*
X144050000Y-98409345D01*
X143940535Y-98299880D01*
X143711727Y-98146995D01*
X143457490Y-98041686D01*
X143187592Y-97988000D01*
X142912408Y-97988000D01*
X142642510Y-98041686D01*
X142388273Y-98146995D01*
X142159465Y-98299880D01*
X142050000Y-98409345D01*
X141940535Y-98299880D01*
X141835000Y-98229364D01*
X141835000Y-97835157D01*
X142230612Y-97439545D01*
X142269820Y-97460502D01*
X142389518Y-97496812D01*
X142514000Y-97509072D01*
X143114000Y-97509072D01*
X143238482Y-97496812D01*
X143358180Y-97460502D01*
X143468494Y-97401537D01*
X143565185Y-97322185D01*
X143644537Y-97225494D01*
X143703502Y-97115180D01*
X143739812Y-96995482D01*
X143752072Y-96871000D01*
X143752072Y-96293085D01*
X143775928Y-96269229D01*
X143775928Y-96871000D01*
X143788188Y-96995482D01*
X143824498Y-97115180D01*
X143883463Y-97225494D01*
X143962815Y-97322185D01*
X144059506Y-97401537D01*
X144169820Y-97460502D01*
X144289518Y-97496812D01*
X144414000Y-97509072D01*
X144766915Y-97509072D01*
X144813653Y-97555810D01*
X144838236Y-97585764D01*
X144957767Y-97683862D01*
X145080767Y-97749606D01*
X145094140Y-97756754D01*
X145242113Y-97801642D01*
X145317026Y-97809020D01*
X145357439Y-97813000D01*
X145357444Y-97813000D01*
X145372801Y-97814512D01*
X145390226Y-97831937D01*
X145559744Y-97945205D01*
X145748102Y-98023226D01*
X145948061Y-98063000D01*
X146151939Y-98063000D01*
X146351898Y-98023226D01*
X146540256Y-97945205D01*
X146709774Y-97831937D01*
X146853937Y-97687774D01*
X146967205Y-97518256D01*
X147045226Y-97329898D01*
X147085000Y-97129939D01*
X147085000Y-96926061D01*
X147045226Y-96726102D01*
X146967205Y-96537744D01*
X146853937Y-96368226D01*
X146709774Y-96224063D01*
X146540256Y-96110795D01*
X146351898Y-96032774D01*
X146151939Y-95993000D01*
X145948061Y-95993000D01*
X145748102Y-96032774D01*
X145652072Y-96072551D01*
X145652072Y-95821000D01*
X145639812Y-95696518D01*
X145603502Y-95576820D01*
X145544537Y-95466506D01*
X145465185Y-95369815D01*
X145368494Y-95290463D01*
X145258180Y-95231498D01*
X145138482Y-95195188D01*
X145014000Y-95182928D01*
X144862229Y-95182928D01*
X145241811Y-94803346D01*
X145271764Y-94778764D01*
X145309080Y-94733295D01*
X145368494Y-94701537D01*
X145465185Y-94622185D01*
X145544537Y-94525494D01*
X145603502Y-94415180D01*
X145639812Y-94295482D01*
X145652072Y-94171000D01*
X145652072Y-93121000D01*
X145639812Y-92996518D01*
X145603502Y-92876820D01*
X145544537Y-92766506D01*
X145465185Y-92669815D01*
X145368494Y-92590463D01*
X145258180Y-92531498D01*
X145138482Y-92495188D01*
X145014000Y-92482928D01*
X144414000Y-92482928D01*
X144289518Y-92495188D01*
X144239000Y-92510512D01*
X144188482Y-92495188D01*
X144064000Y-92482928D01*
X144049750Y-92486000D01*
X143891000Y-92644750D01*
X143891000Y-92757322D01*
X143883463Y-92766506D01*
X143824498Y-92876820D01*
X143788188Y-92996518D01*
X143775928Y-93121000D01*
X143775928Y-93793000D01*
X143752072Y-93793000D01*
X143752072Y-93121000D01*
X143739812Y-92996518D01*
X143703502Y-92876820D01*
X143644537Y-92766506D01*
X143637000Y-92757322D01*
X143637000Y-92644750D01*
X143599000Y-92606750D01*
X143599000Y-91544552D01*
X143602797Y-91505999D01*
X143599000Y-91467446D01*
X143599000Y-91467439D01*
X143587641Y-91352113D01*
X143562959Y-91270748D01*
X143732250Y-91268000D01*
X143891000Y-91109250D01*
X143891000Y-90322500D01*
X143066750Y-90322500D01*
X142908000Y-90481250D01*
X142907830Y-90489672D01*
X142390000Y-89971843D01*
X142390000Y-83210061D01*
X142475000Y-83210061D01*
X142475000Y-83413939D01*
X142514774Y-83613898D01*
X142592795Y-83802256D01*
X142706063Y-83971774D01*
X142850226Y-84115937D01*
X142923184Y-84164686D01*
X142921392Y-84170592D01*
X142904928Y-84337750D01*
X142904928Y-84775250D01*
X142921392Y-84942408D01*
X142970150Y-85103142D01*
X143049329Y-85251275D01*
X143125426Y-85344000D01*
X143049329Y-85436725D01*
X142970150Y-85584858D01*
X142921392Y-85745592D01*
X142904928Y-85912750D01*
X142904928Y-86350250D01*
X142921392Y-86517408D01*
X142970150Y-86678142D01*
X143049329Y-86826275D01*
X143099902Y-86887899D01*
X143022774Y-87074102D01*
X142983000Y-87274061D01*
X142983000Y-87477939D01*
X143022774Y-87677898D01*
X143099902Y-87864101D01*
X143049329Y-87925725D01*
X142970150Y-88073858D01*
X142921392Y-88234592D01*
X142904928Y-88401750D01*
X142904928Y-88839250D01*
X142921392Y-89006408D01*
X142970150Y-89167142D01*
X143049329Y-89315275D01*
X143067100Y-89336930D01*
X143012463Y-89403506D01*
X142953498Y-89513820D01*
X142917188Y-89633518D01*
X142904928Y-89758000D01*
X142908000Y-89909750D01*
X143066750Y-90068500D01*
X143891000Y-90068500D01*
X143891000Y-90048500D01*
X144145000Y-90048500D01*
X144145000Y-90068500D01*
X144165000Y-90068500D01*
X144165000Y-90322500D01*
X144145000Y-90322500D01*
X144145000Y-91109250D01*
X144303750Y-91268000D01*
X144493000Y-91271072D01*
X144617482Y-91258812D01*
X144737180Y-91222502D01*
X144847494Y-91163537D01*
X144944185Y-91084185D01*
X145023537Y-90987494D01*
X145082502Y-90877180D01*
X145118812Y-90757482D01*
X145120905Y-90736235D01*
X145208518Y-90762812D01*
X145333000Y-90775072D01*
X145484750Y-90772000D01*
X145643500Y-90613250D01*
X145643500Y-89789000D01*
X145623500Y-89789000D01*
X145623500Y-89535000D01*
X145643500Y-89535000D01*
X145643500Y-88710750D01*
X145484750Y-88552000D01*
X145333000Y-88548928D01*
X145208518Y-88561188D01*
X145131072Y-88584681D01*
X145131072Y-88401750D01*
X145114608Y-88234592D01*
X145065850Y-88073858D01*
X144986671Y-87925725D01*
X144936098Y-87864101D01*
X145013226Y-87677898D01*
X145053000Y-87477939D01*
X145053000Y-87274061D01*
X145013226Y-87074102D01*
X144936098Y-86887899D01*
X144986671Y-86826275D01*
X145065850Y-86678142D01*
X145114608Y-86517408D01*
X145131072Y-86350250D01*
X145131072Y-85912750D01*
X145114608Y-85745592D01*
X145065850Y-85584858D01*
X144986671Y-85436725D01*
X144910574Y-85344000D01*
X144986671Y-85251275D01*
X145065850Y-85103142D01*
X145114608Y-84942408D01*
X145131072Y-84775250D01*
X145131072Y-84337750D01*
X145114608Y-84170592D01*
X145065850Y-84009858D01*
X144986671Y-83861725D01*
X144880115Y-83731885D01*
X144788880Y-83657011D01*
X144746754Y-83518140D01*
X144673862Y-83381767D01*
X144575764Y-83262236D01*
X144545810Y-83237653D01*
X144545000Y-83236843D01*
X144545000Y-83210061D01*
X144505226Y-83010102D01*
X144427205Y-82821744D01*
X144313937Y-82652226D01*
X144169774Y-82508063D01*
X144000256Y-82394795D01*
X143811898Y-82316774D01*
X143611939Y-82277000D01*
X143408061Y-82277000D01*
X143208102Y-82316774D01*
X143019744Y-82394795D01*
X142850226Y-82508063D01*
X142706063Y-82652226D01*
X142592795Y-82821744D01*
X142514774Y-83010102D01*
X142475000Y-83210061D01*
X142390000Y-83210061D01*
X142390000Y-82562636D01*
X142495535Y-82492120D01*
X142690120Y-82297535D01*
X142843005Y-82068727D01*
X142948314Y-81814490D01*
X143002000Y-81544592D01*
X143002000Y-81269408D01*
X142948314Y-80999510D01*
X142843005Y-80745273D01*
X142690120Y-80516465D01*
X142495535Y-80321880D01*
X142266727Y-80168995D01*
X142012490Y-80063686D01*
X141742592Y-80010000D01*
X141467408Y-80010000D01*
X141197510Y-80063686D01*
X140943273Y-80168995D01*
X140714465Y-80321880D01*
X140519880Y-80516465D01*
X140366995Y-80745273D01*
X140261686Y-80999510D01*
X140208000Y-81269408D01*
X140208000Y-81544592D01*
X140261686Y-81814490D01*
X140366995Y-82068727D01*
X140519880Y-82297535D01*
X140714465Y-82492120D01*
X140820001Y-82562637D01*
X140820000Y-90258447D01*
X140816203Y-90297000D01*
X140820000Y-90335553D01*
X140820000Y-90335560D01*
X140831359Y-90450886D01*
X140876246Y-90598859D01*
X140949138Y-90735232D01*
X141047236Y-90854764D01*
X141077190Y-90879347D01*
X142029001Y-91831159D01*
X142029000Y-92711018D01*
X141983463Y-92766506D01*
X141924498Y-92876820D01*
X141888188Y-92996518D01*
X141875928Y-93121000D01*
X141875928Y-94171000D01*
X141888188Y-94295482D01*
X141924498Y-94415180D01*
X141983463Y-94525494D01*
X142062815Y-94622185D01*
X142159506Y-94701537D01*
X142269820Y-94760502D01*
X142389518Y-94796812D01*
X142514000Y-94809072D01*
X143015771Y-94809072D01*
X142641915Y-95182928D01*
X142514000Y-95182928D01*
X142389518Y-95195188D01*
X142269820Y-95231498D01*
X142159506Y-95290463D01*
X142062815Y-95369815D01*
X141983463Y-95466506D01*
X141924498Y-95576820D01*
X141912245Y-95617214D01*
X141912140Y-95617246D01*
X141784583Y-95685426D01*
X141788072Y-95650000D01*
X141788072Y-94850000D01*
X141775812Y-94725518D01*
X141739502Y-94605820D01*
X141680537Y-94495506D01*
X141601185Y-94398815D01*
X141504494Y-94319463D01*
X141394180Y-94260498D01*
X141274482Y-94224188D01*
X141150000Y-94211928D01*
X140250000Y-94211928D01*
X140125518Y-94224188D01*
X140005820Y-94260498D01*
X139895506Y-94319463D01*
X139798815Y-94398815D01*
X139788072Y-94411905D01*
X139788072Y-93900000D01*
X139775812Y-93775518D01*
X139739502Y-93655820D01*
X139680537Y-93545506D01*
X139601185Y-93448815D01*
X139504494Y-93369463D01*
X139485000Y-93359043D01*
X139485000Y-90365132D01*
X139726727Y-90265005D01*
X139955535Y-90112120D01*
X140150120Y-89917535D01*
X140303005Y-89688727D01*
X140408314Y-89434490D01*
X140462000Y-89164592D01*
X140462000Y-88889408D01*
X140408314Y-88619510D01*
X140303005Y-88365273D01*
X140150120Y-88136465D01*
X139955535Y-87941880D01*
X139726727Y-87788995D01*
X139472490Y-87683686D01*
X139202592Y-87630000D01*
X138927408Y-87630000D01*
X138657510Y-87683686D01*
X138403273Y-87788995D01*
X138174465Y-87941880D01*
X137979880Y-88136465D01*
X137826995Y-88365273D01*
X137721686Y-88619510D01*
X137668000Y-88889408D01*
X137668000Y-89164592D01*
X137721686Y-89434490D01*
X137826995Y-89688727D01*
X137915001Y-89820437D01*
X137915000Y-93359043D01*
X137895506Y-93369463D01*
X137798815Y-93448815D01*
X137719463Y-93545506D01*
X137660498Y-93655820D01*
X137624188Y-93775518D01*
X137611928Y-93900000D01*
X136550000Y-93900000D01*
X136550000Y-77292565D01*
X138279040Y-77292565D01*
X138346020Y-77532656D01*
X138595048Y-77649756D01*
X138862135Y-77716023D01*
X139137017Y-77728910D01*
X139409133Y-77687922D01*
X139668023Y-77594636D01*
X139783980Y-77532656D01*
X139850960Y-77292565D01*
X139065000Y-76506605D01*
X138279040Y-77292565D01*
X136550000Y-77292565D01*
X136550000Y-76399017D01*
X137663090Y-76399017D01*
X137704078Y-76671133D01*
X137797364Y-76930023D01*
X137859344Y-77045980D01*
X138099435Y-77112960D01*
X138885395Y-76327000D01*
X139244605Y-76327000D01*
X140030565Y-77112960D01*
X140270656Y-77045980D01*
X140387756Y-76796952D01*
X140454023Y-76529865D01*
X140466910Y-76254983D01*
X140425922Y-75982867D01*
X140332636Y-75723977D01*
X140270656Y-75608020D01*
X140030565Y-75541040D01*
X139244605Y-76327000D01*
X138885395Y-76327000D01*
X138099435Y-75541040D01*
X137859344Y-75608020D01*
X137742244Y-75857048D01*
X137675977Y-76124135D01*
X137663090Y-76399017D01*
X136550000Y-76399017D01*
X136550000Y-75361435D01*
X138279040Y-75361435D01*
X139065000Y-76147395D01*
X139850960Y-75361435D01*
X139783980Y-75121344D01*
X139534952Y-75004244D01*
X139267865Y-74937977D01*
X138992983Y-74925090D01*
X138720867Y-74966078D01*
X138461977Y-75059364D01*
X138346020Y-75121344D01*
X138279040Y-75361435D01*
X136550000Y-75361435D01*
X136550000Y-72415000D01*
X143666777Y-72415000D01*
X143656928Y-72515000D01*
M02*
