M48
; DRILL file {KiCad 5.1.5-52549c5~84~ubuntu18.04.1} date Wed 22 Jan 2020 04:22:55 PM EST
; FORMAT={-:-/ absolute / inch / decimal}
; #@! TF.CreationDate,2020-01-22T16:22:55-05:00
; #@! TF.GenerationSoftware,Kicad,Pcbnew,5.1.5-52549c5~84~ubuntu18.04.1
FMAT,2
INCH
T1C0.0157
T2C0.0250
T3C0.0315
T4C0.0472
%
G90
G05
T1
X5.65Y-3.28
X5.67Y-3.44
X5.75Y-3.82
X5.78Y-3.44
X5.9Y-3.82
T3
X5.4744Y-3.9128
X5.5531Y-3.9128
X5.6319Y-3.9128
X5.7106Y-3.9128
X5.7894Y-3.9128
X5.8681Y-3.9128
X5.9469Y-3.9128
X6.0256Y-3.9128
T4
X5.3957Y-4.0073
X6.1043Y-4.0073
T2
G00X5.475Y-3.002
M15
G01X5.475Y-3.008
M16
G05
G00X5.475Y-3.502
M15
G01X5.475Y-3.508
M16
G05
G00X5.575Y-3.202
M15
G01X5.575Y-3.208
M16
G05
T0
M30
